<svg width="11" height="11" viewBox="0 0 11 11" fill="none" xmlns="http://www.w3.org/2000/svg">
<g opacity="0.5">
    <path d="M0.342102 7.41278C1.11921 9.50716 3.1352 10.9997 5.50001 10.9997C7.86481 10.9997 9.8808 9.50716 10.6579 7.41278L5.50001 6.93454L0.342102 7.41278Z" fill="#FFDA44"/>
    <path d="M5.50001 0C3.1352 0 1.11921 1.49256 0.342102 3.58697L5.50001 4.06521L10.6579 3.58695C9.8808 1.49256 7.86481 0 5.50001 0Z" fill="black"/>
    <path d="M0.342096 3.5871C0.121021 4.18292 0 4.82737 0 5.50013C0 6.17289 0.121021 6.81734 0.342096 7.41316H10.6579C10.879 6.81734 11 6.17289 11 5.50013C11 4.82737 10.879 4.18292 10.6579 3.5871H0.342096Z" fill="#D80027"/>
</g>
</svg>
