<svg width="11" height="11" viewBox="0 0 11 11" fill="none" xmlns="http://www.w3.org/2000/svg">
<g opacity="0.5">
<g clip-path="url(#clip0)">
<path d="M5.5 11C8.53757 11 11 8.53757 11 5.5C11 2.46243 8.53757 0 5.5 0C2.46243 0 0 2.46243 0 5.5C0 8.53757 2.46243 11 5.5 11Z" fill="#F0F0F0"/>
<path d="M4.30446 4.78261H10.9535C10.602 2.08403 8.2945 0 5.50009 0C5.08942 0 4.68944 0.0453965 4.30444 0.130732V4.78261H4.30446Z" fill="#D80027"/>
<path d="M2.86957 4.78258V0.668732C1.35937 1.49274 0.278236 3.00419 0.0465698 4.7826H2.86957V4.78258Z" fill="#D80027"/>
<path d="M2.86955 6.21738H0.0465698C0.278236 7.99579 1.35937 9.50724 2.86957 10.3312L2.86955 6.21738Z" fill="#D80027"/>
<path d="M4.30444 6.2174V10.8693C4.68944 10.9546 5.08942 11 5.50009 11C8.2945 11 10.602 8.91596 10.9535 6.21738H4.30444V6.2174Z" fill="#D80027"/>
</g>
</g>
<defs>
<clipPath id="clip0">
<rect width="11" height="11" fill="white"/>
</clipPath>
</defs>
</svg>
