<svg width="11" height="11" viewBox="0 0 11 11" fill="none" xmlns="http://www.w3.org/2000/svg">
<g opacity="1">
<path d="M5.5 11C8.53757 11 11 8.53757 11 5.5C11 2.46243 8.53757 0 5.5 0C2.46243 0 0 2.46243 0 5.5C0 8.53757 2.46243 11 5.5 11Z" fill="#0052B4"/>
<path d="M5.49919 2.15222L5.67727 2.70027H6.25348L5.78729 3.03897L5.96537 3.58702L5.49919 3.24829L5.03298 3.58702L5.21106 3.03897L4.74487 2.70027H5.3211L5.49919 2.15222Z" fill="#FFDA44"/>
<path d="M3.13257 3.13274L3.64605 3.39434L4.0535 2.98691L3.96333 3.55603L4.47678 3.81764L3.90764 3.90779L3.81749 4.47696L3.55588 3.9635L2.98676 4.05367L3.39421 3.64622L3.13257 3.13274Z" fill="#FFDA44"/>
<path d="M2.15179 5.50008L2.69984 5.32199V4.74576L3.03852 5.21197L3.58659 5.03389L3.24784 5.50008L3.58659 5.96627L3.03852 5.78821L2.69984 6.2544V5.67816L2.15179 5.50008Z" fill="#FFDA44"/>
<path d="M3.13257 7.86735L3.39419 7.35388L2.98676 6.94643L3.5559 7.03662L3.81747 6.52316L3.90764 7.09231L4.47676 7.18245L3.96337 7.44407L4.0535 8.01319L3.64605 7.60574L3.13257 7.86735Z" fill="#FFDA44"/>
<path d="M5.49919 8.84789L5.32108 8.29985H4.74487L5.21108 7.96115L5.03298 7.41315L5.49919 7.75183L5.96537 7.41315L5.78729 7.96115L6.25348 8.29985H5.67725L5.49919 8.84789Z" fill="#FFDA44"/>
<path d="M7.86675 7.86735L7.3533 7.60576L6.94582 8.01321L7.036 7.44405L6.52258 7.18245L7.0917 7.09231L7.18185 6.52316L7.44345 7.03662L8.01257 6.94643L7.60512 7.35392L7.86675 7.86735Z" fill="#FFDA44"/>
<path d="M8.84789 5.50008L8.29985 5.67816V6.2544L7.96115 5.78819L7.41315 5.96627L7.75185 5.50008L7.41315 5.03389L7.96117 5.21197L8.29985 4.74576V5.32202L8.84789 5.50008Z" fill="#FFDA44"/>
<path d="M7.86675 3.13275L7.60514 3.64623L8.01259 4.05368L7.44342 3.96349L7.18185 4.47694L7.0917 3.9078L6.52258 3.81763L7.036 3.55604L6.94582 2.98694L7.35332 3.39437L7.86675 3.13275Z" fill="#FFDA44"/>
</g>
</svg>
