<svg width="11" height="11" viewBox="0 0 11 11" fill="none" xmlns="http://www.w3.org/2000/svg">
<g clip-path="url(#clip0)">
<path d="M5.5 11C8.53757 11 11 8.53757 11 5.5C11 2.46243 8.53757 0 5.5 0C2.46243 0 0 2.46243 0 5.5C0 8.53757 2.46243 11 5.5 11Z" fill="#F0F0F0"/>
<path d="M0.189392 6.93494C0.507619 8.1157 1.20898 9.13908 2.1521 9.86373V6.93494H0.189392Z" fill="#D80027"/>
<path d="M5.02167 10.9792C5.17932 10.9928 5.33876 11.0001 5.49993 11.0001C8.04108 11.0001 10.1793 9.27664 10.8105 6.93494H5.02167V10.9792Z" fill="#D80027"/>
<path d="M10.8105 4.06521C10.1793 1.7235 8.04108 0 5.49993 0C5.33876 0 5.17932 0.00734766 5.02167 0.0209258V4.06521H10.8105Z" fill="#D80027"/>
<path d="M2.1521 1.13675C1.20898 1.86142 0.507619 2.88478 0.189392 4.06554H2.1521V1.13675Z" fill="#D80027"/>
<path d="M10.9534 4.78238H4.30437H4.30435V0.130493C3.79607 0.2432 3.3142 0.425882 2.86956 0.668505V4.78233V4.78235H0.0465566C0.0159414 5.0172 0 5.25662 0 5.49976C0 5.7429 0.0159414 5.98232 0.0465566 6.21715H2.86954H2.86956V10.331C3.3142 10.5736 3.79607 10.7563 4.30435 10.869V6.21721V6.21717H10.9534C10.984 5.98232 11 5.7429 11 5.49976C11 5.25662 10.984 5.0172 10.9534 4.78238Z" fill="#0052B4"/>
</g>
<defs>
<clipPath id="clip0">
<rect width="11" height="11" fill="white"/>
</clipPath>
</defs>
</svg>
