<svg width="18" height="18" viewBox="0 0 18 18" fill="none" xmlns="http://www.w3.org/2000/svg">
<path d="M8.78246 0.539993C5.89381 0.539993 3.5437 2.83209 3.5437 5.64954C3.54607 7.02156 4.10849 8.33319 5.10068 9.28069V16.9928C5.10068 17.1442 5.18176 17.2839 5.31307 17.359C5.44425 17.4342 5.60575 17.4331 5.73626 17.3565L8.78246 15.5669L11.8285 17.3569C11.959 17.4335 12.1207 17.4343 12.2519 17.3592C12.3832 17.284 12.4642 17.1442 12.4641 16.9928V9.28069C13.4566 8.33319 14.019 7.02156 14.0212 5.64954C14.0212 2.83209 11.6711 0.539993 8.78246 0.539993V0.539993ZM11.6204 16.2557L8.99617 14.7138C8.8642 14.6361 8.70059 14.6361 8.56876 14.7138L5.94443 16.2557V9.94237C7.67966 11.0313 9.88514 11.0313 11.6204 9.94237V16.2557ZM8.78246 9.91535C6.35906 9.91535 4.38745 8.00162 4.38745 5.64954C4.38745 3.29733 6.35906 1.38374 8.78246 1.38374C11.206 1.38374 13.1775 3.29733 13.1775 5.64954C13.1775 8.00162 11.206 9.91535 8.78246 9.91535Z" fill="#546E7A"/>
<path d="M11.4396 4.48521H9.71361L9.18258 2.89461C9.1251 2.72256 8.96386 2.60641 8.78245 2.60641C8.60092 2.60641 8.43968 2.72256 8.38233 2.89461L7.8513 4.48521H6.12517C5.94152 4.48521 5.77884 4.60399 5.72307 4.7792C5.66757 4.95428 5.73164 5.14531 5.88167 5.25144L7.26792 6.23164L6.73992 7.81327C6.68218 7.98637 6.74203 8.17687 6.8885 8.28564C7.03484 8.3944 7.23457 8.39665 7.38354 8.29131L8.78245 7.30267L10.1811 8.29157C10.3301 8.39678 10.5298 8.39454 10.6763 8.28577C10.8226 8.17701 10.8826 7.9865 10.8247 7.81354L10.297 6.23164L11.6834 5.25144C11.8334 5.14531 11.8976 4.95428 11.8418 4.7792C11.7862 4.60399 11.6236 4.48521 11.4397 4.48521H11.4396ZM9.39734 6.20158L9.61671 6.85904L9.02609 6.44126C8.88001 6.33803 8.6849 6.33803 8.53895 6.44126L7.94833 6.85904L8.1677 6.20158C8.22663 6.02531 8.16309 5.83099 8.01108 5.72354L7.45263 5.32896H8.15531C8.33672 5.32896 8.49795 5.21268 8.55543 5.0405L8.78245 4.36023L9.00961 5.0405C9.06709 5.21268 9.22819 5.32896 9.40973 5.32896H10.1124L9.55383 5.72354C9.40195 5.83099 9.33827 6.02531 9.39734 6.20158Z" fill="#546E7A"/>
</svg>
