<svg width="16" height="16" viewBox="0 0 16 16" fill="none" xmlns="http://www.w3.org/2000/svg">
<path d="M14.5959 2.12885C13.6889 1.22182 12.4833 0.722307 11.2014 0.722374C10.0088 0.722441 8.88267 1.15529 8.0011 1.94586C7.11993 1.15582 5.99431 0.723307 4.80189 0.723307C4.80175 0.723307 4.80155 0.723307 4.80135 0.723307C3.51893 0.723441 2.31331 1.22316 1.40681 2.13025C0.499648 3.03702 0 4.24264 0 5.52493C0 6.80734 0.499581 8.0131 1.40668 8.92013L1.52114 9.03466C1.52094 9.04566 1.52034 9.05666 1.52034 9.06773C1.52034 9.48864 1.68447 9.8841 1.98179 10.1804C2.24892 10.4477 2.59497 10.6069 2.96716 10.6369C2.96702 10.6456 2.96656 10.6542 2.96656 10.6629C2.96676 11.0836 3.13082 11.4788 3.42834 11.7758C3.72566 12.0729 4.12091 12.2366 4.54123 12.2366C4.5413 12.2366 4.5413 12.2366 4.5413 12.2366C4.55023 12.2366 4.55903 12.2361 4.56796 12.2359C4.59683 12.5955 4.74742 12.9467 5.02141 13.2208C5.28887 13.4889 5.63526 13.6484 6.00777 13.6784C6.00764 13.6864 6.00717 13.6944 6.00717 13.7025C6.00717 14.1231 6.17117 14.5186 6.46842 14.8156C6.76541 15.1134 7.161 15.2775 7.58218 15.2775C7.58225 15.2775 7.58218 15.2775 7.58225 15.2775C8.00277 15.2775 8.39815 15.1139 8.69581 14.8166L9.7323 13.7789C9.89016 13.6212 10.01 13.4357 10.0881 13.2335C10.2909 13.155 10.4761 13.0357 10.6333 12.8784C10.9183 12.5937 11.0807 12.2188 11.0943 11.818C11.495 11.8048 11.8698 11.6423 12.1542 11.3576C12.4251 11.0869 12.5854 10.7349 12.6122 10.3566C12.6153 10.3566 12.6184 10.3567 12.6215 10.3567C13.0245 10.3566 13.428 10.2037 13.7358 9.89756C13.8589 9.77423 13.9589 9.63397 14.0341 9.48224L14.5959 8.9206C16.468 7.04914 16.468 4.00232 14.5959 2.12885ZM2.68837 9.47291C2.58004 9.36485 2.52031 9.22092 2.52031 9.06766C2.52031 8.91393 2.58024 8.7692 2.68877 8.66054L3.72473 7.62511C3.83359 7.51625 3.97818 7.45632 4.13191 7.45632C4.28524 7.45632 4.42923 7.51605 4.53803 7.62498C4.76209 7.84877 4.76222 8.21389 4.53936 8.43788L4.4813 8.49588C4.4757 8.50135 4.46983 8.50648 4.4643 8.51208L3.50114 9.47538C3.39301 9.58324 3.24948 9.64264 3.09668 9.64264H3.09662C2.94282 9.64264 2.79803 9.58257 2.68837 9.47291ZM4.5413 11.2366C4.38797 11.2366 4.24377 11.1769 4.13498 11.0683C4.02638 10.9599 3.96658 10.8158 3.96652 10.6625C3.96645 10.5088 4.02638 10.3643 4.13531 10.2553L4.20618 10.1845C4.20718 10.1835 4.20824 10.1826 4.20924 10.1816L5.18001 9.21125C5.28774 9.10779 5.42833 9.05059 5.57779 9.05059C5.73165 9.05059 5.87658 9.11066 5.98524 9.21892C6.20923 9.44311 6.20923 9.80823 5.98591 10.032L4.94768 11.0679C4.83909 11.1768 4.69476 11.2366 4.5413 11.2366ZM5.72899 12.5143C5.50526 12.2905 5.50553 11.9258 5.72932 11.7018L6.76595 10.6663C6.87508 10.5571 7.0198 10.4969 7.17326 10.4969C7.32613 10.4969 7.47005 10.5567 7.57898 10.6657C7.68758 10.7741 7.74738 10.9183 7.74744 11.0717C7.74751 11.2254 7.68771 11.3699 7.57958 11.4782L6.54142 12.5151C6.43303 12.6241 6.28903 12.6841 6.13597 12.6841C5.98271 12.684 5.83831 12.6239 5.72899 12.5143ZM7.98877 14.1095C7.88024 14.2179 7.73591 14.2776 7.58225 14.2776C7.42865 14.2776 7.28453 14.2179 7.17586 14.1089C7.06707 14.0003 7.0072 13.8559 7.0072 13.7026C7.0072 13.5491 7.06713 13.4048 7.17606 13.2958L8.21216 12.2597C8.32089 12.1509 8.46522 12.0911 8.61854 12.0911C8.77214 12.0911 8.91673 12.1511 9.0254 12.2595C9.13392 12.3681 9.19372 12.5124 9.19372 12.6659C9.19372 12.8192 9.13406 12.9632 9.02533 13.0718L7.98877 14.1095ZM12.2143 9.18912L12.1554 9.13026C12.1553 9.13012 12.1552 9.12999 12.1551 9.12992L9.99589 6.97127C9.80057 6.77595 9.48411 6.77601 9.28878 6.97134C9.09359 7.16667 9.09359 7.48319 9.28885 7.67845L11.4473 9.83636C11.4475 9.83656 11.4477 9.83683 11.4479 9.83703C11.5565 9.94569 11.6162 10.0901 11.6161 10.2437C11.616 10.3973 11.556 10.5417 11.447 10.6506C11.3386 10.7592 11.1943 10.8189 11.0409 10.8189C10.8873 10.8189 10.7429 10.7591 10.6341 10.6503L8.47575 8.49195C8.28049 8.29676 7.9639 8.29676 7.76871 8.49195C7.57345 8.68727 7.57345 9.0038 7.76871 9.19905L9.92709 11.3574C10.0356 11.4659 10.0953 11.6104 10.0952 11.7641C10.0951 11.8459 10.0776 11.9248 10.0454 11.9974C9.96869 11.8342 9.8635 11.6836 9.7321 11.5522C9.46478 11.2852 9.11872 11.1264 8.74667 11.0967C8.74681 11.0882 8.74727 11.0797 8.74727 11.0713C8.74714 10.6504 8.58301 10.2549 8.28569 9.95829C7.98837 9.6607 7.59325 9.49684 7.1732 9.49684C7.1642 9.49684 7.15526 9.49738 7.14627 9.49751C7.11713 9.13786 6.96627 8.78614 6.69182 8.51135C6.42376 8.24429 6.07691 8.08543 5.70432 8.05603C5.71072 7.64418 5.55832 7.23066 5.24527 6.91794C4.94808 6.62022 4.5527 6.45622 4.13191 6.45622C3.71113 6.45622 3.31541 6.62015 3.01775 6.91781L1.98153 7.9535C1.96279 7.97223 1.94466 7.99137 1.92699 8.01083C1.32782 7.32026 0.999963 6.44796 0.999963 5.52499C0.999963 4.50976 1.39548 3.55533 2.11392 2.83736C2.83176 2.11899 3.78619 1.72334 4.80149 1.72327C4.80169 1.72327 4.80169 1.72327 4.80189 1.72327C5.72412 1.72327 6.59575 2.05072 7.28646 2.64957L5.36653 4.56983C4.75269 5.18421 4.75249 6.18344 5.3664 6.79748C5.98058 7.41092 6.97961 7.41086 7.59372 6.79715L9.52144 4.86848L13.0292 8.37682C13.1374 8.48455 13.1971 8.62834 13.1973 8.78187C13.1974 8.85633 13.1832 8.9286 13.1566 8.99573C13.1542 9.00126 13.1518 9.00673 13.1496 9.01233C13.1213 9.07786 13.081 9.13812 13.0294 9.18972C12.8042 9.41371 12.4386 9.41351 12.2143 9.18912ZM14.0265 8.06836C13.9521 7.9225 13.8547 7.78764 13.7356 7.66905L9.87516 3.80806C9.8751 3.80799 9.87496 3.80786 9.8749 3.80772C9.69217 3.62513 9.40351 3.61347 9.20725 3.77246C9.20679 3.77286 9.20632 3.77313 9.20592 3.77353C9.19739 3.78046 9.18939 3.78826 9.18126 3.79579C9.17692 3.79986 9.17226 3.80359 9.16799 3.80786L9.16792 3.80792L9.16786 3.80799L6.88674 6.09011C6.66248 6.31403 6.2975 6.31403 6.07337 6.09024C5.84938 5.86618 5.84965 5.50119 6.07397 5.2766L8.34989 3.00036C8.35182 2.99849 8.35395 2.99682 8.35582 2.99496C8.35762 2.99316 8.35915 2.99109 8.36095 2.98929L8.51355 2.83663C9.23199 2.11819 10.1866 1.72247 11.2016 1.7224C12.2164 1.72234 13.1708 2.11785 13.8887 2.83583C15.3236 4.27177 15.3695 6.57815 14.0265 8.06836Z" fill="#546E7A"/>
</svg>
