<svg width="14" height="17" viewBox="0 0 14 17" fill="none" xmlns="http://www.w3.org/2000/svg">
<path d="M7.5 1.5907C8.3125 1.5907 9 2.2782 9 3.0907V14.0907C9 14.9344 8.3125 15.5907 7.5 15.5907H6.5C5.65625 15.5907 5 14.9344 5 14.0907V3.0907C5 2.2782 5.65625 1.5907 6.5 1.5907H7.5ZM7.5 2.5907H6.5C6.21875 2.5907 6 2.8407 6 3.0907V14.0907C6 14.3719 6.21875 14.5907 6.5 14.5907H7.5C7.75 14.5907 8 14.3719 8 14.0907V3.0907C8 2.8407 7.75 2.5907 7.5 2.5907ZM2.5 7.5907C3.3125 7.5907 4 8.2782 4 9.0907V14.0907C4 14.9344 3.3125 15.5907 2.5 15.5907H1.5C0.65625 15.5907 0 14.9344 0 14.0907V9.0907C0 8.2782 0.65625 7.5907 1.5 7.5907H2.5ZM2.5 8.5907H1.5C1.21875 8.5907 1 8.8407 1 9.0907V14.0907C1 14.3719 1.21875 14.5907 1.5 14.5907H2.5C2.75 14.5907 3 14.3719 3 14.0907V9.0907C3 8.8407 2.75 8.5907 2.5 8.5907ZM10 5.0907C10 4.2782 10.6562 3.5907 11.5 3.5907H12.5C13.3125 3.5907 14 4.2782 14 5.0907V14.0907C14 14.9344 13.3125 15.5907 12.5 15.5907H11.5C10.6562 15.5907 10 14.9344 10 14.0907V5.0907ZM11 5.0907V14.0907C11 14.3719 11.2188 14.5907 11.5 14.5907H12.5C12.75 14.5907 13 14.3719 13 14.0907V5.0907C13 4.8407 12.75 4.5907 12.5 4.5907H11.5C11.2188 4.5907 11 4.8407 11 5.0907Z" fill="#546E7A"/>
</svg>
