<svg width="16" height="16" viewBox="0 0 16 16" fill="none" xmlns="http://www.w3.org/2000/svg">
<path d="M6.16663 5.33337H1.16663C0.523315 5.33337 0 4.81006 0 4.16663V1.16663C0 0.523315 0.523315 0 1.16663 0H6.16663C6.81006 0 7.33337 0.523315 7.33337 1.16663V4.16663C7.33337 4.81006 6.81006 5.33337 6.16663 5.33337ZM1.16663 1C1.07471 1 1 1.07471 1 1.16663V4.16663C1 4.25867 1.07471 4.33337 1.16663 4.33337H6.16663C6.25867 4.33337 6.33337 4.25867 6.33337 4.16663V1.16663C6.33337 1.07471 6.25867 1 6.16663 1H1.16663Z" fill="#546E7A"/>
<path d="M6.16663 16H1.16663C0.523315 16 0 15.4767 0 14.8334V7.83337C0 7.18994 0.523315 6.66663 1.16663 6.66663H6.16663C6.81006 6.66663 7.33337 7.18994 7.33337 7.83337V14.8334C7.33337 15.4767 6.81006 16 6.16663 16ZM1.16663 7.66663C1.07471 7.66663 1 7.74133 1 7.83337V14.8334C1 14.9253 1.07471 15 1.16663 15H6.16663C6.25867 15 6.33337 14.9253 6.33337 14.8334V7.83337C6.33337 7.74133 6.25867 7.66663 6.16663 7.66663H1.16663Z" fill="#546E7A"/>
<path d="M14.8334 16H9.83337C9.18994 16 8.66663 15.4767 8.66663 14.8334V11.8334C8.66663 11.1899 9.18994 10.6666 9.83337 10.6666H14.8334C15.4767 10.6666 16 11.1899 16 11.8334V14.8334C16 15.4767 15.4767 16 14.8334 16ZM9.83337 11.6666C9.74133 11.6666 9.66663 11.7413 9.66663 11.8334V14.8334C9.66663 14.9253 9.74133 15 9.83337 15H14.8334C14.9253 15 15 14.9253 15 14.8334V11.8334C15 11.7413 14.9253 11.6666 14.8334 11.6666H9.83337Z" fill="#546E7A"/>
<path d="M14.8334 9.33337H9.83337C9.18994 9.33337 8.66663 8.81006 8.66663 8.16663V1.16663C8.66663 0.523315 9.18994 0 9.83337 0H14.8334C15.4767 0 16 0.523315 16 1.16663V8.16663C16 8.81006 15.4767 9.33337 14.8334 9.33337ZM9.83337 1C9.74133 1 9.66663 1.07471 9.66663 1.16663V8.16663C9.66663 8.25867 9.74133 8.33337 9.83337 8.33337H14.8334C14.9253 8.33337 15 8.25867 15 8.16663V1.16663C15 1.07471 14.9253 1 14.8334 1H9.83337Z" fill="#546E7A"/>
</svg>
