<svg width="16" height="16" viewBox="0 0 16 16" fill="none" xmlns="http://www.w3.org/2000/svg">
<g clip-path="url(#clip0)">
<path d="M1.47241 4.95414H14.5276C15.3395 4.95414 16 4.29361 16 3.48174C16 2.66883 15.3395 2.00833 14.5276 2.00833H1.47241C0.660531 2.00833 0 2.66883 0 3.48174C0 4.29361 0.660531 4.95414 1.47241 4.95414ZM1.47241 2.94583H14.5276C14.8225 2.94583 15.0625 3.1858 15.0625 3.48074C15.0625 3.77671 14.8225 4.01664 14.5276 4.01664H1.47241C1.17747 4.01664 0.9375 3.77668 0.9375 3.48074C0.9375 3.18577 1.17747 2.94583 1.47241 2.94583Z" fill="#546E7A"/>
<path d="M14.5276 6.5271H1.47241C0.660531 6.5271 0 7.1876 0 8.00051C0 8.81238 0.660531 9.47291 1.47241 9.47291H14.5276C15.3395 9.47291 16 8.81238 16 8.00051C16 7.1876 15.3395 6.5271 14.5276 6.5271ZM14.5276 8.53541H1.47241C1.17747 8.53541 0.9375 8.29544 0.9375 7.99951C0.9375 7.70457 1.17747 7.4646 1.47241 7.4646H14.5276C14.8225 7.4646 15.0625 7.70457 15.0625 7.99951C15.0625 8.29547 14.8225 8.53541 14.5276 8.53541Z" fill="#546E7A"/>
<path d="M14.5276 11.0458H1.47241C0.660531 11.0458 0 11.7064 0 12.5192C0 13.3311 0.660531 13.9916 1.47241 13.9916H14.5276C15.3395 13.9916 16 13.3311 16 12.5192C16 11.7064 15.3395 11.0458 14.5276 11.0458ZM14.5276 13.0541H1.47241C1.17747 13.0541 0.9375 12.8142 0.9375 12.5182C0.9375 12.2233 1.17747 11.9833 1.47241 11.9833H14.5276C14.8225 11.9833 15.0625 12.2233 15.0625 12.5182C15.0625 12.8142 14.8225 13.0541 14.5276 13.0541Z" fill="#546E7A"/>
</g>
<defs>
<clipPath id="clip0">
<rect width="16" height="16" fill="white"/>
</clipPath>
</defs>
</svg>
