<svg width="16" height="16" viewBox="0 0 16 16" fill="none" xmlns="http://www.w3.org/2000/svg">
<g clip-path="url(#clip0)">
<path d="M12.7368 1.96444C8.52786 -2.2402 1.31159 0.75281 1.30896 6.70203C1.40456 9.24433 3.84913 12.4761 5.75541 14.9568C6.9006 16.3767 9.21278 16.3413 10.3156 14.886C11.7291 13.1295 14.7812 8.90476 14.6891 6.70193C14.6891 4.91136 13.9958 3.22887 12.7368 1.96444ZM9.33327 14.1122C9.01086 14.5216 8.52711 14.7563 8.00616 14.7563C7.48602 14.7564 7.00317 14.5221 6.68145 14.1137C6.68114 14.1133 6.68083 14.1129 6.68055 14.1125C4.09748 10.8232 2.55941 8.084 2.55941 6.70197C2.55941 3.69642 4.99961 1.25107 7.99903 1.25107C10.9942 1.25107 13.4386 3.69642 13.4386 6.70197C13.4386 8.0992 11.9423 10.8001 9.33327 14.1122ZM8.93689 7.15961H8.03029C7.68497 7.15961 7.40505 6.87969 7.40505 6.53437V5.34641C7.43806 4.51684 8.6228 4.51746 8.65553 5.34641V5.90913H8.93689C9.76647 5.94214 9.76584 7.12691 8.93689 7.15961ZM11.7818 6.53437C11.7818 4.46582 10.0988 2.78291 8.03029 2.78291C3.05323 2.98902 3.05517 10.0807 8.03029 10.2858C10.0988 10.2858 11.7818 8.60292 11.7818 6.53437ZM10.5313 6.53437C10.5313 7.91341 9.40933 9.03534 8.03029 9.03534C4.71225 8.89794 4.71353 4.17017 8.03029 4.0334C9.40933 4.0334 10.5313 5.15533 10.5313 6.53437Z" fill="#546E7A"/>
</g>
<defs>
<clipPath id="clip0">
<rect width="16" height="16" fill="white"/>
</clipPath>
</defs>
</svg>
