<svg width="16" height="16" viewBox="0 0 16 16" fill="none" xmlns="http://www.w3.org/2000/svg">
<path d="M12.8125 8.625C13.0312 8.625 13.25 8.84375 13.25 9.0625C13.25 9.30859 13.0312 9.5 12.8125 9.5H7.5625C7.31641 9.5 7.125 9.30859 7.125 9.0625C7.125 8.84375 7.31641 8.625 7.5625 8.625H12.8125ZM7.125 6.4375C7.125 6.21875 7.31641 6 7.5625 6H12.8125C13.0312 6 13.25 6.21875 13.25 6.4375C13.25 6.68359 13.0312 6.875 12.8125 6.875H7.5625C7.31641 6.875 7.125 6.68359 7.125 6.4375ZM4.47266 5.39844C4.63672 5.42578 4.99219 5.50781 5.15625 5.53516C5.375 5.58984 5.51172 5.83594 5.45703 6.08203C5.40234 6.30078 5.15625 6.4375 4.91016 6.38281C4.80078 6.35547 4.44531 6.27344 4.30859 6.24609C3.95312 6.19141 3.67969 6.24609 3.46094 6.32812C3.26953 6.4375 3.1875 6.54688 3.1875 6.62891C3.16016 6.76562 3.1875 6.82031 3.1875 6.84766C3.21484 6.875 3.24219 6.92969 3.32422 6.98438C3.51562 7.12109 3.78906 7.20312 4.17188 7.3125H4.19922C4.52734 7.42188 4.96484 7.55859 5.26562 7.77734C5.45703 7.91406 5.59375 8.07812 5.70312 8.29688C5.8125 8.51562 5.8125 8.76172 5.78516 9.03516C5.70312 9.5 5.375 9.82812 4.96484 10.0195C4.82812 10.0742 4.66406 10.1289 4.5 10.1562V10.375C4.5 10.6211 4.28125 10.8125 4.0625 10.8125C3.81641 10.8125 3.625 10.6211 3.625 10.375V10.1289C3.35156 10.0742 2.96875 9.9375 2.72266 9.85547C2.66797 9.85547 2.64062 9.82812 2.58594 9.82812C2.36719 9.74609 2.25781 9.5 2.3125 9.25391C2.39453 9.03516 2.64062 8.89844 2.88672 8.98047C2.91406 9.00781 2.99609 9.03516 3.05078 9.03516C3.29688 9.14453 3.59766 9.22656 3.78906 9.25391C4.14453 9.33594 4.44531 9.28125 4.63672 9.19922C4.80078 9.11719 4.88281 9.03516 4.91016 8.87109C4.9375 8.76172 4.91016 8.67969 4.91016 8.65234C4.88281 8.59766 4.82812 8.54297 4.77344 8.48828C4.58203 8.35156 4.30859 8.26953 3.92578 8.16016L3.87109 8.13281C3.54297 8.02344 3.13281 7.91406 2.83203 7.69531C2.66797 7.58594 2.50391 7.42188 2.39453 7.23047C2.3125 6.98438 2.28516 6.73828 2.3125 6.49219C2.39453 6.02734 2.72266 5.72656 3.10547 5.53516C3.26953 5.48047 3.43359 5.42578 3.625 5.39844V5.125C3.625 4.90625 3.81641 4.6875 4.0625 4.6875C4.28125 4.6875 4.5 4.90625 4.5 5.125L4.47266 5.39844ZM0.125 4.25C0.125 3.29297 0.890625 2.5 1.875 2.5H14.125C15.082 2.5 15.875 3.29297 15.875 4.25V11.25C15.875 12.2344 15.082 13 14.125 13H1.875C0.890625 13 0.125 12.2344 0.125 11.25V4.25ZM1 4.25V11.25C1 11.7422 1.38281 12.125 1.875 12.125H14.125C14.5898 12.125 15 11.7422 15 11.25V4.25C15 3.78516 14.5898 3.375 14.125 3.375H1.875C1.38281 3.375 1 3.78516 1 4.25Z" fill="#546E7A"/>
<path d="M4.47266 5.39844L4.37315 5.38849L4.36383 5.48168L4.45622 5.49708L4.47266 5.39844ZM5.15625 5.53516L5.18058 5.43783L5.17269 5.43652L5.15625 5.53516ZM5.45703 6.08203L5.55408 6.10629L5.55465 6.10372L5.45703 6.08203ZM4.91016 6.38281L4.88589 6.47986L4.88846 6.48043L4.91016 6.38281ZM4.30859 6.24609L4.32823 6.14794L4.3238 6.14726L4.30859 6.24609ZM3.46094 6.32812L3.42583 6.23449L3.4183 6.23731L3.41132 6.2413L3.46094 6.32812ZM3.1875 6.62891L3.28556 6.64852L3.2875 6.63881V6.62891H3.1875ZM3.1875 6.84766H3.0875V6.88908L3.11679 6.91837L3.1875 6.84766ZM3.32422 6.98438L3.38237 6.90296L3.37969 6.90117L3.32422 6.98438ZM4.17188 7.3125L4.1444 7.40865L4.15787 7.4125H4.17188V7.3125ZM4.19922 7.3125L4.23084 7.21763L4.21545 7.2125H4.19922V7.3125ZM5.26562 7.77734L5.20681 7.85822L5.2075 7.85872L5.26562 7.77734ZM5.78516 9.03516L5.88391 9.05258L5.88466 9.04511L5.78516 9.03516ZM4.96484 10.0195L5.00204 10.1125L5.00713 10.1101L4.96484 10.0195ZM4.5 10.1562L4.48356 10.0576L4.4 10.0715V10.1562H4.5ZM3.625 10.1289H3.725V10.0469L3.64461 10.0308L3.625 10.1289ZM2.72266 9.85547L2.75428 9.7606L2.73888 9.75547H2.72266V9.85547ZM2.58594 9.82812L2.55083 9.92176L2.5678 9.92813H2.58594V9.82812ZM2.3125 9.25391L2.21794 9.21845L2.21488 9.23221L2.3125 9.25391ZM2.88672 8.98047L2.95743 8.90976L2.94074 8.89307L2.91834 8.8856L2.88672 8.98047ZM3.05078 9.03516L3.0914 8.94378L3.072 8.93516H3.05078V9.03516ZM3.78906 9.25391L3.81163 9.15611L3.8032 9.15491L3.78906 9.25391ZM4.63672 9.19922L4.67618 9.29129L4.68144 9.28866L4.63672 9.19922ZM4.91016 8.87109L4.81283 8.84676L4.81152 8.85465L4.91016 8.87109ZM4.91016 8.65234H5.01016V8.62874L4.9996 8.60762L4.91016 8.65234ZM4.77344 8.48828L4.84415 8.41757L4.8383 8.41172L4.83156 8.40691L4.77344 8.48828ZM3.92578 8.16016L3.88106 8.2496L3.88937 8.25376L3.89831 8.25631L3.92578 8.16016ZM3.87109 8.13281L3.91582 8.04337L3.90946 8.04019L3.90272 8.03794L3.87109 8.13281ZM2.83203 7.69531L2.8909 7.61437L2.8875 7.61211L2.83203 7.69531ZM2.39453 7.23047L2.29966 7.26209L2.30279 7.27149L2.30771 7.28008L2.39453 7.23047ZM2.3125 6.49219L2.21382 6.47477L2.21311 6.48114L2.3125 6.49219ZM3.10547 5.53516L3.07385 5.44029L3.0671 5.44254L3.06075 5.44571L3.10547 5.53516ZM3.625 5.39844L3.63914 5.49743L3.725 5.48517V5.39844H3.625ZM4.5 5.125L4.6 5.135V5.125H4.5ZM12.8125 8.725C12.8894 8.725 12.9746 8.76443 13.0426 8.83243C13.1106 8.90043 13.15 8.98565 13.15 9.0625H13.35C13.35 8.9206 13.2801 8.78707 13.184 8.69101C13.0879 8.59494 12.9544 8.525 12.8125 8.525V8.725ZM13.15 9.0625C13.15 9.2494 12.9801 9.4 12.8125 9.4V9.6C13.0824 9.6 13.35 9.36779 13.35 9.0625H13.15ZM12.8125 9.4H7.5625V9.6H12.8125V9.4ZM7.5625 9.4C7.37163 9.4 7.225 9.25337 7.225 9.0625H7.025C7.025 9.36382 7.26118 9.6 7.5625 9.6V9.4ZM7.225 9.0625C7.225 8.89492 7.3756 8.725 7.5625 8.725V8.525C7.25721 8.525 7.025 8.79258 7.025 9.0625H7.225ZM7.5625 8.725H12.8125V8.525H7.5625V8.725ZM7.225 6.4375C7.225 6.26992 7.3756 6.1 7.5625 6.1V5.9C7.25721 5.9 7.025 6.16758 7.025 6.4375H7.225ZM7.5625 6.1H12.8125V5.9H7.5625V6.1ZM12.8125 6.1C12.8894 6.1 12.9746 6.13943 13.0426 6.20743C13.1106 6.27543 13.15 6.36065 13.15 6.4375H13.35C13.35 6.2956 13.2801 6.16207 13.184 6.06601C13.0879 5.96994 12.9544 5.9 12.8125 5.9V6.1ZM13.15 6.4375C13.15 6.6244 12.9801 6.775 12.8125 6.775V6.975C13.0824 6.975 13.35 6.74279 13.35 6.4375H13.15ZM12.8125 6.775H7.5625V6.975H12.8125V6.775ZM7.5625 6.775C7.37163 6.775 7.225 6.62837 7.225 6.4375H7.025C7.025 6.73882 7.26118 6.975 7.5625 6.975V6.775ZM4.45622 5.49708C4.53563 5.51031 4.66295 5.53709 4.79385 5.56465C4.92272 5.59178 5.05516 5.61969 5.13981 5.6338L5.17269 5.43652C5.09328 5.42328 4.96596 5.3965 4.83505 5.36894C4.70619 5.34181 4.57375 5.31391 4.4891 5.2998L4.45622 5.49708ZM5.132 5.63217C5.28947 5.67154 5.40439 5.85796 5.35941 6.06034L5.55465 6.10372C5.61905 5.81392 5.46053 5.50815 5.1805 5.43814L5.132 5.63217ZM5.36002 6.05778C5.32065 6.21525 5.13423 6.33017 4.93185 6.28519L4.88846 6.48043C5.17827 6.54483 5.48404 6.38631 5.55405 6.10628L5.36002 6.05778ZM4.93441 6.2858C4.82399 6.25819 4.46691 6.17578 4.32821 6.14804L4.28898 6.34415C4.42372 6.3711 4.77758 6.45275 4.8859 6.47983L4.93441 6.2858ZM4.3238 6.14726C3.94899 6.08959 3.65818 6.14736 3.42583 6.23449L3.49605 6.42176C3.70119 6.34483 3.95726 6.29322 4.29339 6.34493L4.3238 6.14726ZM3.41132 6.2413C3.30923 6.29964 3.23089 6.36095 3.17687 6.42328C3.12377 6.48455 3.0875 6.55486 3.0875 6.62891H3.2875C3.2875 6.62092 3.29225 6.59553 3.32801 6.55426C3.36286 6.51405 3.42124 6.46599 3.51055 6.41495L3.41132 6.2413ZM3.08944 6.60929C3.0739 6.68701 3.0733 6.74482 3.07774 6.78925C3.07992 6.81102 3.0832 6.82834 3.08545 6.84005C3.08848 6.85579 3.0875 6.85277 3.0875 6.84766H3.2875C3.2875 6.82887 3.2831 6.80876 3.28186 6.80228C3.27984 6.79178 3.27799 6.78175 3.27675 6.76935C3.27436 6.74541 3.27376 6.70753 3.28556 6.64852L3.08944 6.60929ZM3.11679 6.91837C3.11869 6.92027 3.12199 6.92412 3.13011 6.93449C3.13721 6.94356 3.14737 6.95678 3.15943 6.97084C3.18458 7.00019 3.21861 7.03415 3.26875 7.06758L3.37969 6.90117C3.3478 6.87991 3.32714 6.85918 3.31128 6.84068C3.30282 6.83082 3.2959 6.82182 3.28761 6.81123C3.28035 6.80196 3.26998 6.78871 3.25821 6.77695L3.11679 6.91837ZM3.26609 7.06575C3.47454 7.21464 3.76706 7.30084 4.1444 7.40865L4.19935 7.21635C3.81107 7.10541 3.55671 7.02755 3.38234 6.903L3.26609 7.06575ZM4.17188 7.4125H4.19922V7.2125H4.17188V7.4125ZM4.1676 7.40737C4.50182 7.51877 4.92148 7.65071 5.20681 7.85822L5.32444 7.69647C5.00821 7.46648 4.55287 7.32498 4.23084 7.21763L4.1676 7.40737ZM5.2075 7.85872C5.38471 7.98529 5.51107 8.13638 5.61368 8.3416L5.79257 8.25215C5.67643 8.01987 5.52935 7.84283 5.32375 7.69597L5.2075 7.85872ZM5.61368 8.3416C5.70953 8.53328 5.71271 8.75462 5.68565 9.02521L5.88466 9.04511C5.91229 8.76882 5.91547 8.49797 5.79257 8.25215L5.61368 8.3416ZM5.68668 9.01778C5.61189 9.44157 5.31247 9.74695 4.92255 9.92891L5.00713 10.1101C5.43753 9.9093 5.79436 9.55843 5.88363 9.05254L5.68668 9.01778ZM4.9277 9.92668C4.79455 9.97995 4.63786 10.0319 4.48356 10.0576L4.51644 10.2549C4.69027 10.2259 4.8617 10.1685 5.00198 10.1124L4.9277 9.92668ZM4.4 10.1562V10.375H4.6V10.1562H4.4ZM4.4 10.375C4.4 10.5619 4.23008 10.7125 4.0625 10.7125V10.9125C4.33242 10.9125 4.6 10.6803 4.6 10.375H4.4ZM4.0625 10.7125C3.87163 10.7125 3.725 10.5659 3.725 10.375H3.525C3.525 10.6763 3.76118 10.9125 4.0625 10.9125V10.7125ZM3.725 10.375V10.1289H3.525V10.375H3.725ZM3.64461 10.0308C3.37914 9.97775 3.00517 9.84423 2.75428 9.7606L2.69103 9.95034C2.93233 10.0308 3.32398 10.1707 3.60539 10.227L3.64461 10.0308ZM2.72266 9.75547C2.71315 9.75547 2.70639 9.75375 2.68592 9.74693C2.66537 9.74008 2.63112 9.72812 2.58594 9.72812V9.92813C2.59544 9.92813 2.60221 9.92984 2.62267 9.93667C2.64322 9.94351 2.67747 9.95547 2.72266 9.95547V9.75547ZM2.62105 9.73449C2.45854 9.67355 2.36386 9.48375 2.41012 9.2756L2.21488 9.23221C2.15176 9.51625 2.27583 9.81864 2.55083 9.92176L2.62105 9.73449ZM2.40613 9.28902C2.47049 9.11739 2.66325 9.01139 2.8551 9.07534L2.91834 8.8856C2.618 8.78549 2.31857 8.95292 2.21887 9.21879L2.40613 9.28902ZM2.81601 9.05118C2.84684 9.08201 2.89288 9.1016 2.92687 9.11294C2.96422 9.12538 3.00945 9.13516 3.05078 9.13516V8.93516C3.03743 8.93516 3.0143 8.93126 2.99012 8.9232C2.97867 8.91938 2.96908 8.91532 2.96214 8.91173C2.95408 8.90756 2.95396 8.90629 2.95743 8.90976L2.81601 9.05118ZM3.01017 9.12654C3.26448 9.23956 3.57415 9.32422 3.77492 9.3529L3.8032 9.15491C3.62116 9.1289 3.32927 9.0495 3.0914 8.94378L3.01017 9.12654ZM3.76658 9.35135C4.14353 9.43834 4.46596 9.3812 4.67611 9.29113L4.59733 9.1073C4.42467 9.1813 4.14553 9.23354 3.81155 9.15647L3.76658 9.35135ZM4.68144 9.28866C4.76833 9.24522 4.84332 9.19713 4.90028 9.13141C4.95895 9.06371 4.99269 8.98414 5.0088 8.88753L4.81152 8.85465C4.80027 8.92211 4.77934 8.96558 4.74914 9.00043C4.71723 9.03724 4.66917 9.07119 4.592 9.10978L4.68144 9.28866ZM5.00717 8.89535C5.02426 8.82701 5.02414 8.76741 5.02 8.7219C5.01795 8.69941 5.0149 8.68026 5.01273 8.66676C5.00983 8.64879 5.01016 8.64897 5.01016 8.65234H4.81016C4.81016 8.66938 4.8139 8.69008 4.81528 8.6986C4.81737 8.71158 4.81945 8.72491 4.82082 8.74001C4.82352 8.7697 4.8234 8.80581 4.81314 8.84684L5.00717 8.89535ZM4.9996 8.60762C4.96341 8.53525 4.89483 8.46825 4.84415 8.41757L4.70273 8.55899C4.76142 8.61769 4.80221 8.66006 4.82071 8.69706L4.9996 8.60762ZM4.83156 8.40691C4.62312 8.25802 4.3306 8.17182 3.95325 8.064L3.89831 8.25631C4.28659 8.36725 4.54094 8.44511 4.71531 8.56965L4.83156 8.40691ZM3.9705 8.07071L3.91582 8.04337L3.82637 8.22226L3.88106 8.2496L3.9705 8.07071ZM3.90272 8.03794C3.56429 7.92514 3.17549 7.82145 2.89085 7.61444L2.77321 7.77619C3.09014 8.00667 3.52164 8.12174 3.83947 8.22768L3.90272 8.03794ZM2.8875 7.61211C2.73493 7.51039 2.58222 7.35737 2.48136 7.18085L2.30771 7.28008C2.42559 7.48638 2.60101 7.66148 2.77656 7.77852L2.8875 7.61211ZM2.4894 7.19885C2.41172 6.96581 2.38622 6.73426 2.41189 6.50323L2.21311 6.48114C2.18409 6.7423 2.21328 7.00294 2.29966 7.26209L2.4894 7.19885ZM2.41098 6.50957C2.48545 6.08758 2.78308 5.80816 3.15019 5.6246L3.06075 5.44571C2.66224 5.64497 2.30362 5.96711 2.21402 6.47481L2.41098 6.50957ZM3.13709 5.63002C3.30189 5.57509 3.45789 5.52333 3.63914 5.49743L3.61086 5.29944C3.4093 5.32824 3.23718 5.38584 3.07385 5.44029L3.13709 5.63002ZM3.725 5.39844V5.125H3.525V5.39844H3.725ZM3.725 5.125C3.725 4.95742 3.8756 4.7875 4.0625 4.7875V4.5875C3.75721 4.5875 3.525 4.85508 3.525 5.125H3.725ZM4.0625 4.7875C4.13935 4.7875 4.22457 4.82693 4.29257 4.89493C4.36057 4.96293 4.4 5.04815 4.4 5.125H4.6C4.6 4.9831 4.53006 4.84957 4.43399 4.75351C4.33793 4.65744 4.2044 4.5875 4.0625 4.5875V4.7875ZM4.4005 5.11505L4.37315 5.38849L4.57216 5.40839L4.5995 5.13495L4.4005 5.11505ZM0.225 4.25C0.225 3.34718 0.94687 2.6 1.875 2.6V2.4C0.83438 2.4 0.025 3.23876 0.025 4.25H0.225ZM1.875 2.6H14.125V2.4H1.875V2.6ZM14.125 2.6C15.0268 2.6 15.775 3.3482 15.775 4.25H15.975C15.975 3.23774 15.1373 2.4 14.125 2.4V2.6ZM15.775 4.25V11.25H15.975V4.25H15.775ZM15.775 11.25C15.775 12.1781 15.0278 12.9 14.125 12.9V13.1C15.1362 13.1 15.975 12.2906 15.975 11.25H15.775ZM14.125 12.9H1.875V13.1H14.125V12.9ZM1.875 12.9C0.945853 12.9 0.225 12.1791 0.225 11.25H0.025C0.025 12.2896 0.835397 13.1 1.875 13.1V12.9ZM0.225 11.25V4.25H0.025V11.25H0.225ZM0.9 4.25V11.25H1.1V4.25H0.9ZM0.9 11.25C0.9 11.7974 1.32758 12.225 1.875 12.225V12.025C1.43804 12.025 1.1 11.687 1.1 11.25H0.9ZM1.875 12.225H14.125V12.025H1.875V12.225ZM14.125 12.225C14.643 12.225 15.1 11.7994 15.1 11.25H14.9C14.9 11.6849 14.5367 12.025 14.125 12.025V12.225ZM15.1 11.25V4.25H14.9V11.25H15.1ZM15.1 4.25C15.1 3.72993 14.6451 3.275 14.125 3.275V3.475C14.5346 3.475 14.9 3.84038 14.9 4.25H15.1ZM14.125 3.275H1.875V3.475H14.125V3.275ZM1.875 3.275C1.32557 3.275 0.9 3.73197 0.9 4.25H1.1C1.1 3.83835 1.44006 3.475 1.875 3.475V3.275Z" fill="#546E7A"/>
</svg>
