<svg width="16" height="16" viewBox="0 0 16 16" fill="none" xmlns="http://www.w3.org/2000/svg">
<path d="M12.9375 0.876719H11.1773C10.7129 0.340281 10.0284 0 9.26562 0H6.73438C5.97162 0 5.28712 0.340281 4.82266 0.876719H3.0625C2.28709 0.876719 1.65625 1.50881 1.65625 2.28572V14.591C1.65625 15.3679 2.28709 16 3.0625 16H12.9375C13.7129 16 14.3438 15.3679 14.3438 14.591V2.28572C14.3438 1.50878 13.7129 0.876719 12.9375 0.876719ZM6.73438 0.939344H9.26562C9.98991 0.939344 10.5914 1.42419 10.7891 2.06653H5.21094C5.40825 1.42531 6.00897 0.939344 6.73438 0.939344ZM13.4062 14.591C13.4062 14.85 13.196 15.0607 12.9375 15.0607H3.0625C2.80403 15.0607 2.59375 14.85 2.59375 14.591V2.28572C2.59375 2.02675 2.80403 1.81606 3.0625 1.81606H4.30769C4.24003 2.0445 4.20312 2.28606 4.20312 2.53622C4.20312 2.79559 4.413 3.00588 4.67188 3.00588H11.3281C11.587 3.00588 11.7969 2.79559 11.7969 2.53622C11.7969 2.28606 11.76 2.0445 11.6923 1.81606H12.9375C13.196 1.81606 13.4062 2.02675 13.4062 2.28572V14.591Z" fill="#546E7A"/>
<path d="M11.2053 10H4.7947C4.35581 10 4 10.2239 4 10.5C4 10.7761 4.35581 11 4.7947 11H11.2053C11.6442 11 12 10.7761 12 10.5C12 10.2239 11.6442 10 11.2053 10Z" fill="#546E7A"/>
<path d="M11.2053 12H4.7947C4.35581 12 4 12.2239 4 12.5C4 12.7761 4.35581 13 4.7947 13H11.2053C11.6442 13 12 12.7761 12 12.5C12 12.2239 11.6442 12 11.2053 12Z" fill="#546E7A"/>
<path d="M8.89396 7.53365L10.3438 6.08103V6.137C10.3438 6.39637 10.5537 6.60665 10.8125 6.60665C11.0714 6.60665 11.2813 6.39637 11.2813 6.137C11.2813 4.80847 11.2835 4.93216 11.2759 4.87969C11.2427 4.64991 11.0461 4.47744 10.8124 4.4775H9.62503C9.36615 4.4775 9.15628 4.68778 9.15628 4.94716C9.15628 5.20653 9.36615 5.41681 9.62503 5.41681H9.68087L8.56252 6.53734L7.14396 5.11603C6.96093 4.93259 6.66411 4.93259 6.48105 5.11603L4.79355 6.80684C4.61048 6.99025 4.61048 7.28762 4.79355 7.47103C4.97658 7.65446 5.27339 7.65446 5.45645 7.47103L6.81252 6.11234L8.23109 7.53365C8.41409 7.71706 8.71093 7.71709 8.89396 7.53365Z" fill="#546E7A"/>
</svg>
