<svg width="16" height="16" viewBox="0 0 16 16" fill="none" xmlns="http://www.w3.org/2000/svg">
<g clip-path="url(#clip0)">
<path d="M14.6885 10.4386C14.6885 10.9605 14.4565 11.4483 14.0521 11.7769L9.51067 15.4664C8.65977 16.1779 7.33596 16.1779 6.48512 15.4664L1.94371 11.7769C1.10057 11.1165 1.10069 9.7607 1.94371 9.10039L3.29819 8L1.94371 6.89961C1.10057 6.2392 1.10069 4.88341 1.94371 4.2231L6.48509 0.533621C7.33599 -0.177868 8.6598 -0.177869 9.51064 0.53359L14.052 4.2231C14.8952 4.8835 14.8951 6.2393 14.052 6.89961C13.3872 7.39706 12.6407 6.47709 13.2635 5.92896C13.4974 5.73556 13.4978 5.38749 13.2635 5.19371L8.72211 1.50426C8.30251 1.16335 7.69338 1.16335 7.27365 1.50426L2.7323 5.19374C2.49832 5.38715 2.49797 5.73522 2.7323 5.92899L7.27368 9.61847C7.69328 9.95935 8.30241 9.95941 8.72214 9.61847C8.72458 9.6165 8.72705 9.6145 8.72952 9.61257L9.45564 9.04073C9.72699 8.82707 10.1201 8.87387 10.3338 9.14513C10.5474 9.41644 10.5007 9.80959 10.2294 10.0233L9.50685 10.5923C8.65586 11.3008 7.33468 11.2994 6.48515 10.5891L4.28988 8.80569L2.73233 10.0711C2.49835 10.2645 2.498 10.6125 2.73233 10.8063L7.27368 14.4958C7.69328 14.8366 8.30241 14.8367 8.72214 14.4958L13.2635 10.8063C13.4975 10.6129 13.4978 10.2648 13.2635 10.071L8.72211 6.38155C8.30251 6.04064 7.69338 6.04064 7.27365 6.38155C7.27121 6.38352 7.26874 6.38552 7.26627 6.38746L6.54015 6.95929C6.26883 7.17298 5.87571 7.12618 5.66202 6.8549C5.44836 6.58358 5.4951 6.19043 5.76641 5.97677L6.48894 5.40775C7.33993 4.69923 8.66111 4.70057 9.51064 5.41088L14.052 9.10039C14.4565 9.42901 14.6885 9.91677 14.6885 10.4386Z" fill="#546E7A"/>
</g>
<defs>
<clipPath id="clip0">
<rect width="16" height="16" fill="white"/>
</clipPath>
</defs>
</svg>
