<svg width="16" height="16" viewBox="0 0 16 16" fill="none" xmlns="http://www.w3.org/2000/svg">
<g clip-path="url(#clip0)">
<path d="M3.89125 7.47826H0.52175C0.233594 7.47826 0 7.71188 0 8.00001V14.739C0 15.0271 0.233594 15.2607 0.52175 15.2607H3.89125C4.17937 15.2607 4.413 15.0271 4.413 14.739V8.00001C4.41297 7.71182 4.17937 7.47826 3.89125 7.47826ZM3.3695 14.2172H1.04347V8.52176H3.3695V14.2172Z" fill="#546E7A"/>
<path d="M9.68474 0.739319H6.31527C6.02714 0.739319 5.79352 0.972881 5.79352 1.26107V14.739C5.79352 15.0271 6.02711 15.2607 6.31527 15.2607H9.68477C9.97289 15.2607 10.2065 15.0271 10.2065 14.739V1.26104C10.2065 0.972881 9.97289 0.739319 9.68474 0.739319ZM9.16302 14.2172H6.83699V1.78279H9.16302V14.2172Z" fill="#546E7A"/>
<path d="M15.4783 4.10876H12.1088C11.8207 4.10876 11.587 4.34236 11.587 4.63051V14.739C11.587 15.0271 11.8206 15.2607 12.1088 15.2607H15.4783C15.7664 15.2607 16 15.0271 16 14.739V4.63051C16 4.34239 15.7664 4.10876 15.4783 4.10876ZM14.9565 14.2172H12.6305V5.15226H14.9565V14.2172Z" fill="#546E7A"/>
</g>
<defs>
<clipPath id="clip0">
<rect width="16" height="16" fill="white"/>
</clipPath>
</defs>
</svg>
