<svg width="16" height="16" viewBox="0 0 16 16" fill="none" xmlns="http://www.w3.org/2000/svg">
<path d="M13.6562 8.37974H12.0901C11.8769 8.37974 11.6705 8.40887 11.4741 8.46243C11.0867 7.7008 10.2957 7.17749 9.38422 7.17749H6.61578C5.70431 7.17749 4.91331 7.7008 4.52588 8.46243C4.32947 8.40887 4.12309 8.37974 3.90994 8.37974H2.34375C1.05141 8.37974 0 9.43115 0 10.7235V13.2272C0 14.0026 0.630844 14.6334 1.40625 14.6334H14.5938C15.3692 14.6334 16 14.0026 16 13.2272V10.7235C16 9.43115 14.9486 8.37974 13.6562 8.37974ZM4.27203 9.5213V13.696H1.40625C1.14778 13.696 0.9375 13.4857 0.9375 13.2272V10.7235C0.9375 9.94812 1.56834 9.31727 2.34375 9.31727H3.90994C4.03719 9.31727 4.16041 9.33455 4.27772 9.3664C4.27434 9.41768 4.27203 9.46924 4.27203 9.5213ZM10.7905 13.696H5.20953V9.52127C5.20953 8.74587 5.84037 8.11502 6.61578 8.11502H9.38422C10.1596 8.11502 10.7905 8.74587 10.7905 9.52127V13.696ZM15.0625 13.2272C15.0625 13.4857 14.8522 13.696 14.5938 13.696H11.728V9.52127C11.728 9.46918 11.7257 9.41762 11.7223 9.36637C11.8396 9.33455 11.9628 9.31724 12.0901 9.31724H13.6562C14.4317 9.31724 15.0625 9.94808 15.0625 10.7235V13.2272Z" fill="#546E7A"/>
<path d="M3.12688 3.95325C1.97847 3.95325 1.04419 4.88753 1.04419 6.03593C1.04416 7.18434 1.97847 8.11862 3.12688 8.11862C4.27525 8.11862 5.20956 7.18434 5.20956 6.03593C5.20956 4.88753 4.27528 3.95325 3.12688 3.95325ZM3.12685 7.18112C2.49538 7.18112 1.98166 6.6674 1.98166 6.03593C1.98166 5.40447 2.49538 4.89075 3.12685 4.89075C3.75831 4.89075 4.27203 5.40447 4.27203 6.03593C4.27203 6.6674 3.75831 7.18112 3.12685 7.18112Z" fill="#546E7A"/>
<path d="M7.99997 1.36658C6.46572 1.36658 5.21753 2.61476 5.21753 4.14901C5.21753 5.68326 6.46572 6.93145 7.99997 6.93145C9.53422 6.93145 10.7824 5.68326 10.7824 4.14901C10.7824 2.6148 9.53422 1.36658 7.99997 1.36658ZM7.99997 5.99395C6.98265 5.99395 6.15503 5.16633 6.15503 4.14901C6.15503 3.13173 6.98265 2.30408 7.99997 2.30408C9.01728 2.30408 9.8449 3.1317 9.8449 4.14901C9.8449 5.16633 9.01728 5.99395 7.99997 5.99395Z" fill="#546E7A"/>
<path d="M12.8732 3.95325C11.7248 3.95325 10.7905 4.88753 10.7905 6.03593C10.7905 7.18434 11.7248 8.11862 12.8732 8.11862C14.0216 8.11862 14.9558 7.18434 14.9558 6.03593C14.9558 4.88753 14.0216 3.95325 12.8732 3.95325ZM12.8732 7.18112C12.2417 7.18112 11.728 6.6674 11.728 6.03593C11.728 5.40447 12.2417 4.89075 12.8732 4.89075C13.5046 4.89075 14.0183 5.40447 14.0183 6.03593C14.0183 6.6674 13.5046 7.18112 12.8732 7.18112Z" fill="#546E7A"/>
</svg>
