<svg width="16" height="16" viewBox="0 0 16 16" fill="none" xmlns="http://www.w3.org/2000/svg">
<g clip-path="url(#clip0)">
<path d="M14.3564 12.1776C14.2686 12.0897 14.1493 12.0403 14.025 12.0403H13.4896V5.91162C14.9104 5.68609 16 4.45269 16 2.96944C15.8502 -0.977471 10.1908 -0.976284 10.0417 2.96947C10.0417 4.45269 11.1313 5.68609 12.5521 5.91159V12.0402H8.46875V10.9324C9.88953 10.7069 10.9792 9.4735 10.9792 7.99025C10.8293 4.04337 5.17 4.04453 5.02081 7.99028C5.02081 9.4735 6.11044 10.7069 7.53125 10.9324V12.0402H3.44794V5.91162C4.86872 5.68609 5.95834 4.45272 5.95834 2.96947C5.80853 -0.97744 0.149188 -0.976284 0 2.9695C0 4.45272 1.08963 5.68612 2.51044 5.91162V12.0403H0.46875C0.209875 12.0403 0 12.2502 0 12.509V15.5215C0 15.7804 0.209875 15.9903 0.46875 15.9903H14.025C14.1493 15.9903 14.2686 15.9409 14.3564 15.853L15.8627 14.3467C15.9506 14.2588 16 14.1396 16 14.0153C16 13.8909 15.9506 13.7717 15.8627 13.6838L14.3564 12.1776ZM10.9792 2.96944C10.9792 1.84365 11.8951 0.927779 13.0208 0.927779C15.7257 1.03043 15.7249 4.90887 13.0208 5.01112C11.8951 5.01109 10.9792 4.09522 10.9792 2.96944ZM5.95834 7.99028C5.95834 6.8645 6.87425 5.94862 8 5.94862C10.7048 6.05128 10.7041 9.92972 7.99997 10.032C6.87422 10.0319 5.95834 9.11606 5.95834 7.99028ZM0.9375 2.96944C0.9375 1.84365 1.85341 0.927779 2.97916 0.927779C5.68397 1.0304 5.68325 4.90887 2.97913 5.01112C1.85341 5.01109 0.9375 4.09522 0.9375 2.96944ZM3.78919 15.0528H0.9375V12.9778H3.78916L4.82666 14.0153L3.78919 15.0528ZM8.81003 15.0528H5.115L5.82103 14.3467C6.00409 14.1637 6.00409 13.8669 5.82103 13.6838L5.115 12.9778H8.81003L9.8475 14.0153L8.81003 15.0528ZM13.8308 15.0528H10.1358L10.8419 14.3467C11.0249 14.1637 11.0249 13.8669 10.8419 13.6838L10.1358 12.9778H13.8308L14.8683 14.0153L13.8308 15.0528Z" fill="#546E7A"/>
<path d="M4.06376 2.79882C4.48673 2.34333 3.85608 1.71301 3.40086 2.13592L2.72814 2.80861L2.55752 2.63801C2.10236 2.21511 1.47161 2.84545 1.89461 3.30092L2.39667 3.80298C2.5797 3.98604 2.87655 3.98604 3.05958 3.80298L4.06376 2.79882Z" fill="#546E7A"/>
<path d="M9.08456 7.81966C9.50756 7.36416 8.87687 6.73387 8.42165 7.15675L7.74896 7.82947L7.57833 7.65885C7.12318 7.23594 6.49242 7.86629 6.91543 8.32176L7.41752 8.82385C7.59205 9.00542 7.9059 9.00545 8.08043 8.82385C8.0804 8.82382 9.08456 7.81966 9.08456 7.81966Z" fill="#546E7A"/>
<path d="M14.1054 2.79882C14.5284 2.34333 13.8977 1.71301 13.4425 2.13592L12.7698 2.80864L12.5992 2.63801C12.144 2.2152 11.5132 2.84542 11.9362 3.30095L12.4383 3.80301C12.6214 3.98604 12.9182 3.98607 13.1012 3.80301C13.1012 3.80298 14.1054 2.79882 14.1054 2.79882Z" fill="#546E7A"/>
</g>
<defs>
<clipPath id="clip0">
<rect width="16" height="16" fill="white"/>
</clipPath>
</defs>
</svg>
