<svg width="20" height="20" viewBox="0 0 20 20" fill="none" xmlns="http://www.w3.org/2000/svg">
<path d="M5 0C4.3125 0 3.75 0.5625 3.75 1.25V18.75C3.75 19.4375 4.3125 20 5 20H17.5C18.1875 20 18.75 19.4375 18.75 18.75V5L13.75 0H5Z" fill="#E2E5E7"/>
<path d="M15 5H18.75L13.75 0V3.75C13.75 4.4375 14.3125 5 15 5Z" fill="#B0B7BD"/>
<path d="M18.75 8.75L15 5H18.75V8.75Z" fill="#CAD1D8"/>
<path d="M16.25 16.25C16.25 16.5938 15.9688 16.875 15.625 16.875H1.875C1.53125 16.875 1.25 16.5938 1.25 16.25V10C1.25 9.65625 1.53125 9.375 1.875 9.375H15.625C15.9688 9.375 16.25 9.65625 16.25 10V16.25Z" fill="#50BEE8"/>
<path d="M3.61624 15.0001C3.45124 15.0001 3.27124 14.9095 3.27124 14.6901V11.852C3.27124 11.672 3.45124 11.542 3.61624 11.542H4.76062C7.04437 11.542 6.99374 15.0001 4.80499 15.0001H3.61624ZM3.93124 12.1514V14.3901H4.76062C6.10999 14.3901 6.16937 12.1514 4.76062 12.1514H3.93124Z" fill="white"/>
<path d="M8.90635 15.0501C7.98197 15.0901 7.02197 14.4751 7.02197 13.2507C7.02197 12.0214 7.98135 11.417 8.90635 11.417C9.78072 11.4614 10.6951 12.0664 10.6951 13.2507C10.6951 14.4357 9.78072 15.0501 8.90635 15.0501ZM8.85135 12.067C8.29135 12.067 7.68197 12.462 7.68197 13.2514C7.68197 14.0364 8.29197 14.4364 8.85135 14.4364C9.42635 14.4364 10.0407 14.0364 10.0407 13.2514C10.0407 12.4614 9.42635 12.067 8.85135 12.067Z" fill="white"/>
<path d="M11.2832 13.2459C11.2832 12.2815 11.8882 11.4521 13.0376 11.4521C13.4726 11.4521 13.8176 11.5821 14.182 11.8971C14.317 12.0215 14.332 12.2415 14.197 12.3815C14.062 12.5009 13.857 12.4865 13.737 12.3665C13.5326 12.1515 13.3226 12.0921 13.0376 12.0921C12.2682 12.0921 11.8988 12.6371 11.8988 13.2465C11.8988 13.8665 12.2632 14.4359 13.0376 14.4359C13.3226 14.4359 13.5876 14.3203 13.8176 14.1159C13.972 13.9959 14.187 14.0553 14.277 14.1759C14.357 14.2859 14.3963 14.4709 14.222 14.6453C13.872 14.9709 13.4526 15.0359 13.037 15.0359C11.8282 15.0359 11.2832 14.2103 11.2832 13.2459Z" fill="white"/>
<path d="M15.625 16.875H3.75V17.5H15.625C15.9688 17.5 16.25 17.2188 16.25 16.875V16.25C16.25 16.5938 15.9688 16.875 15.625 16.875Z" fill="#CAD1D8"/>
</svg>
