<svg xmlns="http://www.w3.org/2000/svg" width="60" height="51.733" viewBox="0 0 60 51.733">
  <g id="Group_1435" data-name="Group 1435" transform="translate(1 1)">
    <path id="Path_2277" data-name="Path 2277" d="M256,983h-8l-7,13v19a2,2,0,0,0,2,2h54a2,2,0,0,0,2-2V996l-7-13h-8" transform="translate(-241 -967.267)" fill="none" stroke="#7d9db2" stroke-linecap="round" stroke-linejoin="round" stroke-width="2"/>
    <path id="Path_2278" data-name="Path 2278" d="M241,997h18v6a2,2,0,0,0,2,2h18a2,2,0,0,0,2-2v-6h18" transform="translate(-241 -967.267)" fill="none" stroke="#7d9db2" stroke-linecap="round" stroke-linejoin="round" stroke-width="2"/>
    <line id="Line_449" data-name="Line 449" y1="24" transform="translate(29.122)" fill="none" stroke="#7d9db2" stroke-linecap="round" stroke-linejoin="round" stroke-width="2"/>
    <line id="Line_450" data-name="Line 450" x1="6" y2="6" transform="translate(29.122 18)" fill="none" stroke="#7d9db2" stroke-linecap="round" stroke-linejoin="round" stroke-width="2"/>
    <line id="Line_451" data-name="Line 451" x2="6" y2="6" transform="translate(23.122 18)" fill="none" stroke="#7d9db2" stroke-linecap="round" stroke-linejoin="round" stroke-width="2"/>
  </g>
</svg>
