<svg width="40" height="40" viewBox="0 0 40 40" fill="red" xmlns="http://www.w3.org/2000/svg">
<g clip-path="url(#clip0)">
<path d="M36.05 11.0437H3.9499C1.76679 11.0567 0.00325962 12.8289 0.00110288 15.0122C-0.000367626 15.0343 -0.000367626 15.0567 0.00110288 15.0788L2.29509 32.1955C2.32293 34.3679 4.09087 36.1149 6.26349 36.1169H33.7521C35.9247 36.1149 37.6927 34.3679 37.7205 32.1955L39.9988 15.0788C40.0003 15.0567 40.0003 15.0343 39.9988 15.0122C39.9968 12.8289 38.2333 11.0567 36.05 11.0437Z" fill="#5DBEB6"/>
<path d="M33.1202 7.09105H20.2268L17.6779 4.05985C17.5813 3.94378 17.4366 3.87868 17.2858 3.88339H6.87851C5.25517 3.88554 3.93966 5.20106 3.9375 6.8244V9.65169H4.91784H36.0337C35.8429 8.18785 34.5964 7.09242 33.1202 7.09105Z" fill="#17A297"/>
</g>
<defs>
<clipPath id="clip0">
<rect width="40" height="40" fill="white"/>
</clipPath>
</defs>
</svg>
