<svg width="56" height="56" viewBox="0 0 56 56" fill="none" xmlns="http://www.w3.org/2000/svg">
<g clip-path="url(#clip0)">
<g opacity="0.7">
<path d="M50.4702 15.4612H5.52998C2.47363 15.4794 0.00468554 17.9605 0.0016661 21.017C-0.000392607 21.048 -0.000392607 21.0793 0.0016661 21.1103L3.21325 45.0737C3.25223 48.1151 5.72734 50.5608 8.76901 50.5636H47.2531C50.2947 50.5608 52.7699 48.1151 52.8089 45.0737L55.9985 21.1103C56.0006 21.0793 56.0006 21.048 55.9985 21.017C55.9956 17.9605 53.5267 15.4794 50.4702 15.4612Z" fill="#17A297"/>
</g>
<path d="M46.3692 9.92746H28.3184L24.75 5.68378C24.6148 5.52128 24.4122 5.43015 24.201 5.43674H9.63084C7.35817 5.43975 5.51645 7.28147 5.51343 9.55415V13.5124H6.8859H50.4482C50.1809 11.463 48.4358 9.92938 46.3692 9.92746Z" fill="#17A297"/>
</g>
<defs>
<clipPath id="clip0">
<rect width="56" height="56" fill="white"/>
</clipPath>
</defs>
</svg>
