<svg width="20" height="20" viewBox="0 0 20 20" fill="none" xmlns="http://www.w3.org/2000/svg">
<path d="M5 0C4.3125 0 3.75 0.5625 3.75 1.25V18.75C3.75 19.4375 4.3125 20 5 20H17.5C18.1875 20 18.75 19.4375 18.75 18.75V5L13.75 0H5Z" fill="#E2E5E7"/>
<path d="M15 5H18.75L13.75 0V3.75C13.75 4.4375 14.3125 5 15 5Z" fill="#B0B7BD"/>
<path d="M18.75 8.75L15 5H18.75V8.75Z" fill="#CAD1D8"/>
<path d="M16.25 16.25C16.25 16.5938 15.9688 16.875 15.625 16.875H1.875C1.53125 16.875 1.25 16.5938 1.25 16.25V10C1.25 9.65625 1.53125 9.375 1.875 9.375H15.625C15.9688 9.375 16.25 9.65625 16.25 10V16.25Z" fill="#84BD5A"/>
<path d="M13.5236 14.6631C13.1686 14.9575 12.7336 15.0831 12.2943 15.0831C11.2443 15.0831 10.4999 14.4831 10.4999 13.2938C10.4999 12.2844 11.2849 11.5 12.3386 11.5C12.7336 11.5 13.168 11.635 13.478 11.94C13.783 12.2394 13.343 12.6844 13.0436 12.42C12.8586 12.2394 12.5986 12.105 12.3386 12.105C11.7343 12.105 11.1499 12.5894 11.1499 13.2938C11.1499 14.0338 11.6393 14.4831 12.2943 14.4831C12.5986 14.4831 12.8586 14.3931 13.0436 14.2581V13.6444H12.2943C11.8493 13.6444 11.8943 13.0338 12.2943 13.0338H13.2936C13.4786 13.0338 13.648 13.1744 13.648 13.3294V14.3938C13.648 14.4831 13.6086 14.5675 13.5236 14.6631Z" fill="white"/>
<path d="M6.86189 12.8061V14.6548C6.86189 14.8755 6.68189 14.9998 6.50251 14.9998C6.34251 14.9998 6.20251 14.8755 6.20251 14.6548V11.8417C6.20251 11.5817 6.42314 11.4961 6.50251 11.4961C6.64689 11.4961 6.73189 11.5817 6.81689 11.6767L7.91689 13.1605L9.05564 11.6211C9.22127 11.4167 9.62564 11.4961 9.62564 11.8417V14.6548C9.62564 14.8755 9.48564 14.9998 9.32626 14.9998C9.14626 14.9998 9.00626 14.8755 9.00626 14.6548V12.8061L8.17626 13.8555C7.99689 14.0761 7.77189 14.0761 7.60689 13.8555L6.86189 12.8061Z" fill="white"/>
<path fill-rule="evenodd" clip-rule="evenodd" d="M4.31501 11.5371C4.14001 11.5371 4.00001 11.6771 4.00001 11.8421C4.00001 11.8421 4.00007 11.9705 4.00015 12.1704C4.00006 12.1706 3.99997 12.1708 3.99988 12.171V14.6748C3.99988 14.8392 4.13488 14.9798 4.29488 14.9798C4.46988 14.9798 4.60988 14.8398 4.60988 14.6748C4.60988 14.6748 4.60983 14.5473 4.60977 14.3464C4.60985 14.3462 4.60993 14.346 4.61001 14.3459V11.8421C4.61001 11.6777 4.47501 11.5371 4.31501 11.5371Z" fill="white"/>
<path d="M15.625 16.875H3.75V17.5H15.625C15.9688 17.5 16.25 17.2188 16.25 16.875V16.25C16.25 16.5938 15.9688 16.875 15.625 16.875Z" fill="#CAD1D8"/>
</svg>
