<svg width="18" height="16" viewBox="0 0 18 16" fill="none" xmlns="http://www.w3.org/2000/svg">
<path d="M9.75 3.25C9.75 3.6875 9.40625 4 9 4C8.5625 4 8.25 3.6875 8.25 3.25V0.75C8.25 0.34375 8.5625 0 9 0C9.40625 0 9.75 0.34375 9.75 0.75V3.25ZM9.75 15.25C9.75 15.6875 9.40625 16 9 16C8.5625 16 8.25 15.6875 8.25 15.25V12.75C8.25 12.3438 8.5625 12 9 12C9.40625 12 9.75 12.3438 9.75 12.75V15.25ZM1 8C1 7.59375 1.3125 7.25 1.75 7.25H4.25C4.65625 7.25 5 7.59375 5 8C5 8.4375 4.65625 8.75 4.25 8.75H1.75C1.3125 8.75 1 8.4375 1 8ZM16.25 7.25C16.6562 7.25 17 7.59375 17 8C17 8.4375 16.6562 8.75 16.25 8.75H13.75C13.3125 8.75 13 8.4375 13 8C13 7.59375 13.3125 7.25 13.75 7.25H16.25ZM14.6562 2.34375C14.9375 2.65625 14.9375 3.125 14.6562 3.40625L12.875 5.1875C12.5938 5.46875 12.0938 5.46875 11.8125 5.1875C11.5312 4.90625 11.5312 4.40625 11.8125 4.125L13.5938 2.34375C13.875 2.0625 14.3438 2.0625 14.6562 2.34375ZM4.375 13.6562C4.09375 13.9688 3.625 13.9688 3.3125 13.6562C3.03125 13.375 3.03125 12.9062 3.3125 12.625L5.09375 10.8438C5.375 10.5625 5.875 10.5625 6.15625 10.8438C6.4375 11.125 6.4375 11.625 6.15625 11.9062L4.375 13.6562ZM3.3125 2.34375C3.625 2.0625 4.09375 2.0625 4.375 2.34375L6.15625 4.125C6.4375 4.40625 6.4375 4.90625 6.15625 5.1875C5.875 5.46875 5.375 5.46875 5.09375 5.1875L3.3125 3.40625C3.03125 3.125 3.03125 2.65625 3.3125 2.34375ZM14.6562 12.625C14.9375 12.9062 14.9375 13.375 14.6562 13.6562C14.3438 13.9688 13.875 13.9688 13.5938 13.6562L11.8125 11.9062C11.5312 11.625 11.5312 11.125 11.8125 10.8438C12.0938 10.5625 12.5938 10.5625 12.875 10.8438L14.6562 12.625Z" fill="#17A297"/>
</svg>
