<svg width="20" height="20" viewBox="0 0 20 20" fill="none" xmlns="http://www.w3.org/2000/svg">
<path d="M5 0C4.3125 0 3.75 0.5625 3.75 1.25V18.75C3.75 19.4375 4.3125 20 5 20H17.5C18.1875 20 18.75 19.4375 18.75 18.75V5L13.75 0H5Z" fill="#E2E5E7"/>
<path d="M15 5H18.75L13.75 0V3.75C13.75 4.4375 14.3125 5 15 5Z" fill="#B0B7BD"/>
<path d="M18.75 8.75L15 5H18.75V8.75Z" fill="#CAD1D8"/>
<path d="M16.25 16.25C16.25 16.5938 15.9688 16.875 15.625 16.875H1.875C1.53125 16.875 1.25 16.5938 1.25 16.25V10C1.25 9.65625 1.53125 9.375 1.875 9.375H15.625C15.9688 9.375 16.25 9.65625 16.25 10V16.25Z" fill="#50BEE8"/>
<path d="M3.95942 12.8061V14.6548C3.95942 14.8755 3.77942 14.9998 3.60005 14.9998C3.44005 14.9998 3.30005 14.8755 3.30005 14.6548V11.8417C3.30005 11.5817 3.52067 11.4961 3.60005 11.4961C3.74442 11.4961 3.82942 11.5817 3.91442 11.6767L5.01442 13.1605L6.15317 11.6211C6.3188 11.4167 6.72317 11.4961 6.72317 11.8417V14.6548C6.72317 14.8755 6.58317 14.9998 6.4238 14.9998C6.2438 14.9998 6.1038 14.8755 6.1038 14.6548V12.8061L5.2738 13.8555C5.09442 14.0761 4.86942 14.0761 4.70442 13.8555L3.95942 12.8061Z" fill="white"/>
<path d="M7.85808 12.2916C7.97308 11.3216 9.43683 11.1472 10.1268 11.6772C10.4668 11.9516 10.1068 12.3866 9.80683 12.1666C9.43683 11.9322 8.59745 11.8222 8.49245 12.341C8.35745 13.161 10.5312 12.6916 10.4962 14.021C10.4612 15.2903 8.62245 15.3197 7.93245 14.7503C7.76683 14.6153 7.77245 14.396 7.86245 14.2603C7.99245 14.131 8.13683 14.086 8.30745 14.226C8.71683 14.5053 9.77183 14.7153 9.8462 14.0053C9.78183 13.2666 7.70308 13.711 7.85808 12.2916Z" fill="white"/>
<path d="M14.3238 14.6156C13.9688 14.9106 13.5338 15.0356 13.0944 15.0356C12.0444 15.0356 11.3 14.4362 11.3 13.2462C11.3 12.2375 12.085 11.4531 13.1388 11.4531C13.5338 11.4531 13.9682 11.5875 14.2782 11.8925C14.5825 12.1919 14.1432 12.6369 13.8438 12.3725C13.6588 12.1925 13.3988 12.0575 13.1388 12.0575C12.5344 12.0575 11.95 12.5419 11.95 13.2462C11.95 13.9862 12.4394 14.4362 13.0944 14.4362C13.3988 14.4362 13.6588 14.3456 13.8438 14.2113V13.5969H13.0944C12.6494 13.5969 12.6944 12.9869 13.0944 12.9869H14.0938C14.2788 12.9869 14.4482 13.1269 14.4482 13.2819V14.3462C14.4482 14.4362 14.4088 14.52 14.3238 14.6156Z" fill="white"/>
<path d="M15.625 16.875H3.75V17.5H15.625C15.9688 17.5 16.25 17.2188 16.25 16.875V16.25C16.25 16.5938 15.9688 16.875 15.625 16.875Z" fill="#CAD1D8"/>
</svg>
