<svg width="20" height="20" viewBox="0 0 20 20" fill="none" xmlns="http://www.w3.org/2000/svg">
<path d="M4.75 0C4.0625 0 3.5 0.5625 3.5 1.25V18.75C3.5 19.4375 4.0625 20 4.75 20H17.25C17.9375 20 18.5 19.4375 18.5 18.75V5L13.5 0H4.75Z" fill="#E2E5E7"/>
<path d="M14.75 5H18.5L13.5 0V3.75C13.5 4.4375 14.0625 5 14.75 5Z" fill="#B0B7BD"/>
<path d="M18.5 8.75L14.75 5H18.5V8.75Z" fill="#CAD1D8"/>
<path d="M16 16.25C16 16.5938 15.7188 16.875 15.375 16.875H1.625C1.28125 16.875 1 16.5938 1 16.25V10C1 9.65625 1.28125 9.375 1.625 9.375H15.375C15.7188 9.375 16 9.65625 16 10V16.25Z" fill="#F15642"/>
<path d="M3.72656 11.8411C3.72656 11.6761 3.85656 11.4961 4.06594 11.4961H5.22031C5.87031 11.4961 6.45531 11.9311 6.45531 12.7648C6.45531 13.5548 5.87031 13.9948 5.22031 13.9948H4.38594V14.6548C4.38594 14.8748 4.24594 14.9992 4.06594 14.9992C3.90094 14.9992 3.72656 14.8748 3.72656 14.6548V11.8411ZM4.38594 12.1255V13.3705H5.22031C5.55531 13.3705 5.82031 13.0748 5.82031 12.7648C5.82031 12.4155 5.55531 12.1255 5.22031 12.1255H4.38594Z" fill="white"/>
<path d="M7.43289 15.0001C7.26789 15.0001 7.08789 14.9101 7.08789 14.6907V11.852C7.08789 11.6726 7.26789 11.542 7.43289 11.542H8.57726C10.861 11.542 10.811 15.0001 8.62226 15.0001H7.43289ZM7.74789 12.152V14.3907H8.57726C9.92663 14.3907 9.98663 12.152 8.57726 12.152H7.74789Z" fill="white"/>
<path d="M11.6186 12.1916V12.986H12.893C13.073 12.986 13.253 13.166 13.253 13.3404C13.253 13.5054 13.073 13.6404 12.893 13.6404H11.6186V14.6898C11.6186 14.8648 11.4942 14.9991 11.3192 14.9991C11.0992 14.9991 10.9648 14.8648 10.9648 14.6898V11.851C10.9648 11.6716 11.0998 11.541 11.3192 11.541H13.0736C13.2936 11.541 13.4236 11.6716 13.4236 11.851C13.4236 12.011 13.2936 12.191 13.0736 12.191H11.6186V12.1916Z" fill="white"/>
<path d="M15.375 16.875H3.5V17.5H15.375C15.7188 17.5 16 17.2188 16 16.875V16.25C16 16.5938 15.7188 16.875 15.375 16.875Z" fill="#CAD1D8"/>
</svg>
