<svg width="20" height="20" viewBox="0 0 20 20" fill="none" xmlns="http://www.w3.org/2000/svg">
<path d="M5 0C4.3125 0 3.75 0.5625 3.75 1.25V18.75C3.75 19.4375 4.3125 20 5 20H17.5C18.1875 20 18.75 19.4375 18.75 18.75V5L13.75 0H5Z" fill="#E2E5E7"/>
<path d="M15 5H18.75L13.75 0V3.75C13.75 4.4375 14.3125 5 15 5Z" fill="#B0B7BD"/>
<path d="M18.75 8.75L15 5H18.75V8.75Z" fill="#CAD1D8"/>
<path d="M16.25 16.25C16.25 16.5938 15.9688 16.875 15.625 16.875H1.875C1.53125 16.875 1.25 16.5938 1.25 16.25V10C1.25 9.65625 1.53125 9.375 1.875 9.375H15.625C15.9688 9.375 16.25 9.65625 16.25 10V16.25Z" fill="#F15642"/>
<path d="M4.11938 11.8421C4.11938 11.6771 4.24938 11.4971 4.45876 11.4971H5.61313C6.26313 11.4971 6.84813 11.9321 6.84813 12.7658C6.84813 13.5558 6.26313 13.9958 5.61313 13.9958H4.77876V14.6558C4.77876 14.8758 4.63938 15.0002 4.45938 15.0002C4.29438 15.0002 4.12001 14.8758 4.12001 14.6558V11.8421H4.11938ZM4.77876 12.1264V13.3714H5.61313C5.94813 13.3714 6.21313 13.0758 6.21313 12.7658C6.21313 12.4164 5.94813 12.1264 5.61313 12.1264H4.77876Z" fill="white"/>
<path d="M7.48499 11.8421C7.48499 11.6771 7.61499 11.4971 7.82499 11.4971H8.97936C9.62936 11.4971 10.2144 11.9321 10.2144 12.7658C10.2144 13.5558 9.62936 13.9958 8.97936 13.9958H8.14499V14.6558C8.14499 14.8758 8.00499 15.0002 7.82499 15.0002C7.65999 15.0002 7.48499 14.8758 7.48499 14.6558V11.8421ZM8.14436 12.1264V13.3714H8.97874C9.31374 13.3714 9.57874 13.0758 9.57874 12.7658C9.57874 12.4164 9.31374 12.1264 8.97874 12.1264H8.14436Z" fill="white"/>
<path d="M11.7843 12.1667H10.9106C10.4756 12.1667 10.4756 11.5273 10.9106 11.5273H13.2737C13.7187 11.5273 13.7187 12.1667 13.2737 12.1667H12.4443V14.6905C12.4443 15.1248 11.7843 15.1355 11.7843 14.6905V12.1667Z" fill="white"/>
<path d="M15.625 16.875H3.75V17.5H15.625C15.9688 17.5 16.25 17.2188 16.25 16.875V16.25C16.25 16.5938 15.9688 16.875 15.625 16.875Z" fill="#CAD1D8"/>
</svg>
