<svg width="20" height="20" viewBox="0 0 20 20" fill="none" xmlns="http://www.w3.org/2000/svg">
<path d="M5 0C4.3125 0 3.75 0.5625 3.75 1.25V18.75C3.75 19.4375 4.3125 20 5 20H17.5C18.1875 20 18.75 19.4375 18.75 18.75V5L13.75 0H5Z" fill="#E2E5E7"/>
<path d="M15 5H18.75L13.75 0V3.75C13.75 4.4375 14.3125 5 15 5Z" fill="#B0B7BD"/>
<path d="M18.75 8.75L15 5H18.75V8.75Z" fill="#CAD1D8"/>
<path d="M16.25 16.25C16.25 16.5938 15.9688 16.875 15.625 16.875H1.875C1.53125 16.875 1.25 16.5938 1.25 16.25V10C1.25 9.65625 1.53125 9.375 1.875 9.375H15.625C15.9688 9.375 16.25 9.65625 16.25 10V16.25Z" fill="#84BD5A"/>
<path d="M5.6381 12.7412L6.50747 11.6518C6.76747 11.3118 7.27247 11.7462 6.98747 12.0712C6.6881 12.4262 6.3731 12.8112 6.0731 13.2055L7.09247 14.4749C7.36747 14.8499 6.8181 15.2093 6.5481 14.8393L5.6281 13.6599L4.72372 14.8649C4.46872 15.2293 3.90372 14.8199 4.18872 14.4799L5.1931 13.2055C4.8781 12.8105 4.5731 12.4262 4.26872 12.0712C3.95435 11.6962 4.53872 11.3118 4.76872 11.6624L5.6381 12.7412Z" fill="white"/>
<path d="M7.70923 11.8411C7.70923 11.6761 7.84923 11.5361 8.02423 11.5361C8.18423 11.5361 8.31923 11.6768 8.31923 11.8411V14.3449H9.6786C10.168 14.3449 10.1786 14.9993 9.6786 14.9993H8.02485C7.84985 14.9993 7.70985 14.8749 7.70985 14.6949V11.8411H7.70923Z" fill="white"/>
<path d="M10.6261 12.2916C10.7411 11.3216 12.2049 11.1472 12.8949 11.6772C13.2349 11.9516 12.8749 12.3866 12.5749 12.1666C12.2049 11.9322 11.3655 11.8222 11.2605 12.341C11.1255 13.161 13.2993 12.6916 13.2643 14.021C13.2293 15.2903 11.3905 15.3197 10.7005 14.7503C10.5349 14.6153 10.5405 14.396 10.6305 14.2603C10.7605 14.131 10.9049 14.086 11.0755 14.226C11.4849 14.5053 12.5399 14.7153 12.6143 14.0053C12.5499 13.2666 10.4711 13.711 10.6261 12.2916Z" fill="white"/>
<path d="M15.625 16.875H3.75V17.5H15.625C15.9688 17.5 16.25 17.2188 16.25 16.875V16.25C16.25 16.5938 15.9688 16.875 15.625 16.875Z" fill="#CAD1D8"/>
</svg>
