<svg width="20" height="20" viewBox="0 0 20 20" fill="none" xmlns="http://www.w3.org/2000/svg">
<path d="M5 0C4.3125 0 3.75 0.5625 3.75 1.25V18.75C3.75 19.4375 4.3125 20 5 20H17.5C18.1875 20 18.75 19.4375 18.75 18.75V5L13.75 0H5Z" fill="#E2E5E7"/>
<path d="M15 5H18.75L13.75 0V3.75C13.75 4.4375 14.3125 5 15 5Z" fill="#B0B7BD"/>
<path d="M18.75 8.75L15 5H18.75V8.75Z" fill="#CAD1D8"/>
<path d="M16.25 16.25C16.25 16.5938 15.9688 16.875 15.625 16.875H1.875C1.53125 16.875 1.25 16.5938 1.25 16.25V10C1.25 9.65625 1.53125 9.375 1.875 9.375H15.625C15.9688 9.375 16.25 9.65625 16.25 10V16.25Z" fill="#50BEE8"/>
<path d="M5.12811 12.7408L5.99811 11.6514C6.25748 11.312 6.76248 11.7464 6.47811 12.0714C6.17873 12.4264 5.86373 12.8114 5.56311 13.2052L6.58311 14.4745C6.85748 14.8495 6.30811 15.2095 6.03811 14.8395L5.11873 13.6602L4.21436 14.8645C3.95936 15.2289 3.39436 14.8195 3.67998 14.4795L4.68436 13.2052C4.36936 12.8108 4.06436 12.4264 3.75998 12.0714C3.44498 11.6964 4.02998 11.312 4.25936 11.662L5.12811 12.7408Z" fill="white"/>
<path d="M7.86177 12.8061V14.6548C7.86177 14.8755 7.68177 14.9998 7.50239 14.9998C7.34239 14.9998 7.20239 14.8755 7.20239 14.6548V11.8417C7.20239 11.5817 7.42302 11.4961 7.50239 11.4961C7.64677 11.4961 7.73177 11.5817 7.81677 11.6767L8.91677 13.1605L10.0555 11.6211C10.2211 11.4167 10.6255 11.4961 10.6255 11.8417V14.6548C10.6255 14.8755 10.4855 14.9998 10.3261 14.9998C10.1461 14.9998 10.0061 14.8755 10.0061 14.6548V12.8061L9.17614 13.8555C8.99677 14.0761 8.77177 14.0761 8.60677 13.8555L7.86177 12.8061Z" fill="white"/>
<path d="M11.4956 11.8421C11.4956 11.6771 11.6356 11.5371 11.8106 11.5371C11.9706 11.5371 12.1056 11.6777 12.1056 11.8421V14.3459H13.465C13.9544 14.3459 13.965 15.0002 13.465 15.0002H11.8112C11.6362 15.0002 11.4962 14.8759 11.4962 14.6952V11.8421H11.4956Z" fill="white"/>
<path d="M15.625 16.875H3.75V17.5H15.625C15.9688 17.5 16.25 17.2188 16.25 16.875V16.25C16.25 16.5938 15.9688 16.875 15.625 16.875Z" fill="#CAD1D8"/>
</svg>
