<svg width="20" height="3" viewBox="0 0 20 3" fill="none" xmlns="http://www.w3.org/2000/svg">
<path d="M2.23687 2.81094C1.78687 2.81094 1.45187 2.70094 1.23187 2.48094C1.02187 2.25094 0.916865 1.96094 0.916865 1.61093V1.31094C0.916865 0.960935 1.02187 0.675935 1.23187 0.455935C1.45187 0.225935 1.78687 0.110935 2.23687 0.110935C2.68687 0.110935 3.01687 0.225935 3.22687 0.455935C3.44687 0.675935 3.55687 0.960935 3.55687 1.31094V1.61093C3.55687 1.96094 3.44687 2.25094 3.22687 2.48094C3.01687 2.70094 2.68687 2.81094 2.23687 2.81094ZM10.4253 2.81094C9.97534 2.81094 9.64034 2.70094 9.42034 2.48094C9.21034 2.25094 9.10534 1.96094 9.10534 1.61093V1.31094C9.10534 0.960935 9.21034 0.675935 9.42034 0.455935C9.64034 0.225935 9.97534 0.110935 10.4253 0.110935C10.8753 0.110935 11.2053 0.225935 11.4153 0.455935C11.6353 0.675935 11.7453 0.960935 11.7453 1.31094V1.61093C11.7453 1.96094 11.6353 2.25094 11.4153 2.48094C11.2053 2.70094 10.8753 2.81094 10.4253 2.81094ZM18.6138 2.81094C18.1638 2.81094 17.8288 2.70094 17.6088 2.48094C17.3988 2.25094 17.2938 1.96094 17.2938 1.61093V1.31094C17.2938 0.960935 17.3988 0.675935 17.6088 0.455935C17.8288 0.225935 18.1638 0.110935 18.6138 0.110935C19.0638 0.110935 19.3938 0.225935 19.6038 0.455935C19.8238 0.675935 19.9338 0.960935 19.9338 1.31094V1.61093C19.9338 1.96094 19.8238 2.25094 19.6038 2.48094C19.3938 2.70094 19.0638 2.81094 18.6138 2.81094Z" fill="black"/>
</svg>
