<svg width="18" height="5" viewBox="0 0 18 5" fill="none" xmlns="http://www.w3.org/2000/svg">
<path d="M0.140625 2.10938C0.140625 1.45055 0.317096 0.952512 0.670037 0.615257C1.02298 0.278002 1.5367 0.109375 2.21121 0.109375C2.86219 0.109375 3.36415 0.281924 3.7171 0.627022C4.07788 0.97212 4.25827 1.46624 4.25827 2.10938C4.25827 2.72898 4.07788 3.21918 3.7171 3.57996C3.35631 3.9329 2.85435 4.10938 2.21121 4.10938C1.55239 4.10938 1.04259 3.93683 0.681801 3.59173C0.321017 3.23879 0.140625 2.74467 0.140625 2.10938Z" fill="#17A297"/>
<path d="M7.01121 2.10938C7.01121 1.45055 7.18768 0.952512 7.54063 0.615257C7.89357 0.278002 8.40729 0.109375 9.0818 0.109375C9.73278 0.109375 10.2347 0.281924 10.5877 0.627022C10.9485 0.97212 11.1289 1.46624 11.1289 2.10938C11.1289 2.72898 10.9485 3.21918 10.5877 3.57996C10.2269 3.9329 9.72494 4.10938 9.0818 4.10938C8.42298 4.10938 7.91317 3.93683 7.55239 3.59173C7.19161 3.23879 7.01121 2.74467 7.01121 2.10938Z" fill="#17A297"/>
<path d="M13.8818 2.10938C13.8818 1.45055 14.0583 0.952512 14.4112 0.615257C14.7642 0.278002 15.2779 0.109375 15.9524 0.109375C16.6034 0.109375 17.1053 0.281924 17.4583 0.627022C17.8191 0.97212 17.9994 1.46624 17.9994 2.10938C17.9994 2.72898 17.8191 3.21918 17.4583 3.57996C17.0975 3.9329 16.5955 4.10938 15.9524 4.10938C15.2936 4.10938 14.7838 3.93683 14.423 3.59173C14.0622 3.23879 13.8818 2.74467 13.8818 2.10938Z" fill="#17A297"/>
</svg>
