<svg width="16" height="17" viewBox="0 0 16 17" fill="none" xmlns="http://www.w3.org/2000/svg">
<path d="M7.25 11.25V9.25H5.25C4.8125 9.25 4.5 8.9375 4.5 8.5C4.5 8.09375 4.8125 7.75 5.25 7.75H7.25V5.75C7.25 5.34375 7.5625 5 8 5C8.40625 5 8.75 5.34375 8.75 5.75V7.75H10.75C11.1562 7.75 11.5 8.09375 11.5 8.5C11.5 8.9375 11.1562 9.25 10.75 9.25H8.75V11.25C8.75 11.6875 8.40625 12 8 12C7.5625 12 7.25 11.6875 7.25 11.25ZM16 8.5C16 12.9375 12.4062 16.5 8 16.5C3.5625 16.5 0 12.9375 0 8.5C0 4.09375 3.5625 0.5 8 0.5C12.4062 0.5 16 4.09375 16 8.5ZM8 2C4.40625 2 1.5 4.9375 1.5 8.5C1.5 12.0938 4.40625 15 8 15C11.5625 15 14.5 12.0938 14.5 8.5C14.5 4.9375 11.5625 2 8 2Z" fill="#17A297"/>
</svg>
