<svg width="17" height="16" viewBox="0 0 17 16" fill="none" xmlns="http://www.w3.org/2000/svg">
<path d="M8.18604 10.75V8.75H6.18604C5.74854 8.75 5.43604 8.4375 5.43604 8C5.43604 7.59375 5.74854 7.25 6.18604 7.25H8.18604V5.25C8.18604 4.84375 8.49854 4.5 8.93604 4.5C9.34229 4.5 9.68604 4.84375 9.68604 5.25V7.25H11.686C12.0923 7.25 12.436 7.59375 12.436 8C12.436 8.4375 12.0923 8.75 11.686 8.75H9.68604V10.75C9.68604 11.1875 9.34229 11.5 8.93604 11.5C8.49854 11.5 8.18604 11.1875 8.18604 10.75ZM16.936 8C16.936 12.4375 13.3423 16 8.93604 16C4.49854 16 0.936035 12.4375 0.936035 8C0.936035 3.59375 4.49854 0 8.93604 0C13.3423 0 16.936 3.59375 16.936 8ZM8.93604 1.5C5.34229 1.5 2.43604 4.4375 2.43604 8C2.43604 11.5938 5.34229 14.5 8.93604 14.5C12.4985 14.5 15.436 11.5938 15.436 8C15.436 4.4375 12.4985 1.5 8.93604 1.5Z" fill="#17A297"/>
</svg>
