<svg width="17" height="16" viewBox="0 0 17 16" fill="none" xmlns="http://www.w3.org/2000/svg">
<path d="M8.09375 10.625C7.75 10.9688 7.21875 10.9688 6.875 10.625L4.875 8.625C4.53125 8.28125 4.53125 7.75 4.875 7.40625C5.21875 7.0625 5.75 7.0625 6.09375 7.40625L7.5 8.78125L10.875 5.40625C11.2188 5.0625 11.75 5.0625 12.0938 5.40625C12.4375 5.75 12.4375 6.28125 12.0938 6.625L8.09375 10.625ZM16.5 8C16.5 12.4375 12.9062 16 8.5 16C4.0625 16 0.5 12.4375 0.5 8C0.5 3.59375 4.0625 0 8.5 0C12.9062 0 16.5 3.59375 16.5 8ZM8.5 1.5C4.90625 1.5 2 4.4375 2 8C2 11.5938 4.90625 14.5 8.5 14.5C12.0625 14.5 15 11.5938 15 8C15 4.4375 12.0625 1.5 8.5 1.5Z" fill="#17A297"/>
</svg>
