<svg width="13" height="12" viewBox="0 0 13 12" fill="inherit" xmlns="http://www.w3.org/2000/svg">
<path d="M11.7812 0.4375H1.21875C0.533203 0.4375 0 0.996094 0 1.65625V3.28125C0 3.73828 0.355469 4.09375 0.787109 4.09375L0.8125 10.1875C0.8125 11.1016 1.52344 11.8125 2.4375 11.8125H10.5625C11.4512 11.8125 12.1875 11.1016 12.1875 10.1875V4.09375C12.6191 4.09375 13 3.73828 13 3.30664V1.65625C13 0.996094 12.4414 0.4375 11.7812 0.4375ZM10.5625 10.5938H2.4375C2.20898 10.5938 2.03125 10.416 2.03125 10.1875V4.09375H10.9688V10.1875C10.9688 10.416 10.7656 10.5938 10.5625 10.5938ZM11.7812 2.875H1.21875V1.65625H11.7812V2.875ZM4.64648 6.53125H8.30273C8.6582 6.53125 8.9375 6.27734 8.9375 5.92188C8.9375 5.5918 8.6582 5.3125 8.32812 5.3125H4.64648C4.31641 5.3125 4.0625 5.5918 4.0625 5.92188C4.0625 6.27734 4.31641 6.53125 4.64648 6.53125Z" fill="inherit"/>
</svg>
