<svg width="9" height="10" viewBox="0 0 9 10" fill="none" xmlns="http://www.w3.org/2000/svg">
<path d="M8.30469 5.07422C8.1875 5.19141 8.03125 5.25 7.875 5.25C7.69922 5.25 7.54297 5.19141 7.42578 5.07422L5.375 3.02344V9C5.375 9.35156 5.08203 9.625 4.75 9.625C4.4375 9.625 4.125 9.35156 4.125 9V3.02344L2.05469 5.07422C1.82031 5.32812 1.41016 5.32812 1.17578 5.07422C0.921875 4.83984 0.921875 4.42969 1.17578 4.19531L4.30078 1.07031C4.53516 0.816406 4.94531 0.816406 5.17969 1.07031L8.30469 4.19531C8.55859 4.42969 8.55859 4.83984 8.30469 5.07422Z" fill="#898785"/>
</svg>
