<svg width="20" height="20" viewBox="0 0 20 20" fill="none" xmlns="http://www.w3.org/2000/svg">
<path d="M16.0226 3.33008H18.4184C18.5854 3.33008 18.7207 3.46535 18.7207 3.63241V17.6912C18.7207 17.8583 18.5854 17.9936 18.4184 17.9936H2.30233C2.13527 17.9936 2 17.8583 2 17.6912V3.63241C2 3.46535 2.13527 3.33008 2.30233 3.33008H4.74416" stroke="#898785" stroke-linecap="round" stroke-linejoin="round"/>
<path d="M6.36203 2V4.90816" stroke="#898785" stroke-linecap="round" stroke-linejoin="round"/>
<path d="M14.3588 2V4.90816" stroke="#898785" stroke-linecap="round" stroke-linejoin="round"/>
<path d="M9.99695 7.81592H10.7238" stroke="#898785" stroke-linecap="round" stroke-linejoin="round"/>
<path d="M13.6318 7.81592H14.3587" stroke="#898785" stroke-linecap="round" stroke-linejoin="round"/>
<path d="M6.36203 11.4512H7.08886" stroke="#898785" stroke-linecap="round" stroke-linejoin="round"/>
<path d="M9.99695 11.4512H10.7238" stroke="#898785" stroke-linecap="round" stroke-linejoin="round"/>
<path d="M13.6318 11.4512H14.3587" stroke="#898785" stroke-linecap="round" stroke-linejoin="round"/>
<path d="M6.36203 15.0859H7.08886" stroke="#898785" stroke-linecap="round" stroke-linejoin="round"/>
<path d="M9.99695 15.0859H10.7238" stroke="#898785" stroke-linecap="round" stroke-linejoin="round"/>
<path d="M8.05945 3.33008H12.6614" stroke="#898785" stroke-linecap="round" stroke-linejoin="round"/>
</svg>
