<svg width="35" height="36" viewBox="0 0 35 36" fill="none" xmlns="http://www.w3.org/2000/svg">
    <rect y=".345" width="35" height="35" rx="6" fill="url(#byd3b4bu4a)"/>
    <path d="M10.073 15.364c-.57 0-1.01.215-1.323.645-.313.426-.469 1.022-.469 1.787 0 1.591.598 2.387 1.792 2.387.502 0 1.109-.125 1.822-.376v1.27c-.586.244-1.24.366-1.963.366-1.039 0-1.833-.314-2.383-.942-.55-.632-.825-1.537-.825-2.715 0-.742.135-1.392.405-1.948.27-.56.657-.988 1.162-1.284.508-.3 1.102-.45 1.782-.45.694 0 1.39.168 2.09.503l-.488 1.23a8.09 8.09 0 0 0-.806-.331 2.403 2.403 0 0 0-.796-.142zm7.715 5.982-.518-1.7h-2.602l-.518 1.7h-1.63l2.52-7.168h1.85l2.529 7.168h-1.63zm-.879-2.97-.81-2.612a8.162 8.162 0 0 1-.127-.478c-.108.417-.415 1.447-.923 3.09h1.86zm6.436 2.97-1.719-5.601h-.044a52.5 52.5 0 0 1 .093 2.28v3.32h-1.353v-7.138h2.06l1.69 5.459h.03l1.792-5.46h2.06v7.14h-1.411v-3.38c0-.159.002-.343.005-.551.006-.209.03-.762.068-1.66h-.044l-1.84 5.59h-1.387z" fill="#fff"/>
    <defs>
        <linearGradient id="byd3b4bu4a" x1="0" y1=".345" x2="71.005" y2="51.625" gradientUnits="userSpaceOnUse">
            <stop stop-color="#0E8E84"/>
            <stop offset=".453" stop-color="#64C18C"/>
            <stop offset=".802" stop-color="#A7E992"/>
            <stop offset="1" stop-color="#CDFF96"/>
        </linearGradient>
    </defs>
</svg>
