<svg xmlns="http://www.w3.org/2000/svg" height="20" width="20"><path d="M6.417 13.583Q6.667 13.833 7.021 13.833Q7.375 13.833 7.625 13.583L10 11.208L12.375 13.583Q12.625 13.833 12.979 13.833Q13.333 13.833 13.604 13.583Q13.854 13.312 13.844 12.958Q13.833 12.604 13.583 12.354L11.229 10L13.604 7.625Q13.854 7.375 13.854 7.021Q13.854 6.667 13.604 6.396Q13.333 6.146 12.979 6.146Q12.625 6.146 12.375 6.396L10 8.771L7.604 6.375Q7.375 6.146 7.021 6.146Q6.667 6.146 6.417 6.396Q6.167 6.646 6.167 7Q6.167 7.354 6.417 7.604L8.792 10L6.396 12.396Q6.167 12.625 6.167 12.979Q6.167 13.333 6.417 13.583ZM10 18.333Q8.271 18.333 6.75 17.677Q5.229 17.021 4.104 15.896Q2.979 14.771 2.323 13.25Q1.667 11.729 1.667 10Q1.667 8.271 2.323 6.75Q2.979 5.229 4.104 4.104Q5.229 2.979 6.75 2.323Q8.271 1.667 10 1.667Q11.729 1.667 13.25 2.323Q14.771 2.979 15.896 4.104Q17.021 5.229 17.677 6.75Q18.333 8.271 18.333 10Q18.333 11.729 17.677 13.25Q17.021 14.771 15.896 15.896Q14.771 17.021 13.25 17.677Q11.729 18.333 10 18.333Z"/></svg>


<svg width="16" height="17" viewBox="0 0 16 17" fill="none" xmlns="http://www.w3.org/2000/svg">
<circle cx="8" cy="8.88867" r="8" fill="#FF7A78"/>
<path d="M11.2031 11.3203C11.3965 11.5352 11.3965 11.8574 11.2031 12.0508C10.9883 12.2656 10.666 12.2656 10.4727 12.0508L7.9375 9.49414L5.38086 12.0508C5.16602 12.2656 4.84375 12.2656 4.65039 12.0508C4.43555 11.8574 4.43555 11.5352 4.65039 11.3203L7.20703 8.76367L4.65039 6.20703C4.43555 5.99219 4.43555 5.66992 4.65039 5.47656C4.84375 5.26172 5.16602 5.26172 5.35938 5.47656L7.9375 8.05469L10.4941 5.49805C10.6875 5.2832 11.0098 5.2832 11.2031 5.49805C11.418 5.69141 11.418 6.01367 11.2031 6.22852L8.64648 8.76367L11.2031 11.3203Z" fill="white"/>
</svg>
