<svg width="16" height="17" viewBox="0 0 16 17" fill="none" xmlns="http://www.w3.org/2000/svg">
<circle cx="8" cy="8.88867" r="8" fill="#FF7A78"/>
<path d="M11.2031 11.3203C11.3965 11.5352 11.3965 11.8574 11.2031 12.0508C10.9883 12.2656 10.666 12.2656 10.4727 12.0508L7.9375 9.49414L5.38086 12.0508C5.16602 12.2656 4.84375 12.2656 4.65039 12.0508C4.43555 11.8574 4.43555 11.5352 4.65039 11.3203L7.20703 8.76367L4.65039 6.20703C4.43555 5.99219 4.43555 5.66992 4.65039 5.47656C4.84375 5.26172 5.16602 5.26172 5.35938 5.47656L7.9375 8.05469L10.4941 5.49805C10.6875 5.2832 11.0098 5.2832 11.2031 5.49805C11.418 5.69141 11.418 6.01367 11.2031 6.22852L8.64648 8.76367L11.2031 11.3203Z" fill="white"/>
</svg>
