<svg width="17" height="17" viewBox="0 0 17 17" fill="none" xmlns="http://www.w3.org/2000/svg">
<path d="M15.8428 7.95312C15.4053 7.95312 15.0928 8.29688 15.0928 8.70312C15.0928 10.5156 13.624 11.9531 11.8428 11.9531H5.12402L7.09277 9.98438C7.40527 9.70312 7.40527 9.23438 7.09277 8.95312C6.81152 8.64062 6.34277 8.64062 6.03027 8.95312L2.78027 12.2031C2.49902 12.4844 2.49902 12.9531 2.78027 13.2344L6.03027 16.4844C6.18652 16.6406 6.37402 16.7031 6.59277 16.7031C6.78027 16.7031 6.96777 16.6406 7.09277 16.4844C7.40527 16.2031 7.40527 15.7344 7.09277 15.4531L5.12402 13.4531H11.8428C14.4365 13.4531 16.5928 11.3281 16.5928 8.70312C16.5928 8.29688 16.249 7.95312 15.8428 7.95312ZM5.34277 5.45312H12.0303L10.0615 7.45312C9.74902 7.73438 9.74902 8.20312 10.0615 8.48438C10.1865 8.64062 10.374 8.70312 10.5928 8.70312C10.7803 8.70312 10.9678 8.64062 11.0928 8.48438L14.3428 5.23438C14.6553 4.95312 14.6553 4.48438 14.3428 4.20312L11.0928 0.953125C10.8115 0.640625 10.3428 0.640625 10.0615 0.953125C9.74902 1.23438 9.74902 1.70312 10.0615 1.98438L12.0303 3.95312H5.34277C2.71777 3.95312 0.592773 6.10938 0.592773 8.70312C0.592773 9.14062 0.905273 9.45312 1.34277 9.45312C1.74902 9.45312 2.09277 9.14062 2.09277 8.70312C2.09277 6.92188 3.53027 5.45312 5.34277 5.45312Z" fill="#17A297"/>
</svg>
