<svg width="17" height="17" viewBox="0 0 17 17" fill="none" xmlns="http://www.w3.org/2000/svg">
<path d="M15.3646 10.898C15.7709 10.898 16.1146 11.2417 16.1146 11.648C16.1146 12.0855 15.7709 12.398 15.3646 12.398H2.58337L4.89587 14.898C5.17712 15.2105 5.17712 15.6792 4.86462 15.9605C4.70837 16.0855 4.52087 16.148 4.36462 16.148C4.14587 16.148 3.95837 16.0855 3.80212 15.9292L0.302124 12.1792C0.020874 11.898 0.020874 11.4292 0.302124 11.148L3.80212 7.39796C4.08337 7.08546 4.55212 7.08546 4.86462 7.36671C5.17712 7.64796 5.17712 8.11671 4.89587 8.42921L2.58337 10.898H15.3646ZM0.864624 5.39796C0.427124 5.39796 0.114624 5.08546 0.114624 4.64796C0.114624 4.24171 0.427124 3.89796 0.864624 3.89796H13.6146L11.3021 1.42921C11.0209 1.11671 11.0209 0.647964 11.3334 0.366714C11.4896 0.241714 11.6771 0.147964 11.8646 0.147964C12.0521 0.147964 12.2396 0.241714 12.3959 0.397964L15.8959 4.14796C16.1771 4.42921 16.1771 4.89796 15.8959 5.17921L12.3959 8.92921C12.1146 9.24171 11.6459 9.24171 11.3334 8.96046C11.0209 8.67921 11.0209 8.21046 11.3021 7.89796L13.6146 5.39796H0.864624Z" fill="#17A297"/>
</svg>
