<svg width="13" height="12" viewBox="0 0 13 12" fill="none" xmlns="http://www.w3.org/2000/svg">
<path d="M0.358887 6.23694C0.358887 3.10625 2.89008 0.552856 6.04297 0.552856C9.17365 0.552856 11.7271 3.10625 11.7271 6.23694C11.7271 9.38983 9.17365 11.921 6.04297 11.921C2.89008 11.921 0.358887 9.38983 0.358887 6.23694ZM8.59636 5.25999C8.8406 5.01575 8.8406 4.63829 8.59636 4.39405C8.35213 4.14981 7.97467 4.14981 7.73043 4.39405L5.33246 6.79202L4.3333 5.81507C4.08907 5.57084 3.71161 5.57084 3.46737 5.81507C3.22313 6.05931 3.22313 6.43677 3.46737 6.68101L4.88839 8.10203C5.13263 8.34627 5.51009 8.34627 5.75432 8.10203L8.59636 5.25999Z" fill="#17A297"/>
</svg>
