<svg width="8" height="13" viewBox="0 0 8 13" fill="none" xmlns="http://www.w3.org/2000/svg">
<path d="M7.5625 9.78906C7.77344 10.0234 7.77344 10.375 7.5625 10.5859C7.32812 10.8203 6.97656 10.8203 6.76562 10.5859L4 7.79688L1.21094 10.5859C0.976562 10.8203 0.625 10.8203 0.414062 10.5859C0.179688 10.375 0.179688 10.0234 0.414062 9.78906L3.20312 7L0.414062 4.21094C0.179688 3.97656 0.179688 3.625 0.414062 3.41406C0.625 3.17969 0.976562 3.17969 1.1875 3.41406L4 6.22656L6.78906 3.4375C7 3.20312 7.35156 3.20312 7.5625 3.4375C7.79688 3.64844 7.79688 4 7.5625 4.23438L4.77344 7L7.5625 9.78906Z" fill="#17A297"/>
</svg>
