<svg width="13" height="14" viewBox="0 0 13 14" fill="none" xmlns="http://www.w3.org/2000/svg">
<path d="M4.0625 7.125C4.0625 5.7793 5.12891 4.6875 6.5 4.6875C7.8457 4.6875 8.9375 5.7793 8.9375 7.125C8.9375 8.4707 7.8457 9.5625 6.5 9.5625C5.12891 9.5625 4.0625 8.4707 4.0625 7.125ZM6.5 5.90625C5.81445 5.90625 5.28125 6.46484 5.28125 7.125C5.28125 7.81055 5.81445 8.34375 6.5 8.34375C7.16016 8.34375 7.71875 7.81055 7.71875 7.125C7.71875 6.46484 7.16016 5.90625 6.5 5.90625ZM7.43945 0.625C7.99805 0.625 8.48047 1.03125 8.60742 1.56445L8.81055 2.40234C9.03906 2.50391 9.24219 2.63086 9.41992 2.75781L10.2578 2.50391C10.791 2.35156 11.375 2.58008 11.6543 3.0625L12.5938 4.71289C12.873 5.19531 12.7715 5.80469 12.3652 6.18555L11.7559 6.76953C11.7559 6.89648 11.7812 7.02344 11.7812 7.125C11.7812 7.25195 11.7559 7.37891 11.7559 7.48047L12.3652 8.08984C12.7715 8.4707 12.873 9.08008 12.5938 9.5625L11.6543 11.2129C11.375 11.6953 10.791 11.9238 10.2578 11.7715L9.41992 11.5176C9.24219 11.6445 9.03906 11.7715 8.81055 11.873L8.60742 12.7109C8.48047 13.2441 7.99805 13.625 7.43945 13.625H5.53516C4.97656 13.625 4.49414 13.2441 4.36719 12.7109L4.16406 11.873C3.93555 11.7715 3.73242 11.6445 3.55469 11.5176L2.7168 11.7715C2.18359 11.9238 1.59961 11.6953 1.32031 11.2129L0.380859 9.5625C0.101562 9.08008 0.203125 8.4707 0.609375 8.08984L1.21875 7.48047C1.21875 7.37891 1.21875 7.25195 1.21875 7.125C1.21875 7.02344 1.21875 6.89648 1.21875 6.76953L0.609375 6.18555C0.203125 5.80469 0.101562 5.19531 0.380859 4.71289L1.32031 3.0625C1.59961 2.58008 2.18359 2.35156 2.7168 2.50391L3.55469 2.75781C3.73242 2.63086 3.93555 2.50391 4.16406 2.40234L4.36719 1.56445C4.49414 1.03125 4.97656 0.625 5.53516 0.625H7.43945ZM5.20508 3.26562L4.92578 3.39258C4.5957 3.51953 4.29102 3.69727 4.03711 3.90039L3.7832 4.10352L2.38672 3.67188L1.44727 5.32227L2.48828 6.3125L2.46289 6.61719C2.4375 6.79492 2.4375 6.97266 2.4375 7.125C2.4375 7.30273 2.4375 7.48047 2.46289 7.6582L2.48828 7.96289L1.44727 8.95312L2.38672 10.6035L3.7832 10.1719L4.03711 10.375C4.29102 10.5781 4.5957 10.7559 4.92578 10.8828L5.20508 11.0098L5.53516 12.4062H7.43945L7.76953 11.0098L8.04883 10.8828C8.37891 10.7559 8.68359 10.5781 8.9375 10.375L9.19141 10.1719L10.5879 10.6035L11.5273 8.95312L10.4863 7.96289L10.5117 7.6582C10.5371 7.48047 10.5625 7.30273 10.5625 7.125C10.5625 6.97266 10.5371 6.79492 10.5117 6.61719L10.4863 6.3125L11.5273 5.32227L10.5879 3.67188L9.19141 4.10352L8.9375 3.90039C8.68359 3.69727 8.37891 3.51953 8.04883 3.39258L7.76953 3.26562L7.43945 1.84375H5.53516L5.20508 3.26562Z" fill="#17A297"/>
</svg>
