<svg width="51" height="51" viewBox="0 0 51 51" fill="none" xmlns="http://www.w3.org/2000/svg">
<g clip-path="url(#clip0_17524_194818)">
<path d="M20.3343 47.473L20.1607 46.7786C22.8005 46.0848 25.0581 44.3739 26.4399 42.0201C27.8218 39.6663 28.2154 36.8611 27.5347 34.2179L28.229 34.0443C28.5946 35.4445 28.6803 36.903 28.4812 38.3364C28.2821 39.7697 27.8021 41.1497 27.0687 42.3972C26.3353 43.6447 25.3629 44.7352 24.2073 45.6062C23.0517 46.4772 21.7355 47.1116 20.3343 47.473ZM18.7581 42.807C18.0205 39.9821 18.4349 36.98 19.9101 34.4605C21.3853 31.9411 23.8006 30.1105 26.6251 29.3713L26.8056 30.0657C24.1613 30.7546 21.8989 32.4656 20.516 34.8225C19.1331 37.1793 18.7431 39.989 19.4316 42.6334L18.7581 42.807ZM4.6559 31.3016L3.96155 31.128C4.3275 29.7271 4.96597 28.412 5.84044 27.258C6.71492 26.104 7.80826 25.1336 9.05797 24.4023C10.3077 23.6711 11.6893 23.1933 13.1237 22.9963C14.5582 22.7993 16.0174 22.8869 17.418 23.2541L17.2444 23.9485C14.6002 23.2587 11.7903 23.6454 9.43066 25.0237C7.07098 26.402 5.35397 28.6596 4.6559 31.3016ZM11.4327 33.0653C10.4953 33.064 9.56192 32.9427 8.65534 32.7042L8.82893 32.0099C11.4703 32.6934 14.2748 32.3036 16.6296 30.9258C18.9845 29.548 20.6983 27.2942 21.3966 24.6567L22.091 24.8372C21.4717 27.1928 20.0905 29.2773 18.1625 30.7656C16.2346 32.254 13.8683 33.0625 11.4327 33.0653ZM18.4193 20.0025L29.3802 9.0561L29.8711 9.5477L18.9095 20.4941L18.4193 20.0025ZM30.8557 32.4452L41.8014 21.4842L42.293 21.9751L31.3473 32.9361L30.8557 32.4452ZM43.3241 20.935L42.8589 20.4212C42.9214 20.3656 48.4762 15.1441 45.6988 5.70101C36.1793 2.92362 30.9786 8.43674 30.93 8.4784L30.4231 8.02014C30.4787 7.96459 36.0404 2.0418 46.0668 5.05527L46.2473 5.10387L46.3029 5.2844C49.3025 15.3177 43.3866 20.8795 43.3241 20.935ZM30.1038 15.4635C30.9054 14.9224 31.8704 14.677 32.8332 14.7695C33.796 14.862 34.6966 15.2867 35.3806 15.9706C36.0645 16.6546 36.4892 17.5552 36.5817 18.518C36.6742 19.4808 36.4288 20.4458 35.8877 21.2475L36.3876 21.7474C37.0317 20.8091 37.3261 19.6745 37.2195 18.5414C37.113 17.4083 36.6121 16.3486 35.8043 15.5469C35.0026 14.7391 33.9429 14.2383 32.8098 14.1317C31.6767 14.0251 30.5421 14.3195 29.6038 14.9636L30.1038 15.4635ZM34.5892 22.539C33.7874 23.076 32.824 23.318 31.8636 23.2236C30.9032 23.1292 30.0053 22.7044 29.3233 22.0216C28.6413 21.3388 28.2176 20.4404 28.1244 19.4799C28.0311 18.5193 28.2743 17.5562 28.8123 16.755L28.3401 16.2551C27.7026 17.1957 27.4121 18.3288 27.5185 19.4601C27.6249 20.5914 28.1216 21.6504 28.9234 22.4556C29.7299 23.2581 30.7907 23.7545 31.9235 23.8597C33.0563 23.9649 34.1904 23.6722 35.1308 23.0319L34.5892 22.539Z" fill="#373C37"/>
<g style="mix-blend-mode:multiply">
<circle cx="25.5562" cy="10.8406" r="10" fill="#C5E8E5"/>
</g>
</g>
<defs>
<clipPath id="clip0_17524_194818">
<rect width="50" height="50" fill="white" transform="translate(0.566162 0.840576)"/>
</clipPath>
</defs>
</svg>
