<svg width="51" height="51" viewBox="0 0 51 51" fill="none" xmlns="http://www.w3.org/2000/svg">
<path d="M20.3343 47.3882L20.1607 46.6939C22.8005 46 25.0581 44.2891 26.4399 41.9353C27.8218 39.5815 28.2154 36.7763 27.5347 34.1331L28.229 33.9595C28.5946 35.3597 28.6803 36.8182 28.4812 38.2516C28.2821 39.6849 27.8021 41.0649 27.0687 42.3124C26.3353 43.5599 25.3629 44.6504 24.2073 45.5214C23.0517 46.3924 21.7355 47.0268 20.3343 47.3882ZM18.7581 42.7222C18.0205 39.8973 18.4349 36.8952 19.9101 34.3757C21.3853 31.8563 23.8006 30.0258 26.6251 29.2866L26.8056 29.9809C24.1613 30.6698 21.8989 32.3808 20.516 34.7377C19.1331 37.0945 18.7431 39.9042 19.4316 42.5486L18.7581 42.7222ZM4.6559 31.2168L3.96155 31.0433C4.3275 29.6423 4.96597 28.3273 5.84044 27.1732C6.71492 26.0192 7.80826 25.0488 9.05797 24.3176C10.3077 23.5863 11.6893 23.1085 13.1237 22.9115C14.5582 22.7145 16.0174 22.8021 17.418 23.1694L17.2444 23.8637C14.6002 23.1739 11.7903 23.5606 9.43066 24.9389C7.07098 26.3172 5.35397 28.5748 4.6559 31.2168ZM11.4327 32.9805C10.4953 32.9792 9.56192 32.8579 8.65534 32.6194L8.82893 31.9251C11.4703 32.6086 14.2748 32.2189 16.6296 30.8411C18.9845 29.4633 20.6983 27.2094 21.3966 24.5719L22.091 24.7525C21.4717 27.108 20.0905 29.1925 18.1625 30.6808C16.2346 32.1692 13.8683 32.9778 11.4327 32.9805ZM18.4193 19.9177L29.3802 8.97132L29.8711 9.46292L18.9095 20.4093L18.4193 19.9177ZM30.8557 32.3604L41.8014 21.3995L42.293 21.8904L31.3473 32.8513L30.8557 32.3604ZM43.3241 20.8502L42.8589 20.3364C42.9214 20.2809 48.4762 15.0594 45.6988 5.61624C36.1793 2.83884 30.9786 8.35197 30.93 8.39363L30.4231 7.93536C30.4787 7.87981 36.0404 1.95702 46.0668 4.97049L46.2473 5.0191L46.3029 5.19963C49.3025 15.233 43.3866 20.7947 43.3241 20.8502ZM30.1038 15.3788C30.9054 14.8376 31.8704 14.5922 32.8332 14.6847C33.796 14.7773 34.6966 15.2019 35.3806 15.8859C36.0645 16.5698 36.4892 17.4704 36.5817 18.4332C36.6742 19.396 36.4288 20.361 35.8877 21.1627L36.3876 21.6626C37.0317 20.7243 37.3261 19.5898 37.2195 18.4567C37.113 17.3236 36.6121 16.2638 35.8043 15.4621C35.0026 14.6543 33.9429 14.1535 32.8098 14.0469C31.6767 13.9403 30.5421 14.2347 29.6038 14.8788L30.1038 15.3788ZM34.5892 22.4542C33.7874 22.9912 32.824 23.2332 31.8636 23.1388C30.9032 23.0444 30.0053 22.6196 29.3233 21.9368C28.6413 21.254 28.2176 20.3556 28.1244 19.3951C28.0311 18.4345 28.2743 17.4714 28.8123 16.6703L28.3401 16.1703C27.7026 17.1109 27.4121 18.244 27.5185 19.3753C27.6249 20.5066 28.1216 21.5657 28.9234 22.3709C29.7299 23.1733 30.7907 23.6698 31.9235 23.7749C33.0563 23.8801 34.1904 23.5874 35.1308 22.9472L34.5892 22.4542Z" fill="#373C37"/>
</svg>
