<svg width="16" height="17" viewBox="0 0 16 17" fill="none" xmlns="http://www.w3.org/2000/svg">
<path d="M14.5959 2.55858C13.6889 1.65155 12.4833 1.15203 11.2014 1.1521C10.0088 1.15217 8.88267 1.58502 8.0011 2.37559C7.11993 1.58555 5.99431 1.15303 4.80189 1.15303C4.80175 1.15303 4.80155 1.15303 4.80135 1.15303C3.51893 1.15317 2.31331 1.65288 1.40681 2.55998C0.499648 3.46675 0 4.67237 0 5.95465C0 7.23707 0.499581 8.44283 1.40668 9.34986L1.52114 9.46439C1.52094 9.47539 1.52034 9.48639 1.52034 9.49745C1.52034 9.91837 1.68447 10.3138 1.98179 10.6101C2.24892 10.8774 2.59497 11.0366 2.96716 11.0667C2.96702 11.0753 2.96656 11.0839 2.96656 11.0927C2.96676 11.5133 3.13082 11.9086 3.42834 12.2055C3.72566 12.5027 4.12091 12.6663 4.54123 12.6663C4.5413 12.6663 4.5413 12.6663 4.5413 12.6663C4.55023 12.6663 4.55903 12.6658 4.56796 12.6657C4.59683 13.0252 4.74742 13.3764 5.02141 13.6506C5.28887 13.9186 5.63526 14.0781 6.00777 14.1081C6.00764 14.1161 6.00717 14.1241 6.00717 14.1322C6.00717 14.5529 6.17117 14.9483 6.46842 15.2453C6.76541 15.5432 7.161 15.7072 7.58218 15.7072C7.58225 15.7072 7.58218 15.7072 7.58225 15.7072C8.00277 15.7072 8.39815 15.5436 8.69581 15.2463L9.7323 14.2086C9.89016 14.0509 10.01 13.8654 10.0881 13.6632C10.2909 13.5848 10.4761 13.4654 10.6333 13.3081C10.9183 13.0234 11.0807 12.6485 11.0943 12.2477C11.495 12.2345 11.8698 12.072 12.1542 11.7873C12.4251 11.5166 12.5854 11.1647 12.6122 10.7863C12.6153 10.7863 12.6184 10.7864 12.6215 10.7864C13.0245 10.7863 13.428 10.6334 13.7358 10.3273C13.8589 10.204 13.9589 10.0637 14.0341 9.91197L14.5959 9.35032C16.468 7.47886 16.468 4.43204 14.5959 2.55858ZM2.68837 9.90264C2.58004 9.79457 2.52031 9.65065 2.52031 9.49739C2.52031 9.34366 2.58024 9.19893 2.68877 9.09027L3.72473 8.05484C3.83359 7.94598 3.97818 7.88605 4.13191 7.88605C4.28524 7.88605 4.42923 7.94578 4.53803 8.05471C4.76209 8.2785 4.76222 8.64362 4.53936 8.86761L4.4813 8.92561C4.4757 8.93107 4.46983 8.93621 4.4643 8.94181L3.50114 9.9051C3.39301 10.013 3.24948 10.0724 3.09668 10.0724H3.09662C2.94282 10.0724 2.79803 10.0123 2.68837 9.90264ZM4.5413 11.6664C4.38797 11.6664 4.24377 11.6066 4.13498 11.498C4.02638 11.3896 3.96658 11.2455 3.96652 11.0922C3.96645 10.9385 4.02638 10.794 4.13531 10.6851L4.20618 10.6142C4.20718 10.6132 4.20824 10.6123 4.20924 10.6113L5.18001 9.64098C5.28774 9.53752 5.42833 9.48032 5.57779 9.48032C5.73165 9.48032 5.87658 9.54038 5.98524 9.64865C6.20923 9.87284 6.20923 10.238 5.98591 10.4617L4.94768 11.4976C4.83909 11.6065 4.69476 11.6664 4.5413 11.6664ZM5.72899 12.944C5.50526 12.7202 5.50553 12.3555 5.72932 12.1315L6.76595 11.096C6.87508 10.9868 7.0198 10.9267 7.17326 10.9267C7.32613 10.9267 7.47005 10.9864 7.57898 11.0955C7.68758 11.2038 7.74738 11.348 7.74744 11.5014C7.74751 11.6551 7.68771 11.7996 7.57958 11.9079L6.54142 12.9449C6.43303 13.0539 6.28903 13.1138 6.13597 13.1138C5.98271 13.1137 5.83831 13.0536 5.72899 12.944ZM7.98877 14.5393C7.88024 14.6477 7.73591 14.7073 7.58225 14.7073C7.42865 14.7073 7.28453 14.6477 7.17586 14.5387C7.06707 14.43 7.0072 14.2857 7.0072 14.1323C7.0072 13.9788 7.06713 13.8345 7.17606 13.7256L8.21216 12.6894C8.32089 12.5807 8.46522 12.5208 8.61854 12.5208C8.77214 12.5208 8.91673 12.5808 9.0254 12.6892C9.13392 12.7978 9.19372 12.9421 9.19372 13.0957C9.19372 13.2489 9.13406 13.3929 9.02533 13.5015L7.98877 14.5393ZM12.2143 9.61885L12.1554 9.55998C12.1553 9.55985 12.1552 9.55972 12.1551 9.55965L9.99589 7.401C9.80057 7.20567 9.48411 7.20574 9.28878 7.40106C9.09359 7.59639 9.09359 7.91291 9.28885 8.10817L11.4473 10.2661C11.4475 10.2663 11.4477 10.2666 11.4479 10.2668C11.5565 10.3754 11.6162 10.5198 11.6161 10.6734C11.616 10.827 11.556 10.9714 11.447 11.0803C11.3386 11.1889 11.1943 11.2487 11.0409 11.2487C10.8873 11.2487 10.7429 11.1888 10.6341 11.0801L8.47575 8.92167C8.28049 8.72648 7.9639 8.72648 7.76871 8.92167C7.57345 9.117 7.57345 9.43352 7.76871 9.62878L9.92709 11.7872C10.0356 11.8956 10.0953 12.0401 10.0952 12.1938C10.0951 12.2756 10.0776 12.3545 10.0454 12.4271C9.96869 12.2639 9.8635 12.1134 9.7321 11.9819C9.46478 11.715 9.11872 11.5562 8.74667 11.5264C8.74681 11.5179 8.74727 11.5094 8.74727 11.501C8.74714 11.0801 8.58301 10.6847 8.28569 10.388C7.98837 10.0904 7.59325 9.92657 7.1732 9.92657C7.1642 9.92657 7.15526 9.9271 7.14627 9.92724C7.11713 9.56758 6.96627 9.21586 6.69182 8.94107C6.42376 8.67402 6.07691 8.51516 5.70432 8.48576C5.71072 8.07391 5.55832 7.66039 5.24527 7.34767C4.94808 7.04994 4.5527 6.88595 4.13191 6.88595C3.71113 6.88595 3.31541 7.04988 3.01775 7.34753L1.98153 8.38323C1.96279 8.40196 1.94466 8.42109 1.92699 8.44056C1.32782 7.74998 0.999963 6.87768 0.999963 5.95472C0.999963 4.93949 1.39548 3.98506 2.11392 3.26709C2.83176 2.54871 3.78619 2.15306 4.80149 2.153C4.80169 2.153 4.80169 2.153 4.80189 2.153C5.72412 2.153 6.59575 2.48045 7.28646 3.07929L5.36653 4.99956C4.75269 5.61393 4.75249 6.61316 5.3664 7.2272C5.98058 7.84065 6.97961 7.84058 7.59372 7.22687L9.52144 5.29821L13.0292 8.80654C13.1374 8.91427 13.1971 9.05807 13.1973 9.2116C13.1974 9.28606 13.1832 9.35832 13.1566 9.42546C13.1542 9.43099 13.1518 9.43645 13.1496 9.44205C13.1213 9.50759 13.081 9.56785 13.0294 9.61945C12.8042 9.84344 12.4386 9.84324 12.2143 9.61885ZM14.0265 8.49809C13.9521 8.35223 13.8547 8.21737 13.7356 8.09877L9.87516 4.23778C9.8751 4.23772 9.87496 4.23758 9.8749 4.23745C9.69217 4.05486 9.40351 4.04319 9.20725 4.20218C9.20679 4.20258 9.20632 4.20285 9.20592 4.20325C9.19739 4.21018 9.18939 4.21798 9.18126 4.22552C9.17692 4.22958 9.17226 4.23332 9.16799 4.23758L9.16792 4.23765L9.16786 4.23772L6.88674 6.51983C6.66248 6.74376 6.2975 6.74376 6.07337 6.51996C5.84938 6.29591 5.84965 5.93092 6.07397 5.70633L8.34989 3.43008C8.35182 3.42821 8.35395 3.42655 8.35582 3.42468C8.35762 3.42288 8.35915 3.42081 8.36095 3.41901L8.51355 3.26635C9.23199 2.54791 10.1866 2.1522 11.2016 2.15213C12.2164 2.15206 13.1708 2.54758 13.8887 3.26555C15.3236 4.7015 15.3695 7.00788 14.0265 8.49809Z" fill="#17A297"/>
</svg>
