<svg width="31" height="31" viewBox="0 0 31 31" fill="none" xmlns="http://www.w3.org/2000/svg">
    <circle cx="15.43" cy="15.178" r="15" fill="#E7E3E8"/>
    <path clip-rule="evenodd" d="M29.43 15.493c0 7.91-6.413 14.322-14.323 14.322S.785 23.402.785 15.493c0-7.91 6.412-14.323 14.322-14.323 7.91 0 14.322 6.413 14.322 14.323z" stroke="#CCC"/>
    <path clip-rule="evenodd" d="M7.012 16.116c1.621-2.404 7.675-2.084 8.718 0 1.245 2.49-1.622 1.73-2.491 4.981-1.122 4.2.81 6.227 0 6.227-3.736 0-3.333-3.492-4.982-6.227-1.4-2.322-2.295-3.425-1.245-4.981z" stroke="#CCC"/>
    <path d="M29.43 16.115c-.452 0-8.718-2.852-8.718 0 0 1.246-1.699 1.978-1.246 3.737.57 2.218 3.73 2.4 3.737 3.736.007 1.7-2.834 3.399 0 3.736M19.678 1.918c-.598 2.516.822 4.022 2.28 5.48 1.743 1.743 1.07 4.197 2.49 3.736 2.254-.722 3.711-1.52 3.736-1.246M2.03 9.888c2.887 2.26 6.227 1.246 7.473 0 1.48-1.48 5.679-2.342 4.981-3.736-1.245-2.49-5.766-2.958-4.981-3.736" stroke="#CCC"/>
</svg>
