<svg width="52" height="52" viewBox="0 0 52 52" fill="none" xmlns="http://www.w3.org/2000/svg">
<g filter="url(#filter0_d_1118_52396)">
<rect x="7" y="7" width="38" height="38" rx="19" fill="white" shape-rendering="crispEdges"/>
<path d="M32.5 26C32.5 26.5625 32.0312 27.0312 31.5 27.0312H27V31.5312C27 32.0625 26.5312 32.5 26 32.5C25.4375 32.5 25 32.0625 25 31.5312V27.0312H20.5C19.9375 27.0312 19.5 26.5625 19.5 26C19.5 25.4688 19.9375 25.0312 20.5 25.0312H25V20.5312C25 19.9688 25.4375 19.5 26 19.5C26.5312 19.5 27 19.9688 27 20.5312V25.0312H31.5C32.0312 25 32.5 25.4688 32.5 26Z" fill="#17A297"/>
<rect x="8" y="8" width="36" height="36" rx="18" stroke="#17A297" stroke-width="2" shape-rendering="crispEdges"/>
</g>
<defs>
<filter id="filter0_d_1118_52396" x="0" y="0" width="52" height="52" filterUnits="userSpaceOnUse" color-interpolation-filters="sRGB">
<feFlood flood-opacity="0" result="BackgroundImageFix"/>
<feColorMatrix in="SourceAlpha" type="matrix" values="0 0 0 0 0 0 0 0 0 0 0 0 0 0 0 0 0 0 127 0" result="hardAlpha"/>
<feOffset/>
<feGaussianBlur stdDeviation="3.5"/>
<feComposite in2="hardAlpha" operator="out"/>
<feColorMatrix type="matrix" values="0 0 0 0 0 0 0 0 0 0 0 0 0 0 0 0 0 0 0.02 0"/>
<feBlend mode="normal" in2="BackgroundImageFix" result="effect1_dropShadow_1118_52396"/>
<feBlend mode="normal" in="SourceGraphic" in2="effect1_dropShadow_1118_52396" result="shape"/>
</filter>
</defs>
</svg>
