<svg width="20" height="17" viewBox="0 0 20 17" fill="none" xmlns="http://www.w3.org/2000/svg">
<path d="M17.7676 3.55005C17.0488 3.55005 16.5176 4.11255 16.5176 4.80005C16.5176 5.0813 16.6113 5.3313 16.7676 5.55005L13.9551 7.80005C13.7676 7.9563 13.5488 8.0188 13.3301 8.0188C12.9863 8.0188 12.6113 7.80005 12.4551 7.4563L10.6426 3.86255C11.0176 3.6438 11.2363 3.2688 11.2363 2.80005C11.2363 2.11255 10.7051 1.55005 10.0176 1.55005C9.29883 1.55005 8.73633 2.11255 8.73633 2.80005C8.73633 3.2688 8.98633 3.6438 9.33008 3.86255L7.54883 7.4563C7.39258 7.80005 7.01758 8.0188 6.67383 8.0188C6.45508 8.0188 6.23633 7.9563 6.04883 7.80005L3.23633 5.55005C3.39258 5.3313 3.48633 5.0813 3.48633 4.80005C3.48633 4.11255 2.92383 3.55005 2.23633 3.55005C1.54883 3.55005 0.986328 4.11255 0.986328 4.80005C0.986328 5.5188 1.54883 6.05005 2.23633 6.05005L3.83008 14.7375C3.92383 15.2063 4.36133 15.55 4.83008 15.55H15.1738C15.6426 15.55 16.0801 15.2063 16.1426 14.7375L17.7363 6.05005C17.7363 6.05005 17.7363 6.05005 17.7676 6.05005C18.4551 6.05005 19.0176 5.5188 19.0176 4.80005C19.0176 4.11255 18.4551 3.55005 17.7676 3.55005ZM14.7363 14.05H5.26758L4.20508 8.23755L5.11133 8.9563C5.54883 9.3313 6.11133 9.5188 6.67383 9.5188C7.61133 9.5188 8.48633 8.98755 8.89258 8.1438L10.0176 5.92505L11.1113 8.1438C11.5488 8.98755 12.3926 9.5188 13.3301 9.5188C13.9238 9.5188 14.4551 9.3313 14.8926 8.9563L15.7988 8.23755L14.7363 14.05Z" fill="#4A4E60"/>
</svg>
