<svg width="51" height="51" viewBox="0 0 51 51" fill="none" xmlns="http://www.w3.org/2000/svg">
<path d="M3.43385 46.2217H2.7395C2.7395 36.6675 9.84963 28.863 18.5845 28.863V29.5574C10.2315 29.5921 3.43385 37.0494 3.43385 46.2217ZM23.1672 30.3628C21.7046 29.8549 20.1675 29.5945 18.6192 29.5921V28.8978C20.2574 28.8963 21.8842 29.171 23.4311 29.7101L23.1672 30.3628ZM36.4432 33.7374H35.7488C35.7488 32.6324 35.3099 31.5728 34.5286 30.7915C33.7473 30.0102 32.6876 29.5713 31.5827 29.5713V28.8769C32.8718 28.8769 34.1081 29.389 35.0196 30.3005C35.9311 31.212 36.4432 32.4483 36.4432 33.7374Z" fill="#373C37"/>
<path d="M27.4513 33.7374H26.757C26.757 32.4483 27.269 31.212 28.1805 30.3005C29.0921 29.389 30.3283 28.877 31.6174 28.877V29.5713C30.5125 29.5713 29.4528 30.0102 28.6715 30.7915C27.8902 31.5728 27.4513 32.6325 27.4513 33.7374ZM45.9557 33.7374H45.2613C45.2613 32.6325 44.8224 31.5728 44.0411 30.7915C43.2598 30.0102 42.2002 29.5713 41.0952 29.5713V28.877C42.3843 28.877 43.6206 29.389 44.5321 30.3005C45.4436 31.212 45.9557 32.4483 45.9557 33.7374Z" fill="#373C37"/>
<path d="M36.9639 33.7374H36.2696C36.2696 32.4483 36.7817 31.212 37.6932 30.3005C38.6047 29.389 39.8409 28.8769 41.13 28.8769V29.5713C40.0251 29.5713 38.9654 30.0102 38.1841 30.7915C37.4029 31.5728 36.9639 32.6325 36.9639 33.7374ZM36.6237 46.7564L26.8473 35.7024L27.368 35.2441L36.6098 45.694L45.3378 35.251L45.8724 35.6954L36.6237 46.7564ZM11.03 16.3439C11.3633 14.5124 12.3288 12.8558 13.7582 11.6631C15.1876 10.4704 16.9902 9.81704 18.8519 9.81704C20.7135 9.81704 22.5161 10.4704 23.9455 11.6631C25.3749 12.8558 26.3404 14.5124 26.6737 16.3439H27.368C27.035 14.3237 25.9974 12.4867 24.4392 11.1585C22.881 9.83036 20.9028 9.09684 18.8553 9.08801C16.8055 9.09356 14.824 9.8256 13.2629 11.1541C11.7018 12.4825 10.6622 14.3214 10.3287 16.3439H11.03ZM26.6737 19.1977C26.3404 21.0293 25.3749 22.6858 23.9455 23.8786C22.5161 25.0713 20.7135 25.7246 18.8519 25.7246C16.9902 25.7246 15.1876 25.0713 13.7582 23.8786C12.3288 22.6858 11.3633 21.0293 11.03 19.1977H10.3357C10.6689 21.2172 11.7067 23.0534 13.2651 24.3805C14.8235 25.7075 16.8016 26.4395 18.8484 26.4467C20.8976 26.4428 22.879 25.7123 24.4403 24.3849C26.0015 23.0576 27.0414 21.2196 27.375 19.1977H26.6737Z" fill="#373C37"/>
</svg>
