<svg width="51" height="51" viewBox="0 0 51 51" fill="none" xmlns="http://www.w3.org/2000/svg">
<path d="M3.43385 46.3065H2.7395C2.7395 36.7522 9.84963 28.9478 18.5845 28.9478V29.6421C10.2315 29.6768 3.43385 37.1341 3.43385 46.3065ZM23.1672 30.4475C21.7046 29.9396 20.1675 29.6792 18.6192 29.6768V28.9825C20.2574 28.981 21.8842 29.2557 23.4311 29.7949L23.1672 30.4475ZM36.4431 33.8221H35.7488C35.7488 32.7172 35.3099 31.6575 34.5286 30.8762C33.7473 30.0949 32.6876 29.656 31.5827 29.656V28.9616C32.8718 28.9616 34.1081 29.4737 35.0196 30.3852C35.9311 31.2967 36.4431 32.533 36.4431 33.8221Z" fill="#373C37"/>
<path d="M27.4513 33.8221H26.757C26.757 32.533 27.269 31.2968 28.1805 30.3853C29.0921 29.4737 30.3283 28.9617 31.6174 28.9617V29.656C30.5125 29.656 29.4528 30.0949 28.6715 30.8762C27.8902 31.6575 27.4513 32.7172 27.4513 33.8221ZM45.9557 33.8221H45.2613C45.2613 32.7172 44.8224 31.6575 44.0411 30.8762C43.2598 30.0949 42.2002 29.656 41.0952 29.656V28.9617C42.3843 28.9617 43.6206 29.4737 44.5321 30.3853C45.4436 31.2968 45.9557 32.533 45.9557 33.8221Z" fill="#373C37"/>
<path d="M36.9639 33.8221H36.2696C36.2696 32.533 36.7817 31.2967 37.6932 30.3852C38.6047 29.4737 39.8409 28.9616 41.13 28.9616V29.656C40.0251 29.656 38.9654 30.0949 38.1841 30.8762C37.4029 31.6575 36.9639 32.7172 36.9639 33.8221ZM36.6237 46.8411L26.8473 35.7871L27.368 35.3288L36.6098 45.7788L45.3378 35.3358L45.8724 35.7801L36.6237 46.8411ZM11.03 16.4287C11.3633 14.5971 12.3288 12.9406 13.7582 11.7478C15.1876 10.5551 16.9902 9.90176 18.8519 9.90176C20.7135 9.90176 22.5161 10.5551 23.9455 11.7478C25.3749 12.9406 26.3404 14.5971 26.6737 16.4287H27.368C27.035 14.4085 25.9974 12.5714 24.4392 11.2433C22.881 9.91508 20.9028 9.18156 18.8553 9.17273C16.8055 9.17828 14.824 9.91032 13.2629 11.2388C11.7018 12.5673 10.6622 14.4061 10.3287 16.4287H11.03ZM26.6737 19.2824C26.3404 21.114 25.3749 22.7705 23.9455 23.9633C22.5161 25.156 20.7135 25.8093 18.8519 25.8093C16.9902 25.8093 15.1876 25.156 13.7582 23.9633C12.3288 22.7705 11.3633 21.114 11.03 19.2824H10.3357C10.6689 21.302 11.7067 23.1382 13.2651 24.4652C14.8235 25.7922 16.8016 26.5243 18.8484 26.5314C20.8976 26.5275 22.879 25.797 24.4403 24.4697C26.0015 23.1423 27.0414 21.3043 27.375 19.2824H26.6737Z" fill="#373C37"/>
<g style="mix-blend-mode:multiply">
<path d="M27.5662 31.4786V31.2654C27.5662 28.2806 29.6981 25.7222 32.6403 25.2532C34.5591 24.9121 36.5631 25.5517 37.9703 26.9588L38.4819 27.4278L38.951 26.9588C40.3581 25.5517 42.3621 24.9121 44.2809 25.2532C47.2231 25.7222 49.3977 28.2806 49.3977 31.2654V31.4786C49.3977 33.2695 48.6302 34.9751 47.351 36.169L39.6332 43.3751C39.3347 43.6736 38.9083 43.8015 38.4819 43.8015C38.0129 43.8015 37.5865 43.6736 37.288 43.3751L29.5702 36.169C28.291 34.9751 27.5662 33.2695 27.5662 31.4786Z" fill="#C5E8E5"/>
</g>
</svg>
