<svg width="12" height="16" viewBox="0 0 12 16" fill="none" xmlns="http://www.w3.org/2000/svg">
<path d="M11.4062 2.9375C11.7812 3.3125 12 3.8125 12 4.34375V14C12 15.125 11.0938 16 10 16H2C0.875 16 0 15.125 0 14V2C0 0.90625 0.875 0 2 0H7.65625C8.1875 0 8.6875 0.21875 9.0625 0.59375L11.4062 2.9375ZM10.5 14V5H8C7.4375 5 7 4.5625 7 4V1.53125H2C1.71875 1.53125 1.5 1.75 1.5 2.03125V14C1.5 14.2812 1.71875 14.5 2 14.5H10C10.25 14.5 10.5 14.2812 10.5 14ZM3.5 8.75H8.5C8.90625 8.75 9.25 9.09375 9.25 9.5C9.25 9.875 8.90625 10.2188 8.5 10.2188H3.5C3.0625 10.2188 2.75 9.90625 2.75 9.5C2.75 9.09375 3.0625 8.75 3.5 8.75Z" fill="#B6B4B2"/>
</svg>
