<svg width="9" height="10" viewBox="0 0 9 10" fill="none" xmlns="http://www.w3.org/2000/svg">
<path d="M8.30469 6.32422L5.17969 9.44922C5.0625 9.56641 4.90625 9.625 4.75 9.625C4.57422 9.625 4.41797 9.56641 4.30078 9.44922L1.17578 6.32422C0.921875 6.08984 0.921875 5.67969 1.17578 5.44531C1.41016 5.19141 1.82031 5.19141 2.05469 5.44531L4.125 7.49609V1.5C4.125 1.16797 4.39844 0.894531 4.73047 0.894531C5.04297 0.894531 5.375 1.16797 5.375 1.5V7.49609L7.42578 5.44531C7.66016 5.19141 8.07031 5.19141 8.30469 5.44531C8.55859 5.67969 8.55859 6.08984 8.30469 6.32422Z" fill="#898785"/>
</svg>
