<svg width="20" height="20" viewBox="0 0 20 20" fill="none" xmlns="http://www.w3.org/2000/svg">
<path fill-rule="evenodd" clip-rule="evenodd" d="M1.86942 0.3143C1.44176 -0.104767 0.748397 -0.104767 0.320741 0.3143C-0.106914 0.733366 -0.106914 1.41281 0.320741 1.83187L8.65643 10.0002L0.320807 18.1684C-0.106847 18.5875 -0.106848 19.2669 0.320807 19.686C0.748463 20.105 1.44183 20.105 1.86948 19.686L10.2051 11.5177L18.1305 19.284C18.5582 19.703 19.2515 19.703 19.6792 19.284C20.1069 18.8649 20.1068 18.1855 19.6792 17.7664L11.7538 10.0002L19.6793 2.23386C20.1069 1.81479 20.1069 1.13535 19.6793 0.716281C19.2516 0.297215 18.5582 0.297214 18.1306 0.716281L10.2051 8.48259L1.86942 0.3143Z" fill="#898785"/>
</svg>
