<svg width="15" height="19" viewBox="0 0 15 19" fill="none" xmlns="http://www.w3.org/2000/svg">
<path d="M14.0625 16.375H0.9375C0.390625 16.375 0 16.7656 0 17.3125C0 17.8594 0.390625 18.25 0.9375 18.25H14.0625C14.5703 18.25 15 17.8594 15 17.3125C15 16.8047 14.5703 16.375 14.0625 16.375ZM11.7969 7.625L8.4375 11.2188V1.72656C8.4375 1.17969 8.00781 0.75 7.5 0.75C6.95312 0.75 6.5625 1.17969 6.5625 1.72656V11.2188L3.16406 7.625C2.96875 7.42969 2.73438 7.35156 2.5 7.35156C2.26562 7.35156 2.03125 7.42969 1.83594 7.58594C1.44531 7.9375 1.44531 8.52344 1.79688 8.91406L6.79688 14.2266C7.14844 14.6172 7.8125 14.6172 8.16406 14.2266L13.1641 8.91406C13.5156 8.52344 13.5156 7.9375 13.125 7.58594C12.7344 7.23438 12.1484 7.23438 11.7969 7.625Z" fill="#17A297"/>
</svg>
