<svg width="16" height="16" viewBox="0 0 16 16" fill="none" xmlns="http://www.w3.org/2000/svg">
<path d="M2.50022 0.931641C1.26657 0.931641 0.25 1.89743 0.25 3.06957V8.77086C0.25 9.94297 1.26657 10.9089 2.50022 10.9089H4.7519V13.0482C4.7519 14.2203 5.76557 15.1848 6.99919 15.1848H13.0027C14.2363 15.1848 15.25 14.2203 15.25 13.0482V7.3456C15.25 6.17349 14.2363 5.21038 13.0027 5.21038H10.751V3.06957C10.751 1.89743 9.73446 0.931641 8.50081 0.931641H2.50022ZM2.50022 2.3569H8.50081C8.92927 2.3569 9.25088 2.66247 9.25088 3.06957V5.21038H6.99919C5.76557 5.21038 4.7519 6.17349 4.7519 7.3456V9.48353H2.50022C2.07176 9.48353 1.75015 9.17796 1.75015 8.77086V3.06957C1.75015 2.66247 2.07176 2.3569 2.50022 2.3569ZM6.99919 6.63013H13.0027C13.4312 6.63013 13.7499 6.93847 13.7499 7.3456V13.0482C13.7499 13.4553 13.4312 13.7595 13.0027 13.7595H6.99919C6.5707 13.7595 6.25205 13.4553 6.25205 13.0482V7.3456C6.25205 6.93847 6.5707 6.63021 6.99919 6.63021V6.63013Z" fill="#17A297"/>
</svg>
