<svg width="14" height="14" viewBox="0 0 14 14" fill="inherit" xmlns="http://www.w3.org/2000/svg">
<path d="M9.4707 1.25977C10.1816 0.548828 11.3242 0.548828 12.0352 1.25977L12.3652 1.58984C13.0762 2.30078 13.0762 3.44336 12.3652 4.1543L7.33789 9.18164C7.13477 9.38477 6.85547 9.5625 6.55078 9.63867L4.01172 10.375C3.80859 10.4258 3.58008 10.375 3.42773 10.1973C3.25 10.0449 3.19922 9.81641 3.25 9.61328L3.98633 7.07422C4.0625 6.76953 4.24023 6.49023 4.44336 6.28711L9.4707 1.25977ZM11.1719 2.12305C10.9434 1.89453 10.5625 1.89453 10.334 2.12305L9.57227 2.85938L10.7656 4.05273L11.502 3.29102C11.7305 3.0625 11.7305 2.68164 11.502 2.45312L11.1719 2.12305ZM5.1543 7.4043L4.72266 8.90234L6.2207 8.4707C6.32227 8.44531 6.39844 8.39453 6.47461 8.31836L9.90234 4.89062L8.73438 3.72266L5.30664 7.15039C5.23047 7.22656 5.17969 7.30273 5.1543 7.4043ZM5.07812 2.25C5.4082 2.25 5.6875 2.5293 5.6875 2.85938C5.6875 3.21484 5.4082 3.46875 5.07812 3.46875H2.23438C1.65039 3.46875 1.21875 3.92578 1.21875 4.48438V11.3906C1.21875 11.9746 1.65039 12.4062 2.23438 12.4062H9.14062C9.69922 12.4062 10.1562 11.9746 10.1562 11.3906V8.54688C10.1562 8.2168 10.4102 7.9375 10.7656 7.9375C11.0957 7.9375 11.375 8.2168 11.375 8.54688V11.3906C11.375 12.6348 10.3594 13.625 9.14062 13.625H2.23438C0.990234 13.625 0 12.6348 0 11.3906V4.48438C0 3.26562 0.990234 2.25 2.23438 2.25H5.07812Z" fill="inherit"/>
</svg>
