<svg width="64" height="64" viewBox="0 0 64 64" fill="none" xmlns="http://www.w3.org/2000/svg">
<g clip-path="url(#clip0_6221_72414)">
<g opacity="0.5">
<path d="M35.9864 8.42045L6.18733 16.9652C4.86011 17.3458 4.0927 18.7302 4.47327 20.0575L15.2231 57.5467C15.6037 58.8739 16.9882 59.6413 18.3154 59.2607L48.1145 50.716C49.4417 50.3354 50.2091 48.9509 49.8286 47.6237L39.0787 10.1345C38.6981 8.80728 37.3137 8.03987 35.9864 8.42045Z" fill="#E7E3E8"/>
</g>
<path d="M47.5 8.58008H16.5C15.1193 8.58008 14 9.69937 14 11.0801V50.0801C14 51.4608 15.1193 52.5801 16.5 52.5801H47.5C48.8807 52.5801 50 51.4608 50 50.0801V11.0801C50 9.69937 48.8807 8.58008 47.5 8.58008Z" fill="white"/>
<path d="M47.5 53.5801H16.5C14.57 53.5801 13 52.0101 13 50.0801V11.0801C13 9.15008 14.57 7.58008 16.5 7.58008H47.5C49.43 7.58008 51 9.15008 51 11.0801V50.0801C51 52.0101 49.43 53.5801 47.5 53.5801ZM16.5 9.58008C15.675 9.58008 15 10.2551 15 11.0801V50.0801C15 50.9051 15.675 51.5801 16.5 51.5801H47.5C48.325 51.5801 49 50.9051 49 50.0801V11.0801C49 10.2551 48.325 9.58008 47.5 9.58008H16.5Z" fill="#E7E3E8"/>
<path d="M42.8102 25.5605H21.8002C20.9745 25.5605 20.3052 26.2299 20.3052 27.0555V27.0655C20.3052 27.8912 20.9745 28.5605 21.8002 28.5605H42.8102C43.6358 28.5605 44.3052 27.8912 44.3052 27.0655V27.0555C44.3052 26.2299 43.6358 25.5605 42.8102 25.5605Z" fill="#E7E3E8"/>
<path d="M42.8102 19.5303H21.8002C20.9745 19.5303 20.3052 20.1996 20.3052 21.0253V21.0353C20.3052 21.8609 20.9745 22.5303 21.8002 22.5303H42.8102C43.6358 22.5303 44.3052 21.8609 44.3052 21.0353V21.0253C44.3052 20.1996 43.6358 19.5303 42.8102 19.5303Z" fill="#E7E3E8"/>
<path d="M42.8102 31.5957H21.8002C20.9745 31.5957 20.3052 32.265 20.3052 33.0907V33.1007C20.3052 33.9264 20.9745 34.5957 21.8002 34.5957H42.8102C43.6358 34.5957 44.3052 33.9264 44.3052 33.1007V33.0907C44.3052 32.265 43.6358 31.5957 42.8102 31.5957Z" fill="#E7E3E8"/>
<path d="M30.5052 38.6299H21.8002C20.9745 38.6299 20.3052 39.2992 20.3052 40.1249V40.1349C20.3052 40.9605 20.9745 41.6299 21.8002 41.6299H30.5052C31.3308 41.6299 32.0002 40.9605 32.0002 40.1349V40.1249C32.0002 39.2992 31.3308 38.6299 30.5052 38.6299Z" fill="#E7E3E8"/>
<path d="M45.15 45.5552L41.7 47.8552C41.025 48.3052 40.305 47.8202 40.465 47.0252L41.2799 42.9602L53.93 24.0802C54.505 23.2252 55.53 22.9102 56.23 23.3802L57.575 24.2802C58.27 24.7452 58.3699 25.8202 57.7999 26.6752L45.15 45.5552Z" fill="white"/>
<path d="M59.1601 25.2396C59.0901 24.4946 58.7151 23.8396 58.1351 23.4496L56.7901 22.5446C55.6351 21.7746 53.9851 22.2096 53.1051 23.5196L40.3451 42.5596L39.4901 46.8196C39.3351 47.5896 39.6151 48.3196 40.2201 48.7246C40.5101 48.9196 40.8401 49.0146 41.1801 49.0146C41.5451 49.0146 41.9201 48.8996 42.2651 48.6746L45.8801 46.2646L58.6401 27.2196C59.0451 26.6146 59.2351 25.9096 59.1701 25.2296L59.1601 25.2396ZM41.5401 46.7596L41.9701 44.6246L43.3551 45.5546L41.5451 46.7596H41.5401ZM56.9701 26.1196L44.8751 44.1646L42.6651 42.6846L54.7601 24.6396C55.0301 24.2346 55.4701 24.0796 55.6701 24.2096L57.0151 25.1146C57.1251 25.1896 57.1551 25.3446 57.1651 25.4296C57.1851 25.6496 57.1151 25.8996 56.9651 26.1196H56.9701Z" fill="#E7E3E8"/>
</g>
<defs>
<clipPath id="clip0_6221_72414">
<rect width="64" height="64" fill="white"/>
</clipPath>
</defs>
</svg>
