<svg width="24" height="32" viewBox="0 0 24 32" fill="none" xmlns="http://www.w3.org/2000/svg">
<path d="M22.8125 5.875L18.125 1.1875C17.375 0.4375 16.375 0 15.3125 0H4C1.75 0 0 1.8125 0 4V28C0 30.25 1.75 32 4 32H20C22.1875 32 24 30.25 24 28V8.6875C24 7.625 23.5625 6.625 22.8125 5.875ZM21 28C21 28.5625 20.5 29 20 29H4C3.4375 29 3 28.5625 3 28V4.0625C3 3.5 3.4375 3.0625 4 3.0625H14V8C14 9.125 14.875 10 16 10H21V28ZM14.9375 14.9375L12 17.9375L9 14.9375C8.375 14.375 7.4375 14.375 6.875 14.9375C6.25 15.5625 6.25 16.5 6.875 17.0625L9.875 20L6.9375 23C6.3125 23.5625 6.3125 24.5 6.9375 25.0625C7.5 25.6875 8.4375 25.6875 9.0625 25.0625L12 22.125L14.9375 25.0625C15.5 25.6875 16.4375 25.6875 17 25.0625C17.625 24.5 17.625 23.5625 17 22.9375L14.0625 20L17 17.0625C17.625 16.5 17.625 15.5625 17 15C16.4375 14.375 15.5 14.375 14.9375 14.9375Z" fill="#B6B4B2"/>
</svg>
