<svg width="32" height="32" viewBox="0 0 32 32" fill="none" xmlns="http://www.w3.org/2000/svg">
<path d="M16 32C24.8366 32 32 24.8366 32 16C32 7.16344 24.8366 0 16 0C7.16344 0 0 7.16344 0 16C0 24.8366 7.16344 32 16 32Z" fill="#0052B4"/>
<path d="M15.9978 6.26465L16.5158 7.85896H18.1921L16.8359 8.84428L17.3539 10.4386L15.9978 9.45322L14.6415 10.4386L15.1596 8.84428L13.8034 7.85896H15.4797L15.9978 6.26465Z" fill="#FFDA44"/>
<path d="M9.11297 9.1181L10.6067 9.8791L11.792 8.69385L11.5297 10.3495L13.0234 11.1105L11.3677 11.3728L11.1055 13.0285L10.3444 11.5348L8.68878 11.7972L9.87409 10.6118L9.11297 9.1181Z" fill="#FFDA44"/>
<path d="M6.25964 16.0049L7.85396 15.4869V13.8105L8.83921 15.1668L10.4336 14.6487L9.44814 16.0049L10.4336 17.3611L8.83921 16.8431L7.85396 18.1993V16.523L6.25964 16.0049Z" fill="#FFDA44"/>
<path d="M9.11297 22.8916L9.87403 21.3978L8.68878 20.2125L10.3445 20.4749L11.1054 18.9812L11.3677 20.6369L13.0233 20.8991L11.5298 21.6602L11.792 23.3158L10.6067 22.1305L9.11297 22.8916Z" fill="#FFDA44"/>
<path d="M15.9978 25.7427L15.4796 24.1483H13.8034L15.1596 23.163L14.6415 21.5688L15.9978 22.5541L17.3539 21.5688L16.8359 23.163L18.1921 24.1483H16.5158L15.9978 25.7427Z" fill="#FFDA44"/>
<path d="M22.8846 22.8916L21.3909 22.1306L20.2055 23.3159L20.4678 21.6601L18.9742 20.8991L20.6299 20.6369L20.8921 18.9812L21.6531 20.4749L23.3087 20.2125L22.1234 21.398L22.8846 22.8916Z" fill="#FFDA44"/>
<path d="M25.7387 16.0049L24.1444 16.523V18.1993L23.1591 16.8431L21.5649 17.3611L22.5502 16.0049L21.5649 14.6487L23.1591 15.1668L24.1444 13.8105V15.4869L25.7387 16.0049Z" fill="#FFDA44"/>
<path d="M22.8846 9.11804L22.1235 10.6118L23.3088 11.7971L21.6531 11.5347L20.8921 13.0284L20.6299 11.3727L18.9742 11.1104L20.4678 10.3494L20.2055 8.69385L21.3909 9.8791L22.8846 9.11804Z" fill="#FFDA44"/>
</svg>
