<svg width="15" height="13" viewBox="0 0 15 13" fill="none" xmlns="http://www.w3.org/2000/svg">
<path d="M7.80212 5.46046C8.20837 5.83546 8.20837 6.49171 7.80212 6.86671L2.80212 11.8667C2.61462 12.0542 2.36462 12.148 2.11462 12.148C1.83337 12.148 1.58337 12.0542 1.39587 11.8667C0.989624 11.4917 0.989624 10.8355 1.39587 10.4605L5.67712 6.14796L1.39587 1.86671C0.989624 1.49171 0.989624 0.835464 1.39587 0.460464C1.77087 0.0542145 2.42712 0.0542145 2.80212 0.460464L7.80212 5.46046ZM13.8021 5.46046C14.2084 5.83546 14.2084 6.49171 13.8021 6.86671L8.80212 11.8667C8.61462 12.0542 8.36462 12.148 8.11462 12.148C7.83337 12.148 7.58337 12.0542 7.39587 11.8667C6.98962 11.4917 6.98962 10.8355 7.39587 10.4605L11.6771 6.14796L7.39587 1.86671C6.98962 1.49171 6.98962 0.835464 7.39587 0.460464C7.77087 0.0542145 8.42712 0.0542145 8.80212 0.460464L13.8021 5.46046Z" fill="#17A297"/>
</svg>
