<svg width="22" height="18" viewBox="0 0 22 18" fill="none" xmlns="http://www.w3.org/2000/svg">
<path d="M6.78125 4.78125C8.5625 3.375 11.125 3.5 12.75 5.125C14.0938 6.46875 14.4062 8.5 13.6562 10.1562L15.0938 11.2812L18.0625 8.3125C19.2188 7.125 19.2188 5.25 18.0625 4.0625C16.9375 2.96875 15.1562 2.90625 13.9688 3.9375L13.7812 4.09375C13.4688 4.375 13 4.34375 12.7188 4.03125C12.4375 3.71875 12.4688 3.25 12.7812 2.96875L12.9688 2.8125C14.75 1.25 17.4375 1.34375 19.125 3C20.875 4.75 20.875 7.59375 19.125 9.375L16.2812 12.2188L20.6875 15.6875C21.0312 15.9375 21.0938 16.4062 20.8125 16.7188C20.5625 17.0625 20.0938 17.125 19.7812 16.8438L1.28125 2.34375C0.9375 2.09375 0.875 1.625 1.15625 1.3125C1.40625 0.96875 1.875 0.90625 2.1875 1.1875L6.78125 4.78125ZM8.03125 5.75L12.4375 9.1875C12.75 8.15625 12.5 7 11.6875 6.1875C10.6875 5.1875 9.15625 5.03125 8.03125 5.75ZM9.21875 12.9062C8.28125 11.9688 7.84375 10.7188 7.90625 9.46875L9.59375 10.8125C9.75 11.1875 9.96875 11.5312 10.2812 11.8438C10.75 12.3438 11.375 12.625 12 12.6875L13.6875 14.0312C12.1562 14.5 10.4375 14.125 9.21875 12.9062ZM4.625 6.875L5.8125 7.8125L3.90625 9.71875C2.75 10.9062 2.75 12.7812 3.90625 13.9688C5.03125 15.0625 6.8125 15.125 8 14.0938L8.1875 13.9375C8.5 13.6562 8.96875 13.6875 9.25 14C9.53125 14.3125 9.5 14.7812 9.1875 15.0625L9 15.2188C7.21875 16.7812 4.53125 16.6875 2.84375 15.0312C1.09375 13.2812 1.09375 10.4062 2.84375 8.65625L4.625 6.875Z" fill="#FAAD19"/>
</svg>
