<svg width="51" height="51" viewBox="0 0 51 51" fill="none" xmlns="http://www.w3.org/2000/svg">
<path d="M17.911 36.294L19.3761 27.7743L13.1825 21.7335L21.7369 20.4906L25.5627 12.7417L28.6179 18.9214L27.9929 19.2269L25.5627 14.3109L22.2021 21.1294L14.6753 22.2195L20.119 27.5313L18.8345 35.0233L23.5769 32.5375L23.8963 33.1486L17.911 36.294ZM33.2214 36.294L25.403 32.1904L25.7294 31.5724L32.2979 35.0233L31.0133 27.5313L36.457 22.2195L29.1108 21.1572L29.215 20.4698L37.9499 21.7335L31.7563 27.7743L33.2214 36.294Z" fill="#373C37"/>
<path d="M44.6017 27.2674C44.2349 32.0657 42.0699 36.5485 38.5399 39.819C35.0098 43.0896 30.375 44.9066 25.5627 44.9066C20.7505 44.9066 16.1157 43.0896 12.5856 39.819C9.0555 36.5485 6.89049 32.0657 6.52369 27.2674H5.82935C6.18009 32.2617 8.41151 36.9373 12.0736 40.3512C15.7357 43.7652 20.5561 45.6635 25.5627 45.6635C30.5693 45.6635 35.3897 43.7652 39.0518 40.3512C42.7139 36.9373 44.9453 32.2617 45.2961 27.2674H44.6017ZM5.82935 24.4484H6.52369C6.8808 19.6406 9.04075 15.1451 12.5711 11.8619C16.1015 8.57877 20.7417 6.75027 25.5627 6.7425V6.04816C20.5578 6.0564 15.7414 7.9581 12.081 11.3713C8.42049 14.7845 6.18708 19.4563 5.82935 24.4484ZM25.5627 6.7425C30.385 6.74852 35.0269 8.57623 38.5587 11.8596C42.0905 15.1429 44.2515 19.6394 44.6087 24.4484H45.303C44.9452 19.4551 42.7108 14.7823 39.0489 11.3689C35.3869 7.95557 30.5688 6.05465 25.5627 6.04816V6.7425Z" fill="#373C37"/>
<g style="mix-blend-mode:multiply">
<path d="M33.3156 16.8006L40.1786 17.8085C40.7545 17.9044 41.2344 18.2884 41.4264 18.8643C41.6184 19.3922 41.4744 20.0161 41.0424 20.4001L36.0512 25.3433L37.251 32.3502C37.347 32.9262 37.107 33.5021 36.6271 33.838C36.1472 34.222 35.5233 34.222 34.9954 33.982L28.8523 30.6705L22.6612 33.982C22.1813 34.222 21.5094 34.222 21.0775 33.838C20.5975 33.5021 20.3576 32.9262 20.4536 32.3502L21.6054 25.3433L16.6142 20.4001C16.1822 20.0161 16.0382 19.3922 16.2302 18.8643C16.4222 18.2884 16.9021 17.9044 17.478 17.8085L24.389 16.8006L27.4605 10.4176C27.7005 9.88966 28.2284 9.55371 28.8523 9.55371C29.4282 9.55371 29.9561 9.88966 30.1961 10.4176L33.3156 16.8006Z" fill="#C5E8E5"/>
</g>
</svg>
