<svg width="51" height="51" viewBox="0 0 51 51" fill="none" xmlns="http://www.w3.org/2000/svg">
<path d="M17.911 36.2093L19.3761 27.6896L13.1825 21.6488L21.7369 20.4059L25.5627 12.657L28.6179 18.8367L27.9929 19.1422L25.5627 14.2262L22.2021 21.0447L14.6753 22.1349L20.119 27.4466L18.8345 34.9386L23.5769 32.4529L23.8963 33.0639L17.911 36.2093ZM33.2214 36.2093L25.403 32.1057L25.7294 31.4877L32.2979 34.9386L31.0133 27.4466L36.457 22.1349L29.1108 21.0725L29.215 20.3851L37.9499 21.6488L31.7563 27.6896L33.2214 36.2093Z" fill="#373C37"/>
<path d="M44.6017 27.1828C44.2349 31.981 42.0699 36.4639 38.5399 39.7344C35.0098 43.0049 30.375 44.8219 25.5627 44.8219C20.7505 44.8219 16.1157 43.0049 12.5856 39.7344C9.0555 36.4639 6.89049 31.981 6.52369 27.1828H5.82935C6.18009 32.1771 8.41151 36.8526 12.0736 40.2666C15.7357 43.6805 20.5561 45.5789 25.5627 45.5789C30.5693 45.5789 35.3897 43.6805 39.0518 40.2666C42.7139 36.8526 44.9453 32.1771 45.2961 27.1828H44.6017ZM5.82935 24.3637H6.52369C6.8808 19.5559 9.04075 15.0604 12.5711 11.7773C16.1015 8.49411 20.7417 6.66561 25.5627 6.65785V5.9635C20.5578 5.97174 15.7414 7.87345 12.081 11.2866C8.42049 14.6998 6.18708 19.3716 5.82935 24.3637ZM25.5627 6.65785C30.385 6.66386 35.0269 8.49158 38.5587 11.7749C42.0905 15.0582 44.2515 19.5547 44.6087 24.3637H45.303C44.9452 19.3704 42.7108 14.6976 39.0489 11.2843C35.3869 7.87091 30.5688 5.96999 25.5627 5.9635V6.65785Z" fill="#373C37"/>
</svg>
