<svg width="16" height="17" viewBox="0 0 16 17" fill="none" xmlns="http://www.w3.org/2000/svg">
<path d="M14.0312 1.59546L12.5312 3.12671C11.3125 2.03296 9.71875 1.34546 8 1.34546C5.03125 1.34546 2.4375 3.25171 1.53125 6.06421C1.375 6.59546 1.65625 7.15796 2.1875 7.31421C2.71875 7.47046 3.28125 7.18921 3.4375 6.65796C4.0625 4.68921 5.90625 3.34546 8 3.34546C9.15625 3.34546 10.2812 3.81421 11.125 4.53296L9.71875 5.90796C9.21875 6.43921 9.5625 7.34546 10.3125 7.34546H14.9062C15.2188 7.34546 15.5 7.09546 15.5 6.75171V2.22046C15.5 1.43921 14.5625 1.06421 14.0312 1.59546ZM13.7812 9.40796C13.25 9.25171 12.6875 9.53296 12.5312 10.0642C11.9062 12.033 10.0625 13.3455 8 13.3455C6.8125 13.3455 5.71875 12.908 4.84375 12.1892L6.25 10.783C6.75 10.283 6.40625 9.37671 5.65625 9.34546H1.0625C0.75 9.37671 0.5 9.62671 0.5 9.97046V14.5017C0.5 15.283 1.40625 15.658 1.9375 15.1267L3.4375 13.5955C4.65625 14.6892 6.25 15.3455 7.96875 15.3455C10.9062 15.3455 13.5 13.4705 14.4062 10.658C14.5938 10.1267 14.3125 9.56421 13.7812 9.40796Z" fill="#B6B4B2"/>
</svg>
