<svg width="35" height="36" viewBox="0 0 35 36" fill="none" xmlns="http://www.w3.org/2000/svg">
    <rect y=".845" width="35" height="35" rx="8" fill="#FF704D"/>
    <path d="M23.695 14.15v-3.095a2.384 2.384 0 0 0 1.375-2.15v-.07a2.384 2.384 0 0 0-2.384-2.384h-.072a2.384 2.384 0 0 0-2.384 2.384v.07a2.385 2.385 0 0 0 1.375 2.15v3.096a6.752 6.752 0 0 0-3.21 1.413L9.902 8.951c.06-.22.092-.444.096-.67a2.686 2.686 0 1 0-2.69 2.682 2.657 2.657 0 0 0 1.323-.36l8.362 6.506a6.772 6.772 0 0 0 .103 7.629l-2.543 2.544c-.206-.066-.42-.101-.636-.104a2.206 2.206 0 1 0 2.208 2.208 2.177 2.177 0 0 0-.103-.636l2.515-2.517a6.784 6.784 0 1 0 5.157-12.082zm-1.043 10.184a3.48 3.48 0 1 1 0-6.959 3.48 3.48 0 0 1 .004 6.957" fill="#fff"/>
</svg>
