<svg width="17" height="9" viewBox="0 0 17 9" fill="none" xmlns="http://www.w3.org/2000/svg">
<path d="M8.5 5.77631C5.19724 5.77631 2.12122 4.55316 0.271578 2.5038C0.112366 2.32745 0.0152708 2.07863 0.00165251 1.81207C-0.0119657 1.54552 0.0590083 1.28306 0.198961 1.08244C0.338914 0.881823 0.536381 0.759477 0.747922 0.742317C0.959463 0.725157 1.16775 0.814588 1.32696 0.990939C2.89326 2.72608 5.57466 3.76184 8.5 3.76184C11.4253 3.76184 14.1067 2.72608 15.673 0.990939C15.7519 0.903619 15.8436 0.836721 15.9429 0.794062C16.0423 0.751403 16.1473 0.73382 16.2521 0.742317C16.3568 0.750813 16.4592 0.785223 16.5534 0.843582C16.6476 0.901941 16.7317 0.983105 16.801 1.08244C16.8703 1.18178 16.9234 1.29734 16.9573 1.42253C16.9911 1.54772 17.0051 1.68009 16.9984 1.81207C16.9916 1.94406 16.9643 2.07308 16.918 2.19177C16.8717 2.31045 16.8073 2.41648 16.7284 2.5038C14.8788 4.55316 11.8028 5.77631 8.5 5.77631Z" fill="#17A297"/>
<path d="M5.87627 8.61483C5.82628 8.61499 5.77638 8.61067 5.72716 8.60192C5.6139 8.58238 5.50558 8.54054 5.40839 8.47879C5.3112 8.41705 5.22704 8.33662 5.16073 8.24209C5.09443 8.14756 5.04727 8.0408 5.02196 7.9279C4.99665 7.81501 4.99368 7.69819 5.01323 7.58414L5.455 4.99746C5.47447 4.88341 5.51605 4.77435 5.57736 4.6765C5.63868 4.57864 5.71853 4.49391 5.81236 4.42713C5.90619 4.36036 6.01215 4.31285 6.12421 4.28733C6.23626 4.2618 6.35221 4.25876 6.46544 4.27837C6.57866 4.29798 6.68694 4.33986 6.78409 4.40162C6.88125 4.46338 6.96537 4.54381 7.03167 4.63831C7.09796 4.73282 7.14513 4.83955 7.17047 4.95242C7.19581 5.06528 7.19883 5.18207 7.17936 5.29611L6.73759 7.88285C6.70266 8.08752 6.59709 8.27318 6.4395 8.4071C6.28192 8.54102 6.08245 8.61459 5.87627 8.61483Z" fill="#17A297"/>
<path d="M0.986047 7.30499C0.845892 7.30477 0.707834 7.27069 0.583466 7.2056C0.459098 7.14051 0.35205 7.04632 0.271308 6.93093C0.190567 6.81554 0.138491 6.68233 0.11945 6.54247C0.10041 6.40261 0.114962 6.2602 0.161885 6.12718L1.0181 3.7083C1.0567 3.59929 1.11624 3.499 1.19332 3.41317C1.27041 3.32734 1.36352 3.25763 1.46735 3.20804C1.57117 3.15846 1.68368 3.12995 1.79845 3.12415C1.91321 3.11836 2.02799 3.13538 2.13622 3.17427C2.24445 3.21315 2.34402 3.27312 2.42924 3.35075C2.51446 3.42839 2.58366 3.52217 2.63289 3.62675C2.68213 3.73132 2.71043 3.84464 2.71619 3.96023C2.72194 4.07583 2.70503 4.19143 2.66643 4.30044L1.81022 6.71932C1.74955 6.8906 1.63779 7.03882 1.49025 7.14366C1.34272 7.24851 1.16661 7.30486 0.986047 7.30499Z" fill="#17A297"/>
<path d="M11.3162 8.61483C11.1101 8.61459 10.9106 8.54102 10.753 8.4071C10.5954 8.27317 10.4898 8.08751 10.4549 7.88284L10.0131 5.29611C9.97383 5.06579 10.027 4.82918 10.1608 4.63831C10.2947 4.44745 10.4984 4.31798 10.7271 4.27837C10.9557 4.23877 11.1907 4.29228 11.3802 4.42714C11.5696 4.56199 11.6982 4.76714 11.7375 4.99746L12.1793 7.58418C12.1988 7.69823 12.1959 7.81504 12.1705 7.92793C12.1452 8.04082 12.0981 8.14758 12.0318 8.24211C11.9655 8.33663 11.8813 8.41706 11.7841 8.4788C11.6869 8.54054 11.5786 8.58238 11.4654 8.60192C11.4161 8.61067 11.3662 8.61499 11.3162 8.61483Z" fill="#17A297"/>
<path d="M15.6238 7.30496C15.4432 7.30488 15.2671 7.24855 15.1196 7.1437C14.972 7.03885 14.8603 6.8906 14.7996 6.71928L13.9434 4.30043C13.9048 4.19142 13.8879 4.07582 13.8937 3.96023C13.8994 3.84464 13.9277 3.73132 13.977 3.62674C14.0764 3.41555 14.2551 3.25278 14.4736 3.17426C14.6922 3.09574 14.9328 3.1079 15.1425 3.20805C15.3522 3.3082 15.5138 3.48815 15.5918 3.7083L16.448 6.12718C16.4949 6.2602 16.5095 6.40262 16.4904 6.54247C16.4714 6.68233 16.4193 6.81554 16.3386 6.93093C16.2578 7.04632 16.1508 7.14051 16.0264 7.2056C15.902 7.27069 15.764 7.30477 15.6238 7.30499L15.6238 7.30496Z" fill="#17A297"/>
</svg>
