<svg width="13" height="13" viewBox="0 0 13 13" fill="none" xmlns="http://www.w3.org/2000/svg">
<path d="M6.61438 0.43634C9.91907 0.43634 12.6144 3.13165 12.6144 6.43634C12.6144 9.76447 9.91907 12.4363 6.61438 12.4363C3.28625 12.4363 0.61438 9.76447 0.61438 6.43634C0.61438 3.13165 3.28625 0.43634 6.61438 0.43634ZM6.61438 11.3113C9.28625 11.3113 11.4894 9.13165 11.4894 6.43634C11.4894 3.76447 9.28625 1.56134 6.61438 1.56134C3.91907 1.56134 1.73938 3.76447 1.73938 6.43634C1.73938 9.13165 3.91907 11.3113 6.61438 11.3113ZM6.61438 7.56134C6.28625 7.56134 6.05188 7.32697 6.05188 6.99884V3.99884C6.05188 3.69415 6.28625 3.43634 6.61438 3.43634C6.91907 3.43634 7.17688 3.69415 7.17688 3.99884V6.99884C7.17688 7.32697 6.91907 7.56134 6.61438 7.56134ZM6.61438 8.35822C7.01282 8.35822 7.34094 8.68634 7.34094 9.08478C7.34094 9.48322 7.01282 9.81134 6.61438 9.81134C6.1925 9.81134 5.86438 9.48322 5.86438 9.08478C5.86438 8.68634 6.1925 8.35822 6.61438 8.35822Z" fill="#7373DC"/>
</svg>
