<svg width="20" height="21" viewBox="0 0 20 21" fill="none" xmlns="http://www.w3.org/2000/svg">
<path d="M15.1552 7.41828V5.03666C15.4699 4.88956 15.7364 4.6561 15.9236 4.36344C16.1108 4.07079 16.211 3.73098 16.2126 3.38358V3.32893C16.2126 2.31602 15.3915 1.49488 14.3787 1.49488H14.3239C13.311 1.49488 12.4899 2.31602 12.4899 3.32893V3.38358C12.4915 3.73098 12.5917 4.07079 12.7789 4.36344C12.9661 4.6561 13.2326 4.88956 13.5474 5.03666V7.41828C12.6428 7.55681 11.7909 7.93189 11.0779 8.50554L4.54614 3.41796C4.59272 3.24983 4.61701 3.07693 4.61976 2.90339C4.62055 2.49465 4.50011 2.09485 4.27366 1.75457C4.04721 1.41429 3.72493 1.14881 3.34758 0.991716C2.97023 0.834622 2.55477 0.79297 2.15374 0.872029C1.75272 0.951088 1.38415 1.1473 1.09465 1.43586C0.805159 1.72442 0.607747 2.09235 0.527389 2.49311C0.44703 2.89388 0.487334 3.30948 0.643203 3.68733C0.799073 4.06519 1.0635 4.38833 1.40305 4.61589C1.7426 4.84344 2.142 4.96518 2.55074 4.96571C2.90832 4.96402 3.2592 4.86856 3.56834 4.68885L10.0003 9.69385C8.81776 11.4802 8.8494 13.8083 10.0799 15.562L8.12367 17.5188C7.96547 17.4682 7.8008 17.4414 7.63477 17.4391C6.69789 17.4399 5.93891 18.1997 5.93915 19.1366C5.93939 20.0734 6.69886 20.8328 7.63566 20.833C8.57254 20.8333 9.33232 20.0743 9.33313 19.1374C9.33092 18.9714 9.30405 18.8067 9.25338 18.6486L11.1887 16.7126C12.9178 18.0438 15.2928 18.1585 17.1422 17.0001C18.9916 15.8416 19.925 13.6547 19.4818 11.518C19.0387 9.38116 17.3127 7.74575 15.1552 7.4182V7.41828ZM14.353 15.2513C13.9955 15.2609 13.6396 15.1988 13.3065 15.0686C12.9734 14.9384 12.6697 14.7428 12.4134 14.4934C12.1571 14.2439 11.9534 13.9456 11.8144 13.6161C11.6753 13.2866 11.6036 12.9325 11.6036 12.5749C11.6036 12.2172 11.6753 11.8632 11.8144 11.5337C11.9534 11.2042 12.1571 10.9059 12.4134 10.6564C12.6697 10.4069 12.9734 10.2113 13.3065 10.0811C13.6396 9.95096 13.9955 9.88885 14.353 9.89847C15.7938 9.94892 16.9359 11.1312 16.9367 12.5729C16.9374 14.0145 15.7964 15.198 14.3557 15.2499" fill="#FF704D"/>
</svg>
