<svg width="21" height="21" viewBox="0 0 21 21" fill="none" xmlns="http://www.w3.org/2000/svg">
<g clip-path="url(#clip0_7473_82625)">
<path d="M17.3088 10.9081H15.3511C15.0847 10.9081 14.8267 10.9445 14.5812 11.0114C14.0969 10.0594 13.1081 9.40527 11.9688 9.40527H8.50825C7.36892 9.40527 6.38017 10.0594 5.89587 11.0114C5.65036 10.9445 5.39239 10.9081 5.12595 10.9081H3.16821C1.55278 10.9081 0.238525 12.2223 0.238525 13.8378V16.9674C0.238525 17.9366 1.02708 18.7252 1.99634 18.7252H18.4807C19.45 18.7252 20.2385 17.9366 20.2385 16.9674V13.8378C20.2385 12.2223 18.9243 10.9081 17.3088 10.9081ZM5.57856 12.335V17.5534H1.99634C1.67325 17.5534 1.4104 17.2905 1.4104 16.9674V13.8378C1.4104 12.8686 2.19896 12.08 3.16821 12.08H5.12595C5.28501 12.08 5.43903 12.1016 5.58567 12.1414C5.58145 12.2055 5.57856 12.27 5.57856 12.335ZM13.7266 17.5534H6.75044V12.335C6.75044 11.3657 7.53899 10.5772 8.50825 10.5772H11.9688C12.9381 10.5772 13.7266 11.3657 13.7266 12.335V17.5534ZM19.0667 16.9674C19.0667 17.2905 18.8038 17.5534 18.4807 17.5534H14.8985V12.335C14.8985 12.2699 14.8956 12.2054 14.8914 12.1414C15.038 12.1016 15.192 12.08 15.3511 12.08H17.3088C18.2781 12.08 19.0667 12.8685 19.0667 13.8378V16.9674Z" fill="#17A297"/>
<path d="M4.14706 5.375C2.71155 5.375 1.5437 6.54285 1.5437 7.97836C1.54366 9.41387 2.71155 10.5817 4.14706 10.5817C5.58253 10.5817 6.75042 9.41387 6.75042 7.97836C6.75042 6.54285 5.58257 5.375 4.14706 5.375ZM4.14702 9.40984C3.35769 9.40984 2.71554 8.7677 2.71554 7.97836C2.71554 7.18902 3.35769 6.54688 4.14702 6.54688C4.93636 6.54688 5.57851 7.18902 5.57851 7.97836C5.57851 8.7677 4.93636 9.40984 4.14702 9.40984Z" fill="#17A297"/>
<path d="M10.2385 2.1416C8.32073 2.1416 6.7605 3.70184 6.7605 5.61965C6.7605 7.53746 8.32073 9.09769 10.2385 9.09769C12.1564 9.09769 13.7166 7.53746 13.7166 5.61965C13.7166 3.70187 12.1564 2.1416 10.2385 2.1416ZM10.2385 7.92582C8.9669 7.92582 7.93237 6.89129 7.93237 5.61965C7.93237 4.34805 8.9669 3.31348 10.2385 3.31348C11.5102 3.31348 12.5447 4.34801 12.5447 5.61965C12.5447 6.89129 11.5102 7.92582 10.2385 7.92582Z" fill="#17A297"/>
<path d="M16.3299 5.375C14.8945 5.375 13.7266 6.54285 13.7266 7.97836C13.7266 9.41387 14.8945 10.5817 16.3299 10.5817C17.7654 10.5817 18.9333 9.41387 18.9333 7.97836C18.9333 6.54285 17.7654 5.375 16.3299 5.375ZM16.3299 9.40984C15.5406 9.40984 14.8984 8.7677 14.8984 7.97836C14.8985 7.18902 15.5406 6.54688 16.3299 6.54688C17.1193 6.54688 17.7614 7.18902 17.7614 7.97836C17.7614 8.7677 17.1193 9.40984 16.3299 9.40984Z" fill="#17A297"/>
</g>
<defs>
<clipPath id="clip0_7473_82625">
<rect width="20" height="20" fill="white" transform="translate(0.238525 0.433594)"/>
</clipPath>
</defs>
</svg>
