<svg width="210" height="36" viewBox="0 0 210 36" fill="none" xmlns="http://www.w3.org/2000/svg">
<g opacity="0.77" clip-path="url(#clip0_17524_194783)">
<path d="M58.8106 0.0847168H55.4258C55.4258 9.4917 63.3274 17.1187 73.0764 17.1187V13.8521C65.1972 13.8521 58.8106 7.68857 58.8106 0.0847168Z" fill="#161515"/>
<path d="M55.4258 35.0847H58.3276C58.3276 27.224 64.9311 20.8513 73.0764 20.8513V18.0508C63.3288 18.0508 55.4258 25.6764 55.4258 35.0847Z" fill="#161515"/>
<path d="M36.8079 20.3852C45.2206 20.3852 52.0409 26.9672 52.0409 35.0861H54.4585C54.4585 25.6791 46.5568 18.0521 36.8079 18.0521V20.3852Z" fill="#161515"/>
<path d="M36.8079 15.2517C28.1276 15.2517 21.0918 8.46173 21.0918 0.0847168H19.1573C19.1573 9.4917 27.0589 17.1187 36.8079 17.1187V15.2517Z" fill="#161515"/>
<path d="M16.7397 0.0847328C16.7397 8.71856 9.48716 15.7177 0.540771 15.7177V17.1173C10.2883 17.1173 18.1914 9.49171 18.1914 0.083374H16.7411L16.7397 0.0847328Z" fill="#161515"/>
<path d="M0.540771 18.9856C9.75468 18.9856 17.2241 26.1941 17.2241 35.0861H18.1914C18.1914 25.6791 10.2897 18.0521 0.540771 18.0521V18.9856Z" fill="#161515"/>
<path d="M125.09 10.394C123.961 10.394 122.95 10.6929 122.086 11.2826C121.218 11.8737 120.54 12.6822 120.068 13.6823L119.982 13.8643L119.902 13.6795C119.468 12.6795 118.79 11.8723 117.887 11.2826C116.983 10.6929 115.953 10.3926 114.823 10.3926C112.942 10.3926 111.434 11.2038 110.342 12.8031L110.176 13.0463V10.6711H108.77V24.4956H110.176V16.5398C110.176 15.1701 110.601 14.0029 111.439 13.0722C112.279 12.1387 113.351 11.6644 114.622 11.6644C115.893 11.6644 116.968 12.1332 117.82 13.0572C118.667 13.9785 119.097 15.1498 119.097 16.5385V24.4942H120.502V16.5385C120.502 15.1688 120.931 14.0016 121.779 13.0708C122.629 12.1373 123.705 11.6631 124.976 11.6631C126.248 11.6631 127.324 12.1359 128.174 13.0708C129.022 14.0016 129.451 15.1674 129.451 16.5385V24.4942H130.856V16.427C130.856 14.7136 130.301 13.2637 129.207 12.1169C128.115 10.9728 126.731 10.3912 125.092 10.3912L125.09 10.394Z" fill="#161515"/>
<path d="M143.997 11.2051C142.956 10.667 141.788 10.3939 140.521 10.3939C138.441 10.3939 136.677 11.0869 135.279 12.4552C133.879 13.8235 133.171 15.5533 133.171 17.5983C133.171 19.6433 133.881 21.3459 135.279 22.7142C136.677 24.0825 138.441 24.7755 140.521 24.7755C141.786 24.7755 142.956 24.5024 143.997 23.9643C145.036 23.4262 145.888 22.6734 146.531 21.725L146.698 21.479V24.4969H148.103V10.6725H146.698V13.6904L146.531 13.4444C145.889 12.496 145.036 11.7432 143.997 11.2051ZM146.698 17.5996C146.698 19.2669 146.112 20.6828 144.956 21.8092C143.8 22.9343 142.347 23.505 140.638 23.505C138.928 23.505 137.475 22.9343 136.319 21.8092C135.163 20.6841 134.578 19.2682 134.578 17.5996C134.578 15.931 135.163 14.5111 136.319 13.3778C137.475 12.2432 138.928 11.6671 140.638 11.6671C142.347 11.6671 143.8 12.2419 144.956 13.3765C146.112 14.5111 146.698 15.9324 146.698 17.5983V17.5996Z" fill="#161515"/>
<path d="M169.221 5.35683C168.937 5.35683 168.702 5.44787 168.506 5.63674C168.31 5.82561 168.214 6.05117 168.214 6.32701C168.214 6.60285 168.309 6.82841 168.505 7.01592C168.7 7.2048 168.934 7.2972 169.218 7.2972C169.503 7.2972 169.738 7.2048 169.932 7.01592C170.128 6.82705 170.222 6.60149 170.222 6.32565C170.222 6.04982 170.128 5.82561 169.931 5.63538C169.735 5.44651 169.501 5.35547 169.217 5.35547L169.221 5.35683Z" fill="#161515"/>
<path d="M169.938 10.6725H168.533V24.4969H169.938V10.6725Z" fill="#161515"/>
<path d="M179.605 10.3939C177.437 10.3939 175.735 11.2513 174.546 12.9444L174.38 13.1808V10.6725H172.975V24.4969H174.38V16.5411C174.38 15.1687 174.864 14.0015 175.819 13.0694C176.774 12.1386 177.98 11.6658 179.402 11.6658C180.824 11.6658 182.059 12.1386 183.014 13.0694C183.969 14.0015 184.453 15.1687 184.453 16.5411V24.4969H185.858V16.4297C185.858 14.7176 185.255 13.2678 184.067 12.1223C182.879 10.9755 181.378 10.3939 179.604 10.3939H179.605Z" fill="#161515"/>
<path d="M98.9595 10.394C96.8799 10.394 95.1213 11.0869 93.7316 12.4553C92.3419 13.8236 91.6379 15.5547 91.6379 17.5983C91.6379 19.642 92.3574 21.3445 93.7739 22.7128C95.1917 24.0812 96.9841 24.7741 99.1031 24.7741C100.655 24.7741 102.05 24.391 103.25 23.6328C104.033 23.1395 104.697 22.524 105.225 21.8024L104.138 21.0673C103.696 21.6924 103.136 22.221 102.47 22.6381C101.498 23.2482 100.375 23.5567 99.1327 23.5567C97.4811 23.5567 96.0633 23.024 94.9172 21.9737C93.7711 20.9247 93.1304 19.5944 93.015 18.0195L93.0079 17.9258H106.285C106.359 15.7898 105.693 13.9853 104.303 12.5626C102.895 11.1223 101.097 10.3912 98.9609 10.3912L98.9595 10.394ZM104.86 16.7681H93.0586L93.0727 16.6689C93.2867 15.2068 93.9456 13.9907 95.034 13.0531C96.1224 12.1156 97.4431 11.6386 98.9595 11.6386C100.476 11.6386 101.825 12.1237 102.915 13.0803C104.002 14.0369 104.652 15.2435 104.846 16.6689L104.86 16.7681Z" fill="#161515"/>
<path d="M195.525 10.394C193.446 10.394 191.687 11.0869 190.297 12.4553C188.908 13.8236 188.204 15.5547 188.204 17.5983C188.204 19.642 188.923 21.3445 190.34 22.7128C191.758 24.0812 193.55 24.7741 195.669 24.7741C197.221 24.7741 198.616 24.391 199.815 23.6328C200.598 23.1395 201.263 22.524 201.791 21.8024L200.704 21.0673C200.262 21.6924 199.701 22.221 199.035 22.6381C198.064 23.2482 196.94 23.5567 195.698 23.5567C194.047 23.5567 192.629 23.024 191.483 21.9737C190.337 20.9247 189.696 19.5944 189.581 18.0195L189.574 17.9258H202.851C202.924 15.7898 202.258 13.9853 200.869 12.5626C199.461 11.1223 197.663 10.3912 195.527 10.3912L195.525 10.394ZM201.426 16.7681H189.624L189.638 16.6689C189.853 15.2068 190.511 13.9907 191.6 13.0531C192.688 12.1156 194.009 11.6386 195.525 11.6386C197.042 11.6386 198.391 12.1237 199.48 13.0803C200.567 14.0369 201.218 15.2435 201.412 16.6689L201.426 16.7681Z" fill="#161515"/>
<path d="M161.39 11.2051C160.349 10.667 159.181 10.3939 157.914 10.3939C155.834 10.3939 154.07 11.0869 152.672 12.4552C151.272 13.8235 150.564 15.5356 150.564 17.5426C150.564 19.5495 151.273 21.2901 152.672 22.6585C154.07 24.0268 155.834 24.7198 157.914 24.7198C159.181 24.7198 160.351 24.4466 161.39 23.9086C162.429 23.3705 163.281 22.6177 163.924 21.6693L164.09 21.4233V23.1639C164.09 24.8312 163.499 26.2525 162.333 27.3871C161.167 28.5217 159.71 29.0965 158.001 29.0965C156.758 29.0965 155.64 28.7826 154.677 28.163C154.025 27.7431 153.474 27.2132 153.036 26.5868L151.896 27.3572C152.421 28.0814 153.084 28.701 153.868 29.1997C155.06 29.9566 156.449 30.3398 158.001 30.3398C160.12 30.3398 161.917 29.6454 163.344 28.2771C164.772 26.9088 165.496 25.1885 165.496 23.1626V10.6725H164.09V13.6904L163.924 13.4444C163.282 12.496 162.429 11.7432 161.39 11.2051ZM164.09 17.5439C164.09 19.2112 163.505 20.6271 162.347 21.7535C161.191 22.8786 159.738 23.4493 158.029 23.4493C156.32 23.4493 154.867 22.8786 153.711 21.7535C152.555 20.6284 151.969 19.2125 151.969 17.5439C151.969 15.8753 152.555 14.488 153.711 13.3629C154.867 12.2378 156.32 11.6671 158.029 11.6671C159.738 11.6671 161.19 12.2324 162.347 13.3493C163.503 14.4649 164.09 15.8767 164.09 17.5439Z" fill="#161515"/>
</g>
<defs>
<clipPath id="clip0_17524_194783">
<rect width="209.125" height="35" fill="white" transform="translate(0.540771 0.0847168)"/>
</clipPath>
</defs>
</svg>
