<svg width="397" height="43" viewBox="0 0 397 43" fill="none" xmlns="http://www.w3.org/2000/svg">
<path d="M14.1079 0.625C22.9871 0.625 28.2667 5.55723 28.2667 13.8435C28.2667 22.1298 22.9901 27.065 14.1079 27.065H5.03405V42.3079H0V0.625H14.1079ZM13.8084 22.6748C19.7289 22.6748 23.1309 19.6801 23.1309 13.8435C23.1309 8.00688 19.7289 5.01519 13.8084 5.01519H5.03405V22.6838L13.8084 22.6748ZM39.0116 15.7661C41.0839 11.7203 44.2942 10.3906 49.2265 10.5404V15.224C42.2698 15.224 38.8679 18.036 38.8679 24.0044V42.3079H33.9357V11.0375H38.7271V15.7721L39.0116 15.7661ZM55.4404 17.5928C55.4404 12.1665 58.7346 10.4056 64.1729 10.5404V14.8287C61.2621 14.8287 60.3727 15.817 60.3727 18.4224V21.3302C60.4381 21.9484 60.378 22.5735 60.1959 23.1679C60.0138 23.7623 59.7135 24.3138 59.313 24.7892C58.9125 25.2647 58.42 25.6543 57.8652 25.9347C57.3104 26.2152 56.7046 26.3806 56.0843 26.4211V26.9152C56.7045 26.9562 57.31 27.1219 57.8646 27.4025C58.4193 27.683 58.9116 28.0727 59.312 28.548C59.7124 29.0234 60.0127 29.5747 60.195 30.1689C60.3773 30.7632 60.4377 31.3881 60.3727 32.0062V34.917C60.3727 37.5284 61.2711 38.5106 64.1729 38.5106V42.805C58.7465 42.9487 55.4404 41.1729 55.4404 35.7465V32.7878C55.4404 30.0776 54.3084 29.1403 51.5473 29.1403V24.2141C54.3114 24.2141 55.4404 23.2737 55.4404 20.5635V17.5928ZM79.9578 20.5546C79.9578 23.2647 81.0898 24.2051 83.8509 24.2051V29.1373C81.0868 29.1373 79.9578 30.0716 79.9578 32.7848V35.7436C79.9578 41.1699 76.6637 42.9308 71.2253 42.802V38.5166C74.1362 38.5166 75.0256 37.5284 75.0256 34.923V32.0122C74.9606 31.394 75.021 30.7691 75.2032 30.1749C75.3855 29.5807 75.6858 29.0294 76.0863 28.554C76.4867 28.0786 76.979 27.689 77.5336 27.4084C78.0882 27.1279 78.6938 26.9622 79.314 26.9212V26.4271C78.6938 26.3862 78.0882 26.2205 77.5336 25.9399C76.979 25.6594 76.4867 25.2697 76.0863 24.7943C75.6858 24.319 75.3855 23.7677 75.2032 23.1734C75.021 22.5792 74.9606 21.9543 75.0256 21.3362V18.4283C75.0256 15.814 74.1272 14.8347 71.2253 14.8347V10.5493C76.6517 10.3996 79.9578 12.1755 79.9578 17.6018V20.5546ZM103.149 0.625C115.975 0.625 122.979 8.51597 122.979 21.444C122.979 34.372 115.975 42.3109 103.149 42.3109H90.2715V0.625H103.149ZM102.951 37.9177C112.815 37.9177 117.849 31.8475 117.849 21.447C117.849 11.0465 112.815 5.01819 102.951 5.01819H95.3025V37.9237L102.951 37.9177ZM152.477 21.3901V42.3079H147.739V37.5793H147.44C146.58 39.3449 145.202 40.8059 143.489 41.7666C141.777 42.7272 139.812 43.1418 137.857 42.9547C131.299 42.9547 127.396 39.7025 127.396 33.83C127.396 27.5681 132.131 25.2472 139.534 24.262L142.529 23.8697C145.586 23.4714 147.557 23.4714 147.557 21.5009C147.677 20.5937 147.585 19.671 147.29 18.8049C146.994 17.9389 146.503 17.1528 145.854 16.508C145.204 15.8633 144.415 15.3773 143.546 15.0881C142.678 14.7989 141.755 14.7142 140.849 14.8407C139.182 14.7372 137.522 15.1391 136.088 15.994C134.653 16.8489 133.51 18.117 132.808 19.6322L128.418 17.9582C129.504 15.563 131.307 13.5645 133.579 12.2389C135.85 10.9133 138.477 10.326 141.097 10.5583C148.281 10.5494 152.474 13.9992 152.474 21.3961L152.477 21.3901ZM147.593 26.6188C146.203 27.3595 144.672 27.7973 143.101 27.9035L140.106 28.2988C135.314 28.9426 132.41 29.9249 132.41 33.6892C132.41 37.2828 135.317 38.7802 138.821 38.7802C139.921 38.8443 141.023 38.6889 142.062 38.3229C143.102 37.957 144.058 37.3879 144.875 36.6487C145.692 35.9095 146.354 35.0151 146.822 34.0175C147.29 33.02 147.555 31.9392 147.602 30.8383L147.593 26.6188ZM172.85 38.2112L173.79 42.1611C172.215 42.5952 170.588 42.8119 168.954 42.805C167.967 42.9185 166.968 42.8077 166.031 42.4808C165.094 42.154 164.243 41.6196 163.541 40.9176C162.839 40.2155 162.305 39.364 161.978 38.4266C161.652 37.4891 161.542 36.4901 161.656 35.504V14.8407H156.921V11.0375H161.656V3.5508H166.537V11.0375H173.248V14.8377H166.534V35.0129C166.534 37.5793 167.771 38.5136 169.828 38.5136C170.842 38.5305 171.855 38.431 172.847 38.2172L172.85 38.2112ZM202.054 21.3901V42.3079H197.319V37.5793H197.02C196.162 39.3429 194.786 40.8026 193.076 41.7632C191.366 42.7238 189.404 43.1395 187.452 42.9547C180.887 42.9547 176.991 39.7025 176.991 33.83C176.991 27.5681 181.726 25.2472 189.126 24.262L192.12 23.8697C195.181 23.4714 197.154 23.4714 197.154 21.5009C197.274 20.5937 197.183 19.671 196.888 18.8049C196.592 17.9389 196.101 17.1528 195.451 16.508C194.802 15.8633 194.012 15.3773 193.144 15.0881C192.276 14.7989 191.353 14.7142 190.446 14.8407C188.78 14.7372 187.12 15.1391 185.686 15.994C184.251 16.8489 183.108 18.117 182.406 19.6322L178.015 17.9582C179.101 15.5633 180.904 13.5648 183.175 12.2392C185.446 10.9136 188.073 10.3262 190.692 10.5583C197.858 10.5494 202.054 13.9992 202.054 21.3961V21.3901ZM197.169 26.6188C195.779 27.3586 194.248 27.7964 192.677 27.9035L189.665 28.2988C184.873 28.9426 181.974 29.9249 181.974 33.6892C181.974 37.2828 184.882 38.7802 188.386 38.7802C189.486 38.8439 190.588 38.6882 191.627 38.3221C192.666 37.956 193.622 37.3868 194.439 36.6477C195.256 35.9086 195.918 35.0144 196.386 34.017C196.855 33.0196 197.12 31.9391 197.166 30.8383L197.169 26.6188Z" fill="white"/>
<path d="M210.312 21.4493C210.312 8.82078 216.973 0.0404031 228.17 0.0404031C232.036 -0.244596 235.861 0.986393 238.835 3.47269C241.81 5.95898 243.699 9.50535 244.104 13.3607L241.688 13.753C241.359 10.4605 239.767 7.42364 237.246 5.27996C234.725 3.13629 231.472 2.05262 228.17 2.25647C218.449 2.25647 212.975 10.3421 212.975 21.4463C212.975 32.5506 218.449 40.6811 228.17 40.6811C231.471 40.8851 234.724 39.8022 237.244 37.6598C239.765 35.5174 241.357 32.482 241.688 29.1906L244.104 29.5829C243.699 33.438 241.809 36.9838 238.835 39.47C235.86 41.9561 232.036 43.1874 228.17 42.9032C216.973 42.9062 210.312 34.1258 210.312 21.4493ZM249.282 26.7259C249.282 17.0052 254.268 10.5547 262.65 10.5547C271.032 10.5547 276.022 17.0142 276.022 26.7259C276.022 36.4377 271.035 42.8972 262.65 42.8972C254.265 42.8972 249.282 36.4437 249.282 26.7259ZM273.455 26.7259C273.455 18.5834 269.562 12.6689 262.65 12.6689C255.739 12.6689 251.849 18.5864 251.849 26.7259C251.849 34.8655 255.742 40.783 262.65 40.783C269.559 40.783 273.443 34.8655 273.443 26.7259H273.455ZM282.879 42.3132V11.0398H285.245V16.026H285.494C286.405 14.3326 287.767 12.9248 289.43 11.9585C291.092 10.9922 292.99 10.5053 294.912 10.5517C301.623 10.5517 305.471 14.7443 305.471 21.6021V42.3192H303.001V21.7937C303.135 20.6094 303.01 19.41 302.635 18.2788C302.259 17.1477 301.641 16.1119 300.825 15.2435C300.008 14.3752 299.013 13.695 297.907 13.2504C296.801 12.8058 295.611 12.6074 294.421 12.6689C293.198 12.6487 291.984 12.8795 290.855 13.347C289.725 13.8146 288.703 14.509 287.852 15.3873C287.001 16.2656 286.34 17.3091 285.908 18.4532C285.477 19.5974 285.285 20.8179 285.344 22.0393V42.3162L282.879 42.3132ZM311.985 34.9643L314.303 34.4702C314.724 36.4258 315.866 38.1511 317.502 39.3026C319.138 40.454 321.148 40.9473 323.131 40.6841C328.015 40.6841 331.216 38.3663 331.216 34.2246C331.216 30.9305 329 29.0917 325.05 28.0556L320.259 26.8218C315.423 25.588 312.907 23.321 312.907 18.7362C312.907 13.3098 317.791 10.5517 322.825 10.5517C325.149 10.3168 327.479 10.9319 329.383 12.2832C331.288 13.6344 332.638 15.6301 333.184 17.9006L330.863 18.3918C330.418 16.6406 329.366 15.1043 327.894 14.0567C326.422 13.0092 324.626 12.5184 322.825 12.6719C318.187 12.6719 315.375 14.8401 315.375 18.6882C315.375 22.2399 317.249 23.6205 320.903 24.5578L325.694 25.7946C331.067 27.1722 333.684 29.541 333.684 34.1797C333.684 39.7079 329.348 42.8163 323.182 42.8163C316.914 42.8103 313.162 40.2918 311.982 34.9643H311.985ZM340.135 31.76V11.0369H342.602V31.5564C342.468 32.7409 342.593 33.9406 342.968 35.072C343.344 36.2034 343.962 37.2393 344.779 38.1078C345.596 38.9762 346.592 39.6562 347.698 40.1006C348.805 40.545 349.994 40.7431 351.185 40.6811C352.407 40.701 353.621 40.4699 354.751 40.0022C355.88 39.5345 356.902 38.84 357.753 37.9619C358.604 37.0837 359.265 36.0403 359.697 34.8964C360.128 33.7524 360.321 32.5321 360.262 31.3108V11.0398H362.729V42.3162H360.364V37.3301H360.115C359.203 39.0241 357.841 40.4328 356.178 41.4C354.515 42.3673 352.617 42.8554 350.694 42.8103C343.995 42.8103 340.147 38.6178 340.147 31.76H340.135ZM372.348 37.9739V0.63934H374.864V37.8332C374.808 38.2091 374.841 38.593 374.96 38.9539C375.079 39.3149 375.281 39.643 375.549 39.9117C375.818 40.1805 376.146 40.3825 376.507 40.5016C376.868 40.6206 377.252 40.6534 377.628 40.5973C378.544 40.578 379.454 40.4463 380.338 40.205L380.784 42.0767C379.579 42.4951 378.314 42.7126 377.038 42.7205C376.403 42.7797 375.763 42.6969 375.164 42.4783C374.564 42.2597 374.021 41.9106 373.574 41.4563C373.126 41.0021 372.785 40.454 372.575 39.8517C372.365 39.2494 372.292 38.608 372.36 37.9739H372.348ZM386.947 37.2343V13.0133H382.213V11.0369H386.947V3.55016H389.364V11.0369H396.072V13.0133H389.364V37.0366C389.301 37.5094 389.346 37.9904 389.495 38.4433C389.645 38.8962 389.895 39.3093 390.228 39.6513C390.56 39.9933 390.966 40.2554 391.414 40.4177C391.863 40.58 392.343 40.6383 392.817 40.5883C393.948 40.6113 395.076 40.4793 396.171 40.196L396.614 42.0677C395.262 42.5134 393.845 42.731 392.422 42.7115C391.684 42.788 390.939 42.6987 390.241 42.4502C389.542 42.2018 388.908 41.8004 388.384 41.2754C387.861 40.7505 387.461 40.1152 387.215 39.4161C386.968 38.7169 386.881 37.9715 386.959 37.2343H386.947Z" fill="white"/>
</svg>
