<svg width="596" height="71" viewBox="0 0 596 71" fill="none" xmlns="http://www.w3.org/2000/svg">
<path d="M128.915 54.086L134.123 13.6H144.663L139.083 57H118.747L113.849 17.32L108.889 57H88.8627L83.2827 13.6H93.8227L99.0307 54.086L104.053 13.6H123.893L128.915 54.086Z" fill="#4A4E60"/>
<path d="M161.41 24.14C166.99 24.14 171.433 26.1653 174.74 30.216C178.047 34.2667 179.163 39.02 178.088 44.476H154.714C155.293 45.9227 156.223 47.08 157.504 47.948C158.827 48.7747 160.335 49.188 162.03 49.188C165.047 49.188 167.3 47.9893 168.788 45.592L176.848 49.312C175.319 51.8333 173.252 53.8587 170.648 55.388C168.044 56.876 165.068 57.62 161.72 57.62C156.801 57.62 152.668 56.0287 149.32 52.846C146.013 49.622 144.36 45.6333 144.36 40.88C144.36 36.1267 145.993 32.1587 149.258 28.976C152.523 25.752 156.574 24.14 161.41 24.14ZM161.41 32.572C159.963 32.572 158.661 32.9853 157.504 33.812C156.347 34.5973 155.458 35.672 154.838 37.036H168.044C166.845 34.06 164.634 32.572 161.41 32.572Z" fill="#4A4E60"/>
<path d="M193.362 57H183.442V11.12H193.362V57Z" fill="#4A4E60"/>
<path d="M203.267 52.846C199.961 49.622 198.307 45.6333 198.307 40.88C198.307 36.1267 199.961 32.1587 203.267 28.976C206.615 25.752 210.749 24.14 215.667 24.14C219.098 24.14 222.198 25.0493 224.967 26.868C227.737 28.6453 229.803 31.1873 231.167 34.494L222.115 37.594C220.834 34.6593 218.685 33.192 215.667 33.192C213.642 33.192 211.947 33.936 210.583 35.424C209.261 36.8707 208.599 38.6893 208.599 40.88C208.599 43.0707 209.261 44.91 210.583 46.398C211.947 47.8447 213.642 48.568 215.667 48.568C218.685 48.568 220.834 47.1007 222.115 44.166L231.167 47.266C229.803 50.5727 227.737 53.1353 224.967 54.954C222.198 56.7313 219.098 57.62 215.667 57.62C210.749 57.62 206.615 56.0287 203.267 52.846Z" fill="#4A4E60"/>
<path d="M239.232 52.846C235.925 49.622 234.272 45.6333 234.272 40.88C234.272 36.1267 235.925 32.1587 239.232 28.976C242.58 25.752 246.713 24.14 251.632 24.14C256.551 24.14 260.663 25.752 263.97 28.976C267.318 32.1587 268.992 36.1267 268.992 40.88C268.992 45.6333 267.318 49.622 263.97 52.846C260.663 56.0287 256.551 57.62 251.632 57.62C246.713 57.62 242.58 56.0287 239.232 52.846ZM246.548 35.424C245.225 36.8707 244.564 38.6893 244.564 40.88C244.564 43.0707 245.225 44.91 246.548 46.398C247.912 47.8447 249.607 48.568 251.632 48.568C253.657 48.568 255.331 47.8447 256.654 46.398C258.018 44.91 258.7 43.0707 258.7 40.88C258.7 38.6893 258.018 36.8707 256.654 35.424C255.331 33.936 253.657 33.192 251.632 33.192C249.607 33.192 247.912 33.936 246.548 35.424Z" fill="#4A4E60"/>
<path d="M313.019 24.14C316.202 24.14 318.744 25.3593 320.645 27.798C322.588 30.2367 323.559 33.378 323.559 37.222V57H313.639V39.082C313.639 37.346 313.205 35.92 312.337 34.804C311.469 33.688 310.353 33.13 308.989 33.13C307.419 33.13 306.137 33.688 305.145 34.804C304.195 35.8787 303.719 37.3047 303.719 39.082V57H293.799V39.082C293.799 37.346 293.365 35.92 292.497 34.804C291.629 33.688 290.513 33.13 289.149 33.13C287.579 33.13 286.297 33.688 285.305 34.804C284.355 35.8787 283.879 37.3047 283.879 39.082V57H273.959V24.76H283.879V32.386C284.706 29.8233 285.946 27.8187 287.599 26.372C289.294 24.884 291.257 24.14 293.489 24.14C295.887 24.14 297.933 24.884 299.627 26.372C301.322 27.86 302.5 29.8647 303.161 32.386C303.988 29.8233 305.269 27.8187 307.005 26.372C308.741 24.884 310.746 24.14 313.019 24.14Z" fill="#4A4E60"/>
<path d="M345.23 24.14C350.81 24.14 355.254 26.1653 358.56 30.216C361.867 34.2667 362.983 39.02 361.908 44.476H338.534C339.113 45.9227 340.043 47.08 341.324 47.948C342.647 48.7747 344.156 49.188 345.85 49.188C348.868 49.188 351.12 47.9893 352.608 45.592L360.668 49.312C359.139 51.8333 357.072 53.8587 354.468 55.388C351.864 56.876 348.888 57.62 345.54 57.62C340.622 57.62 336.488 56.0287 333.14 52.846C329.834 49.622 328.18 45.6333 328.18 40.88C328.18 36.1267 329.813 32.1587 333.078 28.976C336.344 25.752 340.394 24.14 345.23 24.14ZM345.23 32.572C343.784 32.572 342.482 32.9853 341.324 33.812C340.167 34.5973 339.278 35.672 338.658 37.036H351.864C350.666 34.06 348.454 32.572 345.23 32.572Z" fill="#4A4E60"/>
<path d="M389.57 33.44H383.37V24.76H389.57V16.08L399.49 12.98V24.76H407.24V33.44H399.49V44.6C399.49 47.08 400.73 48.32 403.21 48.32H407.24V57H403.21C394.117 57 389.57 52.66 389.57 43.98V33.44Z" fill="#4A4E60"/>
<path d="M414.697 52.846C411.39 49.622 409.737 45.6333 409.737 40.88C409.737 36.1267 411.39 32.1587 414.697 28.976C418.045 25.752 422.178 24.14 427.097 24.14C432.016 24.14 436.128 25.752 439.435 28.976C442.783 32.1587 444.457 36.1267 444.457 40.88C444.457 45.6333 442.783 49.622 439.435 52.846C436.128 56.0287 432.016 57.62 427.097 57.62C422.178 57.62 418.045 56.0287 414.697 52.846ZM422.013 35.424C420.69 36.8707 420.029 38.6893 420.029 40.88C420.029 43.0707 420.69 44.91 422.013 46.398C423.377 47.8447 425.072 48.568 427.097 48.568C429.122 48.568 430.796 47.8447 432.119 46.398C433.483 44.91 434.165 43.0707 434.165 40.88C434.165 38.6893 433.483 36.8707 432.119 35.424C430.796 33.936 429.122 33.192 427.097 33.192C425.072 33.192 423.377 33.936 422.013 35.424Z" fill="#4A4E60"/>
<path d="M478.552 57H468.012V13.6H487.17C492.254 13.6 496.325 15.026 499.384 17.878C502.443 20.73 503.972 24.3673 503.972 28.79C503.972 33.2127 502.443 36.8087 499.384 39.578C496.325 42.306 492.254 43.67 487.17 43.67H478.552V57ZM478.552 22.9V34.37H487.17C488.947 34.37 490.373 33.8327 491.448 32.758C492.523 31.6833 493.06 30.3193 493.06 28.666C493.06 26.9713 492.523 25.5867 491.448 24.512C490.373 23.4373 488.947 22.9 487.17 22.9H478.552Z" fill="#4A4E60"/>
<path d="M557.27 13.6V57H547.35V16.762L541.77 57H523.108L517.59 16.762V57H507.67V13.6H527.076L532.594 53.838L538.174 13.6H557.27Z" fill="#4A4E60"/>
<path d="M593.535 21.66L583.987 30.712C587.17 31.2907 589.815 32.7373 591.923 35.052C594.031 37.3253 595.085 40.26 595.085 43.856C595.085 47.8653 593.577 51.172 590.559 53.776C587.542 56.3387 583.677 57.62 578.965 57.62C574.212 57.62 570.409 56.4213 567.557 54.024C564.705 51.5853 563.135 48.072 562.845 43.484L573.757 42.244C573.757 44.1453 574.233 45.5713 575.183 46.522C576.134 47.4727 577.415 47.948 579.027 47.948C582.458 47.948 584.173 46.274 584.173 42.926C584.173 41.3967 583.595 40.2187 582.437 39.392C581.28 38.524 579.647 38.09 577.539 38.09H573.075V30.03L580.577 22.9H565.015V13.6H593.535V21.66Z" fill="#4A4E60"/>
<g filter="url(#filter0_d_20648_208046)">
<rect x="10.3828" y="10.293" width="50" height="50.0001" rx="3.58608" fill="#46A690"/>
</g>
<path d="M24.3874 25.3917H20.3659C20.3659 36.9637 29.7538 46.346 41.3363 46.346V42.3277C31.9753 42.3277 24.3874 34.7456 24.3874 25.3917Z" fill="white"/>
<path d="M46.3445 45.7734L50.3659 45.7734C50.3659 34.2014 40.9781 24.8191 29.3955 24.8191L29.3955 28.8375C38.7566 28.8375 46.3445 36.4195 46.3445 45.7734Z" fill="white"/>
<defs>
<filter id="filter0_d_20648_208046" x="0.13687" y="0.0470266" width="70.4919" height="70.492" filterUnits="userSpaceOnUse" color-interpolation-filters="sRGB">
<feFlood flood-opacity="0" result="BackgroundImageFix"/>
<feColorMatrix in="SourceAlpha" type="matrix" values="0 0 0 0 0 0 0 0 0 0 0 0 0 0 0 0 0 0 127 0" result="hardAlpha"/>
<feOffset/>
<feGaussianBlur stdDeviation="5.12297"/>
<feComposite in2="hardAlpha" operator="out"/>
<feColorMatrix type="matrix" values="0 0 0 0 0 0 0 0 0 0 0 0 0 0 0 0 0 0 0.1 0"/>
<feBlend mode="normal" in2="BackgroundImageFix" result="effect1_dropShadow_20648_208046"/>
<feBlend mode="normal" in="SourceGraphic" in2="effect1_dropShadow_20648_208046" result="shape"/>
</filter>
</defs>
</svg>
