<svg width="17" height="17" viewBox="0 0 17 17" fill="none" xmlns="http://www.w3.org/2000/svg">
<path d="M5.35553 13.9625H3.35553C2.79303 13.9625 2.35553 13.525 2.35553 12.9625V4.96252C2.35553 4.43127 2.79303 3.96252 3.35553 3.96252H5.35553C5.88678 3.96252 6.35553 3.52502 6.35553 2.96252C6.35553 2.43127 5.88678 1.96252 5.35553 1.96252H3.35553C1.66803 1.96252 0.35553 3.30627 0.35553 4.96252V12.9625C0.35553 14.65 1.66803 15.9625 3.35553 15.9625H5.35553C5.88678 15.9625 6.35553 15.525 6.35553 14.9625C6.35553 14.4313 5.88678 13.9625 5.35553 13.9625ZM16.043 8.27502L12.043 4.27502C11.668 3.86877 11.0118 3.86877 10.6368 4.27502C10.2305 4.65002 10.2305 5.30627 10.6368 5.68127L12.918 7.96252H6.35553C5.79303 7.96252 5.35553 8.43127 5.35553 8.96252C5.35553 9.52502 5.79303 9.96252 6.35553 9.96252H12.918L10.6368 12.275C10.2305 12.65 10.2305 13.3063 10.6368 13.6813C11.0118 14.0875 11.668 14.0875 12.043 13.6813L16.043 9.68127C16.4493 9.30627 16.4493 8.65002 16.043 8.27502Z" fill="#17A297"/>
</svg>
