<svg width="20" height="20" viewBox="0 0 20 20" fill="none" xmlns="http://www.w3.org/2000/svg">
<path d="M5 0C4.3125 0 3.75 0.5625 3.75 1.25V18.75C3.75 19.4375 4.3125 20 5 20H17.5C18.1875 20 18.75 19.4375 18.75 18.75V5L13.75 0H5Z" fill="#E2E5E7"/>
<path d="M15 5H18.75L13.75 0V3.75C13.75 4.4375 14.3125 5 15 5Z" fill="#B0B7BD"/>
<path d="M18.75 8.75L15 5H18.75V8.75Z" fill="#CAD1D8"/>
<path d="M16.25 16.25C16.25 16.5938 15.9688 16.875 15.625 16.875H1.875C1.53125 16.875 1.25 16.5938 1.25 16.25V10C1.25 9.65625 1.53125 9.375 1.875 9.375H15.625C15.9688 9.375 16.25 9.65625 16.25 10V16.25Z" fill="#50BEE8"/>
<path d="M3.95936 12.8063V14.655C3.95936 14.8757 3.77936 15 3.59999 15C3.43999 15 3.29999 14.8757 3.29999 14.655V11.8419C3.29999 11.5819 3.52061 11.4963 3.59999 11.4963C3.74436 11.4963 3.82936 11.5819 3.91436 11.6769L5.01436 13.1607L6.15311 11.6213C6.31874 11.4169 6.72311 11.4963 6.72311 11.8419V14.655C6.72311 14.8757 6.58311 15 6.42374 15C6.24374 15 6.10374 14.8757 6.10374 14.655V12.8063L5.27374 13.8557C5.09436 14.0763 4.86936 14.0763 4.70436 13.8557L3.95936 12.8063Z" fill="white"/>
<path d="M7.85801 12.2919C7.97301 11.3219 9.43676 11.1475 10.1268 11.6775C10.4668 11.9519 10.1068 12.3869 9.80676 12.1669C9.43676 11.9325 8.59739 11.8225 8.49239 12.3413C8.35739 13.1613 10.5311 12.6919 10.4961 14.0213C10.4611 15.2906 8.62239 15.32 7.93239 14.7506C7.76676 14.6156 7.77239 14.3963 7.86239 14.2606C7.99239 14.1313 8.13676 14.0863 8.30739 14.2263C8.71676 14.5056 9.77176 14.7156 9.84614 14.0056C9.78176 13.2669 7.70301 13.7113 7.85801 12.2919Z" fill="white"/>
<path d="M14.3237 14.6156C13.9687 14.9106 13.5337 15.0356 13.0944 15.0356C12.0444 15.0356 11.3 14.4362 11.3 13.2462C11.3 12.2375 12.085 11.4531 13.1387 11.4531C13.5337 11.4531 13.9681 11.5875 14.2781 11.8925C14.5825 12.1919 14.1431 12.6369 13.8437 12.3725C13.6587 12.1925 13.3987 12.0575 13.1387 12.0575C12.5344 12.0575 11.95 12.5419 11.95 13.2462C11.95 13.9862 12.4394 14.4362 13.0944 14.4362C13.3987 14.4362 13.6587 14.3456 13.8437 14.2113V13.5969H13.0944C12.6494 13.5969 12.6944 12.9869 13.0944 12.9869H14.0937C14.2787 12.9869 14.4481 13.1269 14.4481 13.2819V14.3462C14.4481 14.4362 14.4087 14.52 14.3237 14.6156Z" fill="white"/>
<path d="M15.625 16.875H3.75V17.5H15.625C15.9688 17.5 16.25 17.2188 16.25 16.875V16.25C16.25 16.5938 15.9688 16.875 15.625 16.875Z" fill="#CAD1D8"/>
</svg>
