<svg width="12" height="12" viewBox="0 0 12 12" fill="none" xmlns="http://www.w3.org/2000/svg">
<path d="M6.14404 0.469357C3.14561 0.469357 0.738419 2.89766 0.738419 5.87498C0.738419 8.87341 3.14561 11.2806 6.14404 11.2806C9.12136 11.2806 11.5497 8.87341 11.5497 5.87498C11.5497 2.89766 9.12136 0.469357 6.14404 0.469357ZM5.63727 3.67895C5.63727 3.40444 5.84842 3.17217 6.14404 3.17217C6.41855 3.17217 6.65082 3.40444 6.65082 3.67895V6.38176C6.65082 6.67738 6.41855 6.88854 6.14404 6.88854C5.84842 6.88854 5.63727 6.67738 5.63727 6.38176V3.67895ZM6.14404 8.91564C5.76396 8.91564 5.46834 8.62002 5.46834 8.26106C5.46834 7.90209 5.76396 7.60647 6.14404 7.60647C6.50301 7.60647 6.79863 7.90209 6.79863 8.26106C6.79863 8.62002 6.50301 8.91564 6.14404 8.91564Z" fill="#FAAD19"/>
</svg>
