<svg width="15" height="21" viewBox="0 0 15 21" fill="none" xmlns="http://www.w3.org/2000/svg">
<path d="M14.2578 4.17188L11.3281 1.24219C10.8594 0.773438 10.2344 0.5 9.57031 0.5H2.5C1.09375 0.5 0 1.63281 0 3V18C0 19.4062 1.09375 20.5 2.5 20.5H12.5C13.8672 20.5 15 19.4062 15 18V5.92969C15 5.26562 14.7266 4.64062 14.2578 4.17188ZM13.125 18C13.125 18.3516 12.8125 18.625 12.5 18.625H2.5C2.14844 18.625 1.875 18.3516 1.875 18V3.03906C1.875 2.6875 2.14844 2.41406 2.5 2.41406H8.75V5.5C8.75 6.20312 9.29688 6.75 10 6.75H13.0859V18H13.125ZM8.94531 9.64062L7.5 11.4766L6.01562 9.64062C5.70312 9.21094 5.11719 9.13281 4.72656 9.48438C4.29688 9.79688 4.21875 10.3828 4.57031 10.7734L6.28906 13L4.57031 15.2656C4.21875 15.6562 4.29688 16.2422 4.72656 16.5547C4.88281 16.7109 5.07812 16.75 5.27344 16.75C5.54688 16.75 5.82031 16.6328 6.01562 16.3984L7.5 14.5625L8.94531 16.3984C9.10156 16.6328 9.375 16.75 9.6875 16.75C9.88281 16.75 10.0781 16.7109 10.2344 16.5547C10.6641 16.2422 10.7422 15.6562 10.3906 15.2656L8.67188 13L10.3906 10.7734C10.7422 10.3828 10.6641 9.79688 10.2344 9.48438C9.84375 9.13281 9.25781 9.21094 8.94531 9.64062Z" fill="#B6B4B2"/>
</svg>
