<svg width="34" height="33" viewBox="0 0 34 33" fill="none" xmlns="http://www.w3.org/2000/svg">
<path d="M32.5 1.5C31.875 0.875 30.9375 0.875 30.375 1.5L25.6875 6.125C23.375 4.1875 20.3125 3 17 3C9.25 3 3 9.3125 3 17C3 20.375 4.125 23.375 6.0625 25.8125L1.4375 30.4375C0.8125 31.0625 0.8125 32 1.4375 32.5625C1.6875 32.875 2.0625 33 2.5 33C2.875 33 3.25 32.875 3.5 32.5625L8.1875 27.9375C10.5625 29.875 13.625 31 17 31C24.6875 31 31 24.75 31 17C31 13.6875 29.8125 10.625 27.875 8.25L32.5 3.625C33.125 3 33.125 2.0625 32.5 1.5ZM6 17C6 10.9375 10.875 6 17 6C19.4375 6 21.75 6.875 23.625 8.25L8.1875 23.6875C6.8125 21.8125 6 19.5 6 17ZM28 17C28 23.125 23.0625 28 17 28C14.5 28 12.1875 27.1875 10.3125 25.8125L25.75 10.375C27.125 12.25 28 14.5625 28 17Z" fill="#B6B4B2"/>
</svg>
