<svg width="18" height="16" viewBox="0 0 18 16" fill="none" xmlns="http://www.w3.org/2000/svg">
<path d="M1.96875 14.5H8.875C9.25 15.0938 9.71875 15.5938 10.2812 16C10.1875 16 10.0938 16 10 16H2C0.875 16 0 15.125 0 14V2C0 0.90625 0.875 0 2 0H7.15625C7.6875 0 8.1875 0.21875 8.5625 0.59375L11.4062 3.4375C11.7812 3.8125 12 4.3125 12 4.84375V6.21875C11.4375 6.375 10.9375 6.59375 10.5 6.90625V5H8C7.4375 5 7 4.5625 7 4V1.5H2C1.71875 1.5 1.5 1.75 1.5 2V14C1.5 14.2812 1.71875 14.5 2 14.5H1.96875ZM18 11.5C18 14 15.9688 16 13.5 16C11 16 8.96875 14 8.96875 11.5C8.96875 9.03125 11 7 13.5 7C15.9688 7 18 9.03125 18 11.5ZM14.875 10.1562L13 12.0625L12.0938 11.1562C11.9062 10.9688 11.5625 10.9688 11.375 11.1562C11.1875 11.3438 11.1875 11.6875 11.375 11.875L12.625 13.125C12.8125 13.3125 13.1562 13.3125 13.3438 13.125L15.5938 10.875C15.7812 10.6875 15.7812 10.3438 15.5938 10.1562C15.4062 9.96875 15.0625 9.96875 14.875 10.1562Z" fill="#B6B4B2"/>
</svg>
