<svg width="12" height="16" viewBox="0 0 12 16" fill="none" xmlns="http://www.w3.org/2000/svg">
<path d="M10 14.5C10.25 14.5 10.5 14.2812 10.5 14V13H12V14C12 15.125 11.0938 16 10 16H2C0.875 16 0 15.125 0 14V13H1.5V14C1.5 14.2812 1.71875 14.5 2 14.5H10ZM8 5C7.4375 5 7 4.5625 7 4V1.5H2C1.71875 1.5 1.5 1.75 1.5 2V6H0V2C0 0.90625 0.875 0 2 0H7.15625C7.6875 0 8.1875 0.21875 8.5625 0.59375L11.4062 3.4375C11.7812 3.8125 12 4.3125 12 4.84375V6H10.5V5H8ZM2.75 7C3.6875 7 4.5 7.8125 4.5 8.75C4.5 9.71875 3.6875 10.5 2.75 10.5H2.5V11.5C2.5 11.7812 2.25 12 2 12C1.71875 12 1.5 11.7812 1.5 11.5V7.5C1.5 7.25 1.71875 7 2 7H2.75ZM3.5 8.75C3.5 8.34375 3.15625 8 2.75 8H2.5V9.5H2.75C3.15625 9.5 3.5 9.1875 3.5 8.75ZM5 7.5C5 7.25 5.21875 7 5.5 7H6.25C7.0625 7 7.75 7.6875 7.75 8.5V10.5C7.75 11.3438 7.0625 12 6.25 12H5.5C5.21875 12 5 11.7812 5 11.5V7.5ZM6 11H6.25C6.5 11 6.75 10.7812 6.75 10.5V8.5C6.75 8.25 6.5 8 6.25 8H6V11ZM10.5 7C10.75 7 11 7.25 11 7.5C11 7.78125 10.75 8 10.5 8H9.5V9H10.5C10.75 9 11 9.25 11 9.5C11 9.78125 10.75 10 10.5 10H9.5V11.5C9.5 11.7812 9.25 12 9 12C8.71875 12 8.5 11.7812 8.5 11.5V7.5C8.5 7.25 8.71875 7 9 7H10.5Z" fill="#17A297"/>
</svg>
