<svg width="13" height="17" viewBox="0 0 13 17" fill="none" xmlns="http://www.w3.org/2000/svg">
<path d="M12.0049 2.4592C11.6924 2.1467 11.2236 2.1467 10.9424 2.4592L0.442383 12.9592C0.129883 13.2404 0.129883 13.7092 0.442383 13.9904C0.598633 14.1467 0.786133 14.2092 1.00488 14.2092C1.19238 14.2092 1.37988 14.1467 1.50488 13.9904L12.0049 3.49045C12.3174 3.2092 12.3174 2.74045 12.0049 2.4592ZM2.25488 5.7092C3.06738 5.7092 3.75488 5.05295 3.75488 4.2092C3.75488 3.3967 3.06738 2.7092 2.25488 2.7092C1.41113 2.7092 0.754883 3.3967 0.754883 4.2092C0.754883 5.05295 1.41113 5.7092 2.25488 5.7092ZM10.2549 10.7092C9.41113 10.7092 8.75488 11.3967 8.75488 12.2092C8.75488 13.0529 9.41113 13.7092 10.2549 13.7092C11.0674 13.7092 11.7549 13.0529 11.7549 12.2092C11.7549 11.3967 11.0674 10.7092 10.2549 10.7092Z" fill="#B6B4B2"/>
</svg>
