<svg width="20" height="20" viewBox="0 0 20 20" fill="none" xmlns="http://www.w3.org/2000/svg">
<circle cx="10" cy="10" r="10" fill="#17A297"/>
<path d="M15 10C15 10.4327 14.6394 10.7933 14.2308 10.7933H10.7692V14.2548C10.7692 14.6635 10.4087 15 10 15C9.56731 15 9.23077 14.6635 9.23077 14.2548V10.7933H5.76923C5.33654 10.7933 5 10.4327 5 10C5 9.59135 5.33654 9.25481 5.76923 9.25481H9.23077V5.79327C9.23077 5.36058 9.56731 5 10 5C10.4087 5 10.7692 5.36058 10.7692 5.79327V9.25481H14.2308C14.6394 9.23077 15 9.59135 15 10Z" fill="white"/>
</svg>
