<svg width="20" height="20" viewBox="0 0 20 20" fill="none" xmlns="http://www.w3.org/2000/svg">
<path d="M5 0C4.3125 0 3.75 0.5625 3.75 1.25V18.75C3.75 19.4375 4.3125 20 5 20H17.5C18.1875 20 18.75 19.4375 18.75 18.75V5L13.75 0H5Z" fill="#E2E5E7"/>
<path d="M15 5H18.75L13.75 0V3.75C13.75 4.4375 14.3125 5 15 5Z" fill="#B0B7BD"/>
<path d="M18.75 8.75L15 5H18.75V8.75Z" fill="#CAD1D8"/>
<path d="M16.25 16.25C16.25 16.5938 15.9688 16.875 15.625 16.875H1.875C1.53125 16.875 1.25 16.5938 1.25 16.25V10C1.25 9.65625 1.53125 9.375 1.875 9.375H15.625C15.9688 9.375 16.25 9.65625 16.25 10V16.25Z" fill="#F15642"/>
<path d="M4.11938 11.8419C4.11938 11.6769 4.24938 11.4969 4.45876 11.4969H5.61313C6.26313 11.4969 6.84813 11.9319 6.84813 12.7656C6.84813 13.5556 6.26313 13.9956 5.61313 13.9956H4.77876V14.6556C4.77876 14.8756 4.63938 15 4.45938 15C4.29438 15 4.12001 14.8756 4.12001 14.6556V11.8419H4.11938ZM4.77876 12.1263V13.3713H5.61313C5.94813 13.3713 6.21313 13.0756 6.21313 12.7656C6.21313 12.4163 5.94813 12.1263 5.61313 12.1263H4.77876Z" fill="white"/>
<path d="M7.48502 11.8419C7.48502 11.6769 7.61502 11.4969 7.82502 11.4969H8.97939C9.62939 11.4969 10.2144 11.9319 10.2144 12.7656C10.2144 13.5556 9.62939 13.9956 8.97939 13.9956H8.14502V14.6556C8.14502 14.8756 8.00502 15 7.82502 15C7.66002 15 7.48502 14.8756 7.48502 14.6556V11.8419ZM8.14439 12.1263V13.3713H8.97877C9.31377 13.3713 9.57877 13.0756 9.57877 12.7656C9.57877 12.4163 9.31377 12.1263 8.97877 12.1263H8.14439Z" fill="white"/>
<path d="M11.7844 12.1669H10.9106C10.4756 12.1669 10.4756 11.5275 10.9106 11.5275H13.2738C13.7188 11.5275 13.7188 12.1669 13.2738 12.1669H12.4444V14.6907C12.4444 15.125 11.7844 15.1357 11.7844 14.6907V12.1669Z" fill="white"/>
<path d="M15.625 16.875H3.75V17.5H15.625C15.9688 17.5 16.25 17.2188 16.25 16.875V16.25C16.25 16.5938 15.9688 16.875 15.625 16.875Z" fill="#CAD1D8"/>
</svg>
