<svg width="18" height="19" viewBox="0 0 18 19" fill="none" xmlns="http://www.w3.org/2000/svg">
<path d="M1.75085 0.969482C2.22197 0.969482 2.62061 1.36812 2.62061 1.83923V5.57191C4.03395 3.14386 6.67944 1.58556 9.57861 1.58556C14.0361 1.58556 17.6963 5.20952 17.6963 9.66699C17.6963 14.1607 14.0361 17.7847 9.57861 17.7847C7.65791 17.7847 5.80969 17.1324 4.36011 15.9364C3.99771 15.6103 3.96147 15.0667 4.25139 14.7043C4.57755 14.3419 5.12114 14.2694 5.48354 14.5956C6.60696 15.5378 8.05655 16.0452 9.57861 16.0452C13.0939 16.0452 15.9568 13.2185 15.9568 9.66699C15.9568 6.15175 13.0939 3.28882 9.57861 3.28882C7.15056 3.28882 4.97618 4.70216 3.88899 6.76782H7.54919C8.02031 6.76782 8.41895 7.16646 8.41895 7.63757C8.41895 8.14493 8.02031 8.50732 7.54919 8.50732H1.75085C1.2435 8.50732 0.881104 8.14493 0.881104 7.63757V1.83923C0.881104 1.36812 1.2435 0.969482 1.75085 0.969482Z" fill="#B6B4B2"/>
</svg>
