<svg width="51" height="51" viewBox="0 0 51 51" fill="none" xmlns="http://www.w3.org/2000/svg">
<path d="M3.06581 36.2523H2.37146C2.37146 28.9408 7.82209 22.9833 14.5156 22.9833V23.6777C8.20398 23.643 3.06581 29.3088 3.06581 36.2523Z" fill="#373C37"/>
<path d="M22.8339 27.5799C21.8169 26.355 20.5438 25.3678 19.1043 24.6877C17.6648 24.0075 16.0938 23.6509 14.5018 23.6429V22.9486C16.188 22.9667 17.8505 23.3482 19.3759 24.0672C20.9013 24.7861 22.2536 25.8256 23.3408 27.1147L22.8339 27.5799ZM25.8613 25.3719L25.2503 25.0386C26.1 23.3973 27.3795 22.0175 28.9521 21.0466C30.5248 20.0756 32.3315 19.5499 34.1796 19.5255V20.2198C32.4561 20.243 30.7714 20.7348 29.306 21.6424C27.8407 22.55 26.6499 23.8392 25.8613 25.3719ZM42.9214 26.219C41.2758 22.5181 37.9291 20.2198 34.1865 20.2198V19.5255C38.2068 19.5255 41.8244 21.9834 43.5533 25.9343L42.9214 26.219ZM8.33596 40.2656L7.94019 39.7032L16.2376 33.8429H32.1938V34.5373H16.4598L8.33596 40.2656ZM35.1933 36.8772H34.499C34.5027 36.2615 34.2621 35.6694 33.83 35.2308C33.3979 34.7922 32.8095 34.5428 32.1938 34.5373V33.8429C32.9936 33.8484 33.7586 34.171 34.321 34.7398C34.8833 35.3087 35.197 36.0773 35.1933 36.8772ZM32.1938 39.9115V39.2172C32.8095 39.2117 33.3979 38.9623 33.83 38.5236C34.2621 38.085 34.5027 37.4929 34.499 36.8772H35.1933C35.197 37.6771 34.8833 38.4458 34.321 39.0146C33.7586 39.5834 32.9936 39.906 32.1938 39.9115Z" fill="#373C37"/>
<path d="M33.6727 44.9594H17.661V44.2651H33.4435L46.3098 35.1136C46.813 34.7522 47.154 34.2075 47.2592 33.597C47.3644 32.9865 47.2254 32.3591 46.8722 31.8501C46.7007 31.6001 46.4811 31.3866 46.2262 31.2223C45.9713 31.058 45.6862 30.9461 45.3876 30.8931C45.089 30.8401 44.7829 30.8471 44.487 30.9136C44.1911 30.9802 43.9115 31.105 43.6643 31.2808L37.5541 35.6205L37.1514 35.058L43.2616 30.6975C43.5802 30.4652 43.9426 30.2999 44.3269 30.2115C44.7112 30.1232 45.1094 30.1138 45.4974 30.1837C45.8885 30.2516 46.2621 30.3972 46.596 30.6119C46.9299 30.8265 47.2174 31.1059 47.4416 31.4335C47.898 32.0922 48.0774 32.9039 47.941 33.6936C47.8046 34.4832 47.3634 35.1877 46.7125 35.6552L33.6727 44.9594Z" fill="#373C37"/>
<path d="M18.7651 39.2172H30.8259V39.9115H18.7651V39.2172ZM7.05835 11.6168H7.7527C8.05309 9.99463 8.91199 8.52879 10.1803 7.47375C11.4487 6.41871 13.0464 5.84106 14.6962 5.84106C16.346 5.84106 17.9437 6.41871 19.212 7.47375C20.4804 8.52879 21.3393 9.99463 21.6397 11.6168H22.334C22.047 9.79509 21.1208 8.13504 19.7213 6.934C18.3218 5.73297 16.5404 5.06941 14.6962 5.06219C12.8524 5.07082 11.0717 5.73487 9.67249 6.93565C8.27327 8.13644 7.34669 9.79569 7.05835 11.6168ZM22.3687 14.0332H21.6744C21.3904 15.6703 20.5387 17.155 19.269 18.2267C17.9992 19.2984 16.3925 19.8885 14.7309 19.8935V20.5878C16.5751 20.5806 18.3565 19.917 19.756 18.716C21.1555 17.515 22.0817 15.8549 22.3687 14.0332ZM14.717 19.8935C13.0554 19.8885 11.4487 19.2984 10.1789 18.2267C8.90917 17.155 8.05752 15.6703 7.77353 14.0332H7.07918C7.36884 15.8537 8.2958 17.5122 9.69474 18.7127C11.0937 19.9132 12.8736 20.5778 14.717 20.5878V19.8935ZM27.868 9.63795H28.5623C28.8407 8.30257 29.5705 7.10381 30.629 6.24329C31.6874 5.38278 33.0099 4.91302 34.374 4.91302C35.7381 4.91302 37.0606 5.38278 38.119 6.24329C39.1775 7.10381 39.9073 8.30257 40.1857 9.63795H40.88C40.5965 8.11542 39.7896 6.73994 38.5989 5.74962C37.4083 4.75929 35.9088 4.21646 34.3601 4.21509C32.8162 4.22292 31.3233 4.76869 30.1384 5.75846C28.9534 6.74823 28.1506 8.1201 27.868 9.63795ZM34.3879 16.8106C33.0227 16.8088 31.6997 16.337 30.6413 15.4746C29.5829 14.6123 28.8537 13.4118 28.5762 12.0751H27.8818C28.1647 13.596 28.9693 14.9705 30.157 15.9617C31.3447 16.9529 32.841 17.4987 34.3879 17.5049V16.8106ZM40.9078 12.0543H40.2135C39.9397 13.3972 39.2102 14.6042 38.1486 15.471C37.087 16.3377 35.7584 16.811 34.3879 16.8106V17.5049C35.9398 17.4996 37.4411 16.9519 38.6317 15.9565C39.8224 14.9611 40.6276 13.5807 40.9078 12.0543Z" fill="#373C37"/>
<g style="mix-blend-mode:multiply">
<circle cx="33.5662" cy="30.2656" r="10" fill="#C5E8E5"/>
</g>
</svg>
