<svg width="51" height="51" viewBox="0 0 51 51" fill="none" xmlns="http://www.w3.org/2000/svg">
<path d="M3.06581 36.1676H2.37146C2.37146 28.8561 7.82209 22.8986 14.5156 22.8986V23.593C8.20398 23.5583 3.06581 29.2241 3.06581 36.1676Z" fill="#373C37"/>
<path d="M22.8339 27.4952C21.8169 26.2703 20.5438 25.2831 19.1043 24.603C17.6648 23.9228 16.0938 23.5662 14.5018 23.5582V22.8639C16.188 22.882 17.8505 23.2635 19.3759 23.9825C20.9013 24.7014 22.2536 25.7409 23.3408 27.03L22.8339 27.4952ZM25.8613 25.2871L25.2503 24.9539C26.1 23.3126 27.3795 21.9328 28.9521 20.9618C30.5248 19.9909 32.3315 19.4651 34.1796 19.4407V20.1351C32.4561 20.1583 30.7714 20.6501 29.306 21.5577C27.8407 22.4652 26.6499 23.7545 25.8613 25.2871ZM42.9214 26.1342C41.2758 22.4334 37.9291 20.1351 34.1865 20.1351V19.4407C38.2068 19.4407 41.8244 21.8987 43.5533 25.8496L42.9214 26.1342ZM8.33596 40.1809L7.94019 39.6185L16.2376 33.7582H32.1938V34.4525H16.4598L8.33596 40.1809ZM35.1933 36.7925H34.499C34.5027 36.1768 34.2621 35.5847 33.83 35.1461C33.3979 34.7074 32.8095 34.458 32.1938 34.4525V33.7582C32.9936 33.7637 33.7586 34.0863 34.321 34.6551C34.8833 35.2239 35.197 35.9926 35.1933 36.7925ZM32.1938 39.8268V39.1324C32.8095 39.1269 33.3979 38.8775 33.83 38.4389C34.2621 38.0003 34.5027 37.4082 34.499 36.7925H35.1933C35.197 37.5924 34.8833 38.361 34.321 38.9299C33.7586 39.4987 32.9936 39.8213 32.1938 39.8268Z" fill="#373C37"/>
<path d="M33.6727 44.8747H17.661V44.1804H33.4435L46.3098 35.0289C46.813 34.6675 47.154 34.1228 47.2592 33.5123C47.3644 32.9018 47.2254 32.2744 46.8722 31.7654C46.7007 31.5153 46.4811 31.3019 46.2262 31.1376C45.9713 30.9733 45.6862 30.8614 45.3876 30.8084C45.089 30.7554 44.7829 30.7624 44.487 30.8289C44.1911 30.8955 43.9115 31.0203 43.6643 31.1961L37.5541 35.5357L37.1514 34.9733L43.2616 30.6128C43.5802 30.3805 43.9426 30.2151 44.3269 30.1268C44.7112 30.0385 45.1094 30.029 45.4974 30.099C45.8885 30.1669 46.2621 30.3125 46.596 30.5272C46.9299 30.7418 47.2174 31.0212 47.4416 31.3488C47.898 32.0075 48.0774 32.8192 47.941 33.6088C47.8046 34.3985 47.3634 35.103 46.7125 35.5705L33.6727 44.8747Z" fill="#373C37"/>
<path d="M18.7651 39.1325H30.8259V39.8268H18.7651V39.1325ZM7.05835 11.5321H7.7527C8.05309 9.90991 8.91199 8.44408 10.1803 7.38904C11.4487 6.334 13.0464 5.75635 14.6962 5.75635C16.346 5.75635 17.9437 6.334 19.212 7.38904C20.4804 8.44408 21.3393 9.90991 21.6397 11.5321H22.334C22.047 9.71038 21.1208 8.05032 19.7213 6.84929C18.3218 5.64825 16.5404 4.9847 14.6962 4.97748C12.8524 4.9861 11.0717 5.65015 9.67249 6.85094C8.27327 8.05172 7.34669 9.71098 7.05835 11.5321ZM22.3687 13.9485H21.6744C21.3904 15.5856 20.5387 17.0703 19.269 18.142C17.9992 19.2137 16.3925 19.8038 14.7309 19.8087V20.5031C16.5751 20.4959 18.3565 19.8323 19.756 18.6313C21.1555 17.4302 22.0817 15.7702 22.3687 13.9485ZM14.717 19.8087C13.0554 19.8038 11.4487 19.2137 10.1789 18.142C8.90917 17.0703 8.05752 15.5856 7.77353 13.9485H7.07918C7.36884 15.769 8.2958 17.4275 9.69474 18.628C11.0937 19.8285 12.8736 20.4931 14.717 20.5031V19.8087ZM27.868 9.55323H28.5623C28.8407 8.21785 29.5705 7.01909 30.629 6.15858C31.6874 5.29807 33.0099 4.82831 34.374 4.82831C35.7381 4.82831 37.0606 5.29807 38.119 6.15858C39.1775 7.01909 39.9073 8.21785 40.1857 9.55323H40.88C40.5965 8.03071 39.7896 6.65523 38.5989 5.6649C37.4083 4.67458 35.9088 4.13174 34.3601 4.13037C32.8162 4.1382 31.3233 4.68397 30.1384 5.67374C28.9534 6.66351 28.1506 8.03538 27.868 9.55323ZM34.3879 16.7258C33.0227 16.724 31.6997 16.2523 30.6413 15.3899C29.5829 14.5276 28.8537 13.3271 28.5762 11.9904H27.8818C28.1647 13.5113 28.9693 14.8858 30.157 15.877C31.3447 16.8682 32.841 17.4139 34.3879 17.4202V16.7258ZM40.9078 11.9696H40.2135C39.9397 13.3125 39.2102 14.5195 38.1486 15.3862C37.087 16.253 35.7584 16.7262 34.3879 16.7258V17.4202C35.9398 17.4149 37.4411 16.8672 38.6317 15.8718C39.8224 14.8764 40.6276 13.496 40.9078 11.9696Z" fill="#373C37"/>
</svg>
