<svg width="17" height="17" viewBox="0 0 17 17" fill="none" xmlns="http://www.w3.org/2000/svg">
<path d="M15.033 8.64551C15.033 12.5205 11.8767 15.6455 8.03296 15.6455C6.50171 15.6455 5.03296 15.1768 3.81421 14.2705C3.37671 13.9268 3.28296 13.3018 3.62671 12.8643C3.97046 12.4268 4.59546 12.333 5.03296 12.6455C5.90796 13.3018 6.93921 13.6455 8.03296 13.6455C10.783 13.6455 13.033 11.4268 13.033 8.64551C13.033 5.89551 10.783 3.67676 8.03296 3.67676C6.43921 3.67676 4.97046 4.42676 4.03296 5.64551H6.03296C6.56421 5.64551 7.03296 6.11426 7.03296 6.64551C7.03296 7.20801 6.56421 7.64551 6.03296 7.64551H1.53296C0.970459 7.64551 0.532959 7.20801 0.532959 6.64551V2.14551C0.532959 1.61426 0.970459 1.14551 1.53296 1.14551C2.06421 1.14551 2.53296 1.61426 2.53296 2.14551V4.36426C3.84546 2.67676 5.84546 1.67676 8.03296 1.67676C11.8767 1.67676 15.033 4.80176 15.033 8.64551Z" fill="#17A297"/>
</svg>
