<svg width="16" height="17" viewBox="0 0 16 17" fill="none" xmlns="http://www.w3.org/2000/svg">
<path d="M10.8443 9.56795H5.8486L7.80598 11.3793C8.09813 11.6422 8.09813 12.0804 7.8352 12.3726C7.57227 12.6647 7.13404 12.6647 6.8419 12.4018L3.56985 9.36345C3.42377 9.24659 3.36534 9.04209 3.36534 8.8668C3.36534 8.6623 3.42377 8.45779 3.56985 8.34093L6.8419 5.3026C7.13404 5.03967 7.57227 5.03967 7.8352 5.33181C8.09813 5.62396 8.09813 6.06218 7.80598 6.32512L5.8486 8.16564H10.8443C11.2241 8.16564 11.5455 8.45779 11.5455 8.8668C11.5455 9.24659 11.2241 9.56795 10.8443 9.56795ZM7.57227 16.3458C3.42377 16.3458 0.0932922 12.9861 0.0932922 8.8668C0.0932922 4.71831 3.42377 1.38783 7.57227 1.38783C11.6915 1.38783 15.0512 4.71831 15.0512 8.8668C15.0512 12.9861 11.6915 16.3458 7.57227 16.3458ZM7.57227 2.79013C4.21257 2.79013 1.4956 5.5071 1.4956 8.8668C1.4956 12.1973 4.21257 14.9435 7.57227 14.9435C10.9027 14.9435 13.6489 12.1973 13.6489 8.8668C13.6489 5.5071 10.9027 2.79013 7.57227 2.79013Z" fill="#5B8EEF"/>
</svg>
