<svg width="21" height="13" viewBox="0 0 21 13" fill="none" xmlns="http://www.w3.org/2000/svg">
<path d="M9.98584 0.819824C12.4546 0.819824 14.4858 2.85107 14.4858 5.31982C14.4858 7.69482 12.6421 9.66357 10.2671 9.81982H10.0171C9.61084 9.85107 9.23584 9.53857 9.23584 9.13232C9.20459 8.72607 9.51709 8.35107 9.92334 8.35107L10.1733 8.31982C11.7358 8.22607 12.9858 6.91357 12.9858 5.31982C12.9858 3.66357 11.6421 2.31982 9.98584 2.31982H4.95459C3.29834 2.31982 1.98584 3.66357 1.98584 5.31982C1.98584 6.91357 3.20459 8.22607 4.76709 8.31982L5.01709 8.35107C5.42334 8.35107 5.73584 8.72607 5.70459 9.13232C5.70459 9.53857 5.32959 9.85107 4.92334 9.81982H4.67334C2.29834 9.66357 0.48584 7.69482 0.48584 5.31982C0.48584 2.85107 2.48584 0.819824 4.95459 0.819824H9.98584ZM10.9546 12.8198C8.48584 12.8198 6.48584 10.8198 6.48584 8.35107C6.48584 5.97607 8.29834 4.00732 10.6733 3.85107H10.8921C11.2983 3.81982 11.6733 4.13232 11.6733 4.53857C11.7046 4.94482 11.3921 5.31982 10.9858 5.31982L10.7671 5.35107C9.20459 5.44482 7.98584 6.75732 7.98584 8.35107C7.98584 10.0073 9.29834 11.3198 10.9546 11.3198H15.9858C17.6421 11.3198 18.9858 10.0073 18.9858 8.35107C18.9858 6.75732 17.7358 5.44482 16.1733 5.35107L15.9233 5.31982C15.5171 5.31982 15.2046 4.94482 15.2358 4.53857C15.2358 4.13232 15.6108 3.81982 16.0171 3.85107H16.2671C18.6421 4.00732 20.4858 5.97607 20.4858 8.35107C20.4858 10.8198 18.4546 12.8198 15.9858 12.8198H10.9546Z" fill="#898785"/>
</svg>
