<svg width="14" height="17" viewBox="0 0 14 17" fill="none" xmlns="http://www.w3.org/2000/svg">
<path d="M13.5987 11.04C13.5987 11.5618 13.3667 12.0496 12.9622 12.3782L8.42082 16.0677C7.56992 16.7792 6.24612 16.7792 5.39528 16.0677L0.85387 12.3782C0.0107244 11.7178 0.0108495 10.362 0.85387 9.7017L2.20835 8.60131L0.85387 7.50092C0.0107244 6.84052 0.0108495 5.48473 0.85387 4.82442L5.39525 1.13494C6.24615 0.42345 7.56996 0.42345 8.42079 1.13491L12.9622 4.82442C13.8053 5.48482 13.8052 6.84061 12.9622 7.50092C12.2974 7.99838 11.5509 7.07841 12.1736 6.53028C12.4076 6.33688 12.4079 5.98881 12.1736 5.79503L7.63227 2.10558C7.21266 1.76467 6.60353 1.76467 6.18381 2.10558L1.64246 5.79506C1.40847 5.98846 1.40813 6.33653 1.64246 6.53031L6.18384 10.2198C6.60344 10.5607 7.21257 10.5607 7.6323 10.2198C7.63474 10.2178 7.63721 10.2158 7.63968 10.2139L8.3658 9.64205C8.63714 9.42839 9.03026 9.47519 9.24393 9.74644C9.45759 10.0178 9.41085 10.4109 9.13953 10.6246L8.41701 11.1936C7.56602 11.9021 6.24483 11.9008 5.39531 11.1905L3.20003 9.407L1.64249 10.6724C1.4085 10.8658 1.40816 11.2139 1.64249 11.4076L6.18384 15.0971C6.60344 15.438 7.21257 15.438 7.6323 15.0971L12.1736 11.4076C12.4076 11.2142 12.408 10.8661 12.1736 10.6723L7.63227 6.98287C7.21266 6.64196 6.60353 6.64196 6.18381 6.98287C6.18137 6.98484 6.1789 6.98684 6.17643 6.98878L5.45031 7.56061C5.17899 7.7743 4.78587 7.7275 4.57218 7.45622C4.35851 7.1849 4.40525 6.79175 4.67657 6.57808L5.39909 6.00907C6.25009 5.30055 7.57127 5.30189 8.42079 6.01219L12.9622 9.7017C13.3667 10.0303 13.5987 10.5181 13.5987 11.04Z" fill="#17A297"/>
</svg>
