<svg width="18" height="17" viewBox="0 0 18 17" fill="none" xmlns="http://www.w3.org/2000/svg">
<path fill-rule="evenodd" clip-rule="evenodd" d="M6.56701 1.90002C4.62039 1.90002 3.03324 3.48718 3.03324 5.4338C3.03324 7.38042 4.62039 8.96757 6.56701 8.96757C8.51363 8.96757 10.1008 7.38042 10.1008 5.4338C10.1008 3.48718 8.51363 1.90002 6.56701 1.90002ZM12.0608 2.7557C11.7004 2.7557 11.3629 2.81392 11.0262 2.93003L11.0246 2.93059C10.728 3.03845 10.5621 3.36417 10.6721 3.66669C10.7799 3.9631 11.1052 4.129 11.4076 4.01943C11.6208 3.94487 11.8345 3.91265 12.0608 3.91265C13.1426 3.91265 14.021 4.79106 14.021 5.87291C14.021 6.95477 13.1426 7.83318 12.0608 7.83318C11.7167 7.83318 11.3744 7.74709 11.0874 7.57707C10.8131 7.4127 10.4598 7.50975 10.2975 7.78037L10.2956 7.78366C10.1497 8.0491 10.2117 8.40397 10.4894 8.57058L10.7839 8.74726L10.7509 8.68119C11.1693 8.86517 11.6103 8.96762 12.0608 8.96762C13.7824 8.96762 15.1667 7.57161 15.1667 5.86166C15.1667 4.15146 13.7709 2.7557 12.0608 2.7557ZM4.19019 5.4338C4.19019 4.12678 5.25999 3.05698 6.56701 3.05698C7.87403 3.05698 8.94383 4.12678 8.94383 5.4338C8.94383 6.74082 7.87403 7.81062 6.56701 7.81062C5.25999 7.81062 4.19019 6.74082 4.19019 5.4338ZM5.22715 9.91587C2.61598 9.91587 0.5 12.0437 0.5 14.6543C0.5 15.2507 0.984603 15.7225 1.56821 15.7225H11.5656C12.1619 15.7225 12.6338 15.2379 12.6338 14.6543C12.6338 12.0768 10.5713 9.98138 8.00662 9.92816V9.91587H5.22715ZM12.4775 10.3437H13.5034V10.3212H13.6034C15.8652 10.3212 17.7001 12.156 17.7001 14.4179C17.7001 15.1261 17.1262 15.7 16.4179 15.7H13.7497C13.4356 15.7 13.1769 15.4413 13.1769 15.1271C13.1769 14.813 13.4356 14.5543 13.7497 14.5543H16.4179C16.4866 14.5543 16.5431 14.4977 16.5431 14.4291C16.5431 12.8069 15.2256 11.4894 13.6034 11.4894H12.4775C12.1634 11.4894 11.9047 11.2307 11.9047 10.9165C11.9047 10.6024 12.1634 10.3437 12.4775 10.3437ZM11.4757 14.5543H1.65804C1.70516 12.624 3.28556 11.0728 5.22715 11.0728H7.90662C9.84822 11.0728 11.4286 12.624 11.4757 14.5543Z" fill="#17A297"/>
</svg>
