<svg width="13" height="12" viewBox="0 0 13 12" fill="none" xmlns="http://www.w3.org/2000/svg">
<path d="M0.726929 5.90344C0.726929 2.77276 3.25812 0.21936 6.41101 0.21936C9.5417 0.21936 12.0951 2.77276 12.0951 5.90344C12.0951 9.05633 9.5417 11.5875 6.41101 11.5875C3.25812 11.5875 0.726929 9.05633 0.726929 5.90344ZM8.96441 4.92649C9.20864 4.68225 9.20864 4.30479 8.96441 4.06056C8.72017 3.81632 8.34271 3.81632 8.09847 4.06056L5.7005 6.45853L4.70135 5.48158C4.45711 5.23734 4.07965 5.23734 3.83541 5.48158C3.59117 5.72581 3.59117 6.10327 3.83541 6.34751L5.25643 7.76853C5.50067 8.01277 5.87813 8.01277 6.12237 7.76853L8.96441 4.92649Z" fill="#17A297"/>
</svg>
