<svg width="12" height="16" viewBox="0 0 12 16" fill="none" xmlns="http://www.w3.org/2000/svg">
<path d="M11.4062 2.9375L9.0625 0.59375C8.6875 0.21875 8.1875 0 7.65625 0H2C0.875 0 0 0.90625 0 2V14C0 15.125 0.875 16 2 16H10C11.0938 16 12 15.125 12 14V4.34375C12 3.8125 11.7812 3.3125 11.4062 2.9375ZM10.5 14C10.5 14.2812 10.25 14.5 10 14.5H2C1.71875 14.5 1.5 14.2812 1.5 14V2.03125C1.5 1.75 1.71875 1.53125 2 1.53125H7V4C7 4.5625 7.4375 5 8 5H10.4688V14H10.5ZM7.15625 7.3125L6 8.78125L4.8125 7.3125C4.5625 6.96875 4.09375 6.90625 3.78125 7.1875C3.4375 7.4375 3.375 7.90625 3.65625 8.21875L5.03125 10L3.65625 11.8125C3.375 12.125 3.4375 12.5938 3.78125 12.8438C3.90625 12.9688 4.0625 13 4.21875 13C4.4375 13 4.65625 12.9062 4.8125 12.7188L6 11.25L7.15625 12.7188C7.28125 12.9062 7.5 13 7.75 13C7.90625 13 8.0625 12.9688 8.1875 12.8438C8.53125 12.5938 8.59375 12.125 8.3125 11.8125L6.9375 10L8.3125 8.21875C8.59375 7.90625 8.53125 7.4375 8.1875 7.1875C7.875 6.90625 7.40625 6.96875 7.15625 7.3125Z" fill="#FF7A78"/>
</svg>
