<svg width="31" height="31" viewBox="0 0 31 31" fill="none" xmlns="http://www.w3.org/2000/svg">
<circle cx="15.9028" cy="15.6143" r="14.5" fill="#E6E6E5" stroke="#BABAB6"/>
<path d="M15.8716 17.8746C14.0903 17.8746 12.6216 16.4371 12.6528 14.6246C12.6528 12.8433 14.0903 11.3746 15.8716 11.3746C17.6528 11.3746 19.1216 12.8433 19.1216 14.6246C19.1216 16.4371 17.6841 17.8746 15.8716 17.8746ZM15.8716 12.3746C14.6528 12.3746 13.6216 13.4058 13.6216 14.6246C13.6216 15.8746 14.6528 16.8746 15.8716 16.8746C17.1216 16.8746 18.1216 15.8746 18.1216 14.6246C18.1216 13.4058 17.1216 12.3746 15.8716 12.3746ZM17.4341 18.8746C19.9028 18.8746 21.9028 20.7496 21.9028 23.0621C21.9028 23.5308 21.4966 23.8746 20.9966 23.8746H10.7778C10.2778 23.8746 9.90283 23.5308 9.90283 23.0621C9.90283 20.7496 11.8716 18.8746 14.3403 18.8746H17.4341ZM10.9028 22.8746H20.8716C20.7778 21.2183 19.2778 19.8746 17.4341 19.8746H14.3091C12.4966 19.8746 10.9966 21.2183 10.9028 22.8746ZM21.9028 12.8746C20.4966 12.8746 19.4028 11.7808 19.4028 10.3746C19.4028 8.99957 20.4966 7.87457 21.9028 7.87457C23.2778 7.87457 24.4028 8.99957 24.4028 10.3746C24.4028 11.7808 23.2778 12.8746 21.9028 12.8746ZM21.9028 8.87457C21.0591 8.87457 20.4028 9.56207 20.4028 10.3746C20.4028 11.2183 21.0591 11.8746 21.9028 11.8746C22.7153 11.8746 23.4028 11.2183 23.4028 10.3746C23.4028 9.56207 22.7153 8.87457 21.9028 8.87457ZM9.90283 12.8746C8.49658 12.8746 7.40283 11.7808 7.40283 10.3746C7.40283 8.99957 8.49658 7.87457 9.90283 7.87457C11.2778 7.87457 12.4028 8.99957 12.4028 10.3746C12.4028 11.7808 11.2778 12.8746 9.90283 12.8746ZM9.90283 8.87457C9.05908 8.87457 8.40283 9.56207 8.40283 10.3746C8.40283 11.2183 9.05908 11.8746 9.90283 11.8746C10.7153 11.8746 11.4028 11.2183 11.4028 10.3746C11.4028 9.56207 10.7153 8.87457 9.90283 8.87457ZM23.4341 13.8746C24.7778 13.8746 25.9028 15.0621 25.9028 16.4683V16.8746C25.9028 17.1558 25.6528 17.3746 25.4028 17.3746C25.1216 17.3746 24.9028 17.1558 24.9028 16.8746V16.4683C24.9028 15.5933 24.2153 14.8746 23.4341 14.8746H21.4028C21.1841 14.8746 20.9966 14.9371 20.8091 15.0308C20.5591 15.1558 20.2466 15.0308 20.1216 14.7808C20.0278 14.5308 20.1216 14.2496 20.3716 14.1246C20.6841 13.9683 21.0278 13.8746 21.4028 13.8746H23.4341ZM10.9653 15.0308C10.7778 14.9371 10.5903 14.8746 10.4028 14.8746H8.34033C7.55908 14.8746 6.90283 15.5933 6.90283 16.4683V16.8746C6.90283 17.1558 6.65283 17.3746 6.40283 17.3746C6.12158 17.3746 5.90283 17.1558 5.90283 16.8746V16.4683C5.90283 15.0621 6.99658 13.8746 8.34033 13.8746H10.4028C10.7466 13.8746 11.0903 13.9683 11.4028 14.1246C11.6528 14.2496 11.7466 14.5308 11.6528 14.7808C11.5278 15.0308 11.2153 15.1558 10.9653 15.0308Z" fill="#BABAB6"/>
</svg>
