<svg width="17" height="17" viewBox="0 0 17 17" fill="none" xmlns="http://www.w3.org/2000/svg">
<path d="M10.8646 7.95953C11.2709 7.95953 11.6146 8.30328 11.6146 8.70953C11.6146 9.14703 11.2709 9.45953 10.8646 9.45953H5.36462C4.92712 9.45953 4.61462 9.14703 4.61462 8.70953C4.61462 8.30328 4.92712 7.95953 5.36462 7.95953H10.8646ZM16.1146 8.70953C16.1146 13.147 12.5209 16.7095 8.11462 16.7095C3.67712 16.7095 0.114624 13.147 0.114624 8.70953C0.114624 4.30328 3.67712 0.709534 8.11462 0.709534C12.5209 0.709534 16.1146 4.30328 16.1146 8.70953ZM8.11462 2.20953C4.52087 2.20953 1.61462 5.14703 1.61462 8.70953C1.61462 12.3033 4.52087 15.2095 8.11462 15.2095C11.6771 15.2095 14.6146 12.3033 14.6146 8.70953C14.6146 5.14703 11.6771 2.20953 8.11462 2.20953Z" fill="#EF817D"/>
</svg>
