<svg width="9" height="8" viewBox="0 0 9 8" fill="none" xmlns="http://www.w3.org/2000/svg">
<path d="M0 0.96875C0 0.714844 0.195312 0.5 0.46875 0.5H8.28125C8.53516 0.5 8.75 0.714844 8.75 0.96875C8.75 1.24219 8.53516 1.4375 8.28125 1.4375H0.46875C0.195312 1.4375 0 1.24219 0 0.96875ZM1.25 4.09375C1.25 3.83984 1.44531 3.625 1.71875 3.625H7.03125C7.28516 3.625 7.5 3.83984 7.5 4.09375C7.5 4.36719 7.28516 4.5625 7.03125 4.5625H1.71875C1.44531 4.5625 1.25 4.36719 1.25 4.09375ZM5.15625 7.6875H3.59375C3.32031 7.6875 3.125 7.49219 3.125 7.21875C3.125 6.96484 3.32031 6.75 3.59375 6.75H5.15625C5.41016 6.75 5.625 6.96484 5.625 7.21875C5.625 7.49219 5.41016 7.6875 5.15625 7.6875Z" fill="#898785"/>
</svg>
