<svg width="17" height="5" viewBox="0 0 17 5" fill="none" xmlns="http://www.w3.org/2000/svg">
<path d="M13.125 2.5C13.125 1.48438 13.9453 0.625 15 0.625C16.0156 0.625 16.875 1.48438 16.875 2.5C16.875 3.55469 16.0156 4.375 15 4.375C13.9453 4.375 13.125 3.55469 13.125 2.5ZM6.875 2.5C6.875 1.48438 7.69531 0.625 8.75 0.625C9.76562 0.625 10.625 1.48438 10.625 2.5C10.625 3.55469 9.76562 4.375 8.75 4.375C7.69531 4.375 6.875 3.55469 6.875 2.5ZM4.375 2.5C4.375 3.55469 3.51562 4.375 2.5 4.375C1.44531 4.375 0.625 3.55469 0.625 2.5C0.625 1.48438 1.44531 0.625 2.5 0.625C3.51562 0.625 4.375 1.48438 4.375 2.5Z" fill="#898785"/>
</svg>
