<svg width="18" height="15" viewBox="0 0 18 15" fill="none" xmlns="http://www.w3.org/2000/svg">
<path d="M16.8123 13.0312L10.156 1.65625C9.62476 0.78125 8.34351 0.78125 7.84351 1.65625L1.15601 13.0312C0.656006 13.9062 1.28101 15 2.31226 15H15.656C16.6873 15 17.3123 13.9062 16.8123 13.0312ZM8.24976 5.25C8.24976 4.84375 8.56226 4.5 8.99976 4.5C9.40601 4.5 9.74976 4.84375 9.74976 5.25V9.25C9.74976 9.6875 9.40601 10 8.99976 10C8.62476 10 8.24976 9.6875 8.24976 9.25V5.25ZM8.99976 13C8.43726 13 7.99976 12.5625 7.99976 12.0312C7.99976 11.5 8.43726 11.0625 8.99976 11.0625C9.53101 11.0625 9.96851 11.5 9.96851 12.0312C9.96851 12.5625 9.53101 13 8.99976 13Z" fill="#FF7A78"/>
</svg>
