<svg width="17" height="11" viewBox="0 0 17 11" fill="none" xmlns="http://www.w3.org/2000/svg">
<path fill-rule="evenodd" clip-rule="evenodd" d="M10.7333 8.80217L5.02911 6.71379V2.68478L10.7548 1.01005C11.0337 0.950507 11.2965 1.16315 11.2965 1.44787V8.36927C11.2965 8.66339 11.0176 8.87782 10.7333 8.80217Z" stroke="#17A297" stroke-linecap="round" stroke-linejoin="round"/>
<path fill-rule="evenodd" clip-rule="evenodd" d="M3.57758 10.1561L2.68224 9.93228C2.48303 9.88259 2.34291 9.70307 2.34291 9.49759V6.71399H4.13359V9.72143C4.13359 10.0133 3.86006 10.2268 3.57758 10.1561Z" stroke="#17A297" stroke-linecap="round" stroke-linejoin="round"/>
<path fill-rule="evenodd" clip-rule="evenodd" d="M2.34301 6.71377H5.02902V2.68475H2.34301C1.60122 2.68475 1 3.28597 1 4.02776V5.37076C1 6.11255 1.60122 6.71377 2.34301 6.71377Z" stroke="#17A297" stroke-linecap="round" stroke-linejoin="round"/>
<path d="M13.5347 3.16577C14.4435 4.07499 14.4435 5.54871 13.5347 6.45793" stroke="#17A297" stroke-linecap="round" stroke-linejoin="round"/>
<path d="M14.977 2.34302C16.341 3.70662 16.341 5.9172 14.977 7.2808" stroke="#17A297" stroke-linecap="round" stroke-linejoin="round"/>
</svg>
