<svg width="24" height="24" viewBox="0 0 24 24" fill="none" xmlns="http://www.w3.org/2000/svg">
<path d="M14 9.08984L22.81 10.8398C23.52 10.9898 24 11.5898 24 12.2998V22.4998C24 23.3298 23.33 23.9998 22.5 23.9998H13.5C13.78 23.9998 14 23.7798 14 23.4998V22.9998H22.5C22.77 22.9998 23 22.7798 23 22.4998V12.2998C23 12.0698 22.84 11.8598 22.61 11.8098L14 10.1098V9.08984Z" fill="white"/>
<path d="M19.498 13.9998C19.778 13.9998 19.998 14.2198 19.998 14.4998C19.998 14.7797 19.778 14.9997 19.498 14.9997H17.498C17.218 14.9997 16.998 14.7797 16.998 14.4998C16.998 14.2198 17.218 13.9998 17.498 13.9998H19.498Z" fill="white"/>
<path d="M19.498 16.9998C19.778 16.9998 19.998 17.2198 19.998 17.4998C19.998 17.7797 19.778 17.9997 19.498 17.9997H17.498C17.218 17.9997 16.998 17.7797 16.998 17.4998C16.998 17.2198 17.218 16.9998 17.498 16.9998H19.498Z" fill="white"/>
<path d="M19.498 19.9998C19.778 19.9998 19.998 20.2198 19.998 20.4998C19.998 20.7797 19.778 20.9997 19.498 20.9997H17.498C17.218 20.9997 16.998 20.7797 16.998 20.4998C16.998 20.2198 17.218 19.9998 17.498 19.9998H19.498Z" fill="white"/>
<path d="M14.0019 23.4998C14.0019 23.7798 13.7819 23.9998 13.5019 23.9998C13.222 23.9998 13.002 23.7798 13.002 23.4998V22.9998V9.49985C13.002 9.34985 13.072 9.20985 13.182 9.10985C13.302 9.01985 13.4519 8.97985 13.6019 9.00985L14.0019 9.08985V10.1098V22.9998V23.4998Z" fill="white"/>
<path d="M12.998 22.9998V23.4998C12.998 23.7798 13.218 23.9998 13.498 23.9998H9.49805C9.77805 23.9998 9.99805 23.7798 9.99805 23.4998V22.9998H12.998Z" fill="white"/>
<path d="M10.498 4.99976C10.778 4.99976 10.998 5.21976 10.998 5.49976C10.998 5.77976 10.778 5.99976 10.498 5.99976H8.49805C8.21805 5.99976 7.99805 5.77976 7.99805 5.49976C7.99805 5.21976 8.21805 4.99976 8.49805 4.99976H10.498Z" fill="white"/>
<path d="M10.998 8.49976C10.998 8.77976 10.778 8.99976 10.498 8.99976H8.49805C8.21805 8.99976 7.99805 8.77976 7.99805 8.49976C7.99805 8.21976 8.21805 7.99976 8.49805 7.99976H10.498C10.778 7.99976 10.998 8.21976 10.998 8.49976Z" fill="white"/>
<path d="M10.498 10.9998C10.778 10.9998 10.998 11.2198 10.998 11.4998C10.998 11.7797 10.778 11.9997 10.498 11.9997H8.49805C8.21805 11.9997 7.99805 11.7797 7.99805 11.4998C7.99805 11.2198 8.21805 10.9998 8.49805 10.9998H10.498Z" fill="white"/>
<path d="M10.498 13.9998C10.778 13.9998 10.998 14.2198 10.998 14.4998C10.998 14.7797 10.778 14.9997 10.498 14.9997H8.49805C8.21805 14.9997 7.99805 14.7797 7.99805 14.4998C7.99805 14.2198 8.21805 13.9998 8.49805 13.9998H10.498Z" fill="white"/>
<path d="M6 14.4998C6 14.7797 5.78 14.9997 5.5 14.9997H3.5C3.22 14.9997 3 14.7797 3 14.4998C3 14.2198 3.22 13.9998 3.5 13.9998H5.5C5.78 13.9998 6 14.2198 6 14.4998Z" fill="white"/>
<path d="M5.5 4.99976C5.78 4.99976 6 5.21976 6 5.49976C6 5.77976 5.78 5.99976 5.5 5.99976H3.5C3.22 5.99976 3 5.77976 3 5.49976C3 5.21976 3.22 4.99976 3.5 4.99976H5.5Z" fill="white"/>
<path d="M5.5 7.99976C5.78 7.99976 6 8.21976 6 8.49976C6 8.77976 5.78 8.99976 5.5 8.99976H3.5C3.22 8.99976 3 8.77976 3 8.49976C3 8.21976 3.22 7.99976 3.5 7.99976H5.5Z" fill="white"/>
<path d="M5.5 10.9998C5.78 10.9998 6 11.2198 6 11.4998C6 11.7797 5.78 11.9997 5.5 11.9997H3.5C3.22 11.9997 3 11.7797 3 11.4998C3 11.2198 3.22 10.9998 3.5 10.9998H5.5Z" fill="white"/>
<path d="M9.00195 18.4998C9.00195 18.2198 8.77195 17.9998 8.50195 17.9998H5.50195C5.22195 17.9998 5.00195 18.2198 5.00195 18.4998V22.9998H4.00195V18.4998C4.00195 17.6698 4.67195 16.9998 5.50195 16.9998H8.50195C9.33195 16.9998 10.002 17.6698 10.002 18.4998V22.9998H9.00195V18.4998Z" fill="white"/>
<path d="M5.00195 22.9998H9.00195H10.002V23.4998C10.002 23.7798 9.78195 23.9998 9.50195 23.9998H4.50195C4.22195 23.9998 4.00195 23.7798 4.00195 23.4998V22.9998H5.00195Z" fill="white"/>
<path d="M1.75 0.199889L12.74 1.86989C13.47 1.98989 14 2.60989 14 3.34989V9.08989L13.6 9.00989C13.45 8.97989 13.3 9.01989 13.18 9.10989C13.07 9.20989 13 9.34989 13 9.49989V3.34989C13 3.09989 12.82 2.88989 12.58 2.84989L1.59 1.18989C1.56 1.17989 1.53 1.17989 1.5 1.17989C1.38 1.17989 1.27 1.21989 1.18 1.29989C1.06 1.39989 1 1.52989 1 1.67989V22.4999C1 22.7799 1.23 22.9999 1.5 22.9999H4V23.4999C4 23.7799 4.22 23.9999 4.5 23.9999H1.5C0.67 23.9999 0 23.3299 0 22.4999V1.67989C0 1.23989 0.19 0.819889 0.53 0.539889C0.87 0.249889 1.31 0.129889 1.75 0.199889Z" fill="white"/>
</svg>
