<svg width="95" height="95" viewBox="0 0 95 95" fill="none" xmlns="http://www.w3.org/2000/svg">
<path d="M92.0312 31.1718H78.5962C78.2294 23.1708 74.7928 15.6189 69.0011 10.0865C63.2093 4.55418 55.508 1.46704 47.4985 1.46704C39.489 1.46704 31.7877 4.55418 25.996 10.0865C20.2042 15.6189 16.7676 23.1708 16.4009 31.1718H2.96875C2.57507 31.1718 2.19751 31.3282 1.91914 31.6066C1.64076 31.885 1.48438 32.2625 1.48438 32.6562V92.0312C1.48438 92.4249 1.64076 92.8024 1.91914 93.0808C2.19751 93.3592 2.57507 93.5156 2.96875 93.5156H92.0312C92.4249 93.5156 92.8025 93.3592 93.0809 93.0808C93.3592 92.8024 93.5156 92.4249 93.5156 92.0312V32.6562C93.5156 32.2625 93.3592 31.885 93.0809 31.6066C92.8025 31.3282 92.4249 31.1718 92.0312 31.1718ZM47.5 4.45307C54.7159 4.46496 61.653 7.24121 66.8847 12.2109C72.1164 17.1807 75.2451 23.9661 75.6274 31.1718H55.8852C57.4384 29.9219 58.6915 28.3396 59.5523 26.5414C60.4131 24.7432 60.8598 22.7748 60.8594 20.7812V14.8437C60.8594 14.45 60.703 14.0725 60.4246 13.7941C60.1462 13.5157 59.7687 13.3593 59.375 13.3593C56.9182 13.3626 54.5099 14.0432 52.4149 15.3264C50.3198 16.6096 48.6192 18.4457 47.5 20.6328C46.3808 18.4457 44.6802 16.6096 42.5851 15.3264C40.4901 14.0432 38.0818 13.3626 35.625 13.3593C35.2313 13.3593 34.8538 13.5157 34.5754 13.7941C34.297 14.0725 34.1406 14.45 34.1406 14.8437V20.7812C34.1411 22.7754 34.5889 24.7442 35.451 26.5424C36.3132 28.3407 37.5677 29.9226 39.1222 31.1718H19.3726C19.7549 23.9661 22.8836 17.1807 28.1153 12.2109C33.347 7.24121 40.2841 4.46496 47.5 4.45307V4.45307ZM78.6719 90.5468H16.3281V87.5781H78.6719V90.5468ZM60.8594 84.6093H34.1406V75.7031H60.8594V84.6093ZM63.8281 84.6093V74.2187C63.8281 73.825 63.6717 73.4475 63.3934 73.1691C63.115 72.8907 62.7374 72.7343 62.3438 72.7343H32.6562C32.2626 72.7343 31.885 72.8907 31.6066 73.1691C31.3283 73.4475 31.1719 73.825 31.1719 74.2187V84.6093H25.2344V69.7656H69.7656V84.6093H63.8281ZM68.4905 66.7968H26.5095L47.5 55.1356L68.4905 66.7968ZM48.2214 52.1401C48.0008 52.0174 47.7525 51.953 47.5 51.953C47.2475 51.953 46.9992 52.0174 46.7786 52.1401L28.2031 62.4595V34.1406H66.7969V62.4595L48.2214 52.1401ZM48.9844 26.7187C48.9875 24.2208 49.8889 21.8074 51.524 19.9191C53.1591 18.0309 55.4189 16.7937 57.8906 16.4335V20.7812C57.8875 23.2791 56.9861 25.6925 55.351 27.5808C53.7159 29.469 51.4561 30.7062 48.9844 31.0664V26.7187ZM46.0156 31.0664C43.5439 30.7062 41.2841 29.469 39.649 27.5808C38.0139 25.6925 37.1125 23.2791 37.1094 20.7812V16.4335C39.5811 16.7937 41.8409 18.0309 43.476 19.9191C45.1111 21.8074 46.0125 24.2208 46.0156 26.7187V31.0664ZM4.45312 34.1406H25.2344V64.1086L20.0598 66.9839C19.7724 67.1436 19.5462 67.3943 19.4167 67.6966C19.2872 67.9988 19.2617 68.3355 19.3443 68.6538C19.4268 68.9721 19.6127 69.254 19.8728 69.4552C20.1329 69.6564 20.4524 69.7656 20.7812 69.7656H22.2656V84.6093H14.8438C14.4501 84.6093 14.0725 84.7657 13.7941 85.0441C13.5158 85.3225 13.3594 85.7 13.3594 86.0937V90.5468H4.45312V34.1406ZM90.5469 90.5468H81.6406V86.0937C81.6406 85.7 81.4842 85.3225 81.2059 85.0441C80.9275 84.7657 80.5499 84.6093 80.1562 84.6093H72.7344V69.7656H74.2188C74.5476 69.7656 74.8671 69.6564 75.1272 69.4552C75.3873 69.254 75.5732 68.9721 75.6557 68.6538C75.7382 68.3355 75.7128 67.9988 75.5833 67.6966C75.4538 67.3943 75.2276 67.1436 74.9402 66.9839L69.7656 64.1086V34.1406H90.5469V90.5468Z" fill="white"/>
<path d="M8.90625 48.9844H20.7812C21.1749 48.9844 21.5525 48.828 21.8309 48.5496C22.1092 48.2712 22.2656 47.8937 22.2656 47.5V38.5938C22.2656 38.2001 22.1092 37.8225 21.8309 37.5441C21.5525 37.2658 21.1749 37.1094 20.7812 37.1094H8.90625C8.51257 37.1094 8.13501 37.2658 7.85664 37.5441C7.57826 37.8225 7.42188 38.2001 7.42188 38.5938V47.5C7.42188 47.8937 7.57826 48.2712 7.85664 48.5496C8.13501 48.828 8.51257 48.9844 8.90625 48.9844ZM10.3906 40.0781H19.2969V46.0156H10.3906V40.0781Z" fill="white"/>
<path d="M74.2188 48.9844H86.0938C86.4874 48.9844 86.865 48.828 87.1434 48.5496C87.4217 48.2712 87.5781 47.8937 87.5781 47.5V38.5938C87.5781 38.2001 87.4217 37.8225 87.1434 37.5441C86.865 37.2658 86.4874 37.1094 86.0938 37.1094H74.2188C73.8251 37.1094 73.4475 37.2658 73.1691 37.5441C72.8908 37.8225 72.7344 38.2001 72.7344 38.5938V47.5C72.7344 47.8937 72.8908 48.2712 73.1691 48.5496C73.4475 48.828 73.8251 48.9844 74.2188 48.9844ZM75.7031 40.0781H84.6094V46.0156H75.7031V40.0781Z" fill="white"/>
<path d="M74.2188 63.8281H86.0938C86.4874 63.8281 86.865 63.6717 87.1434 63.3934C87.4217 63.115 87.5781 62.7374 87.5781 62.3438V53.4375C87.5781 53.0438 87.4217 52.6663 87.1434 52.3879C86.865 52.1095 86.4874 51.9531 86.0938 51.9531H74.2188C73.8251 51.9531 73.4475 52.1095 73.1691 52.3879C72.8908 52.6663 72.7344 53.0438 72.7344 53.4375V62.3438C72.7344 62.7374 72.8908 63.115 73.1691 63.3934C73.4475 63.6717 73.8251 63.8281 74.2188 63.8281ZM75.7031 54.9219H84.6094V60.8594H75.7031V54.9219Z" fill="white"/>
<path d="M20.7812 63.8281C21.1749 63.8281 21.5525 63.6717 21.8309 63.3934C22.1092 63.115 22.2656 62.7374 22.2656 62.3438V53.4375C22.2656 53.0438 22.1092 52.6663 21.8309 52.3879C21.5525 52.1095 21.1749 51.9531 20.7812 51.9531H8.90625C8.51257 51.9531 8.13501 52.1095 7.85664 52.3879C7.57826 52.6663 7.42188 53.0438 7.42188 53.4375V62.3438C7.42188 62.7374 7.57826 63.115 7.85664 63.3934C8.13501 63.6717 8.51257 63.8281 8.90625 63.8281H20.7812ZM10.3906 54.9219H19.2969V60.8594H10.3906V54.9219Z" fill="white"/>
<path d="M62.3438 37.1094H32.6562C32.2626 37.1094 31.885 37.2658 31.6066 37.5441C31.3283 37.8225 31.1719 38.2001 31.1719 38.5938V47.5C31.1719 47.8937 31.3283 48.2712 31.6066 48.5496C31.885 48.828 32.2626 48.9844 32.6562 48.9844H62.3438C62.7374 48.9844 63.115 48.828 63.3934 48.5496C63.6717 48.2712 63.8281 47.8937 63.8281 47.5V38.5938C63.8281 38.2001 63.6717 37.8225 63.3934 37.5441C63.115 37.2658 62.7374 37.1094 62.3438 37.1094ZM60.8594 46.0156H34.1406V40.0781H60.8594V46.0156Z" fill="white"/>
</svg>
