<svg width="34" height="34" viewBox="0 0 34 34" fill="none" xmlns="http://www.w3.org/2000/svg">
<path fill-rule="evenodd" clip-rule="evenodd" d="M32.9999 17C32.9999 25.8361 25.8361 32.9999 17 32.9999C8.16381 32.9999 1 25.8361 1 17C1 8.16381 8.16381 1 17 1C25.8361 1 32.9999 8.16381 32.9999 17Z" stroke="#CCCCCC"/>
<path fill-rule="evenodd" clip-rule="evenodd" d="M7.95714 17.6976C9.76861 15.0124 16.5317 15.37 17.6962 17.6976C19.0876 20.4802 15.8848 19.6302 14.9136 23.2628C13.6601 27.9543 15.8194 30.2194 14.9136 30.2194C10.7397 30.2194 11.1905 26.3181 9.34844 23.2628C7.78462 20.6681 6.78427 19.4368 7.95714 17.6976Z" stroke="#CCCCCC"/>
<path d="M33.0003 17.6944C32.4952 17.6944 23.2612 14.5083 23.2612 17.6944C23.2612 19.0857 21.3634 19.9037 21.8699 21.8683C22.5071 24.3462 26.0368 24.5493 26.0438 26.0422C26.0521 27.9413 22.8786 29.839 26.0438 30.2161" stroke="#CCCCCC"/>
<path d="M22.1055 1.83496C21.4376 4.64539 23.0237 6.32887 24.6515 7.95669C26.5994 9.90451 25.8481 12.6454 27.4342 12.1306C29.9524 11.3236 31.5802 10.4332 31.6081 10.7393" stroke="#CCCCCC"/>
<path d="M2.39096 10.7384C5.616 13.2636 9.34747 12.1297 10.7388 10.7384C12.3916 9.08557 17.0831 8.1214 16.304 6.56453C14.9127 3.78193 9.86225 3.26019 10.7388 2.39062" stroke="#CCCCCC"/>
</svg>
