<svg width="20" height="20" viewBox="0 0 20 20" fill="none" xmlns="http://www.w3.org/2000/svg">
<path d="M5 0C4.3125 0 3.75 0.5625 3.75 1.25V18.75C3.75 19.4375 4.3125 20 5 20H17.5C18.1875 20 18.75 19.4375 18.75 18.75V5L13.75 0H5Z" fill="#E2E5E7"/>
<path d="M15 5H18.75L13.75 0V3.75C13.75 4.4375 14.3125 5 15 5Z" fill="#B0B7BD"/>
<path d="M18.75 8.75L15 5H18.75V8.75Z" fill="#CAD1D8"/>
<path d="M16.25 16.25C16.25 16.5938 15.9688 16.875 15.625 16.875H1.875C1.53125 16.875 1.25 16.5938 1.25 16.25V10C1.25 9.65625 1.53125 9.375 1.875 9.375H15.625C15.9688 9.375 16.25 9.65625 16.25 10V16.25Z" fill="#84BD5A"/>
<path d="M5.6381 12.7419L6.50747 11.6525C6.76747 11.3125 7.27247 11.7469 6.98747 12.0719C6.6881 12.4269 6.3731 12.8119 6.0731 13.2063L7.09247 14.4756C7.36747 14.8506 6.8181 15.21 6.5481 14.84L5.6281 13.6607L4.72372 14.8657C4.46872 15.23 3.90372 14.8207 4.18872 14.4807L5.1931 13.2063C4.8781 12.8113 4.5731 12.4269 4.26872 12.0719C3.95435 11.6969 4.53872 11.3125 4.76872 11.6631L5.6381 12.7419Z" fill="white"/>
<path d="M7.70935 11.8419C7.70935 11.6769 7.84935 11.5369 8.02435 11.5369C8.18435 11.5369 8.31935 11.6776 8.31935 11.8419V14.3457H9.67873C10.1681 14.3457 10.1787 15.0001 9.67873 15.0001H8.02498C7.84998 15.0001 7.70998 14.8757 7.70998 14.6957V11.8419H7.70935Z" fill="white"/>
<path d="M10.6262 12.2919C10.7412 11.3219 12.205 11.1475 12.895 11.6775C13.235 11.9519 12.875 12.3869 12.575 12.1669C12.205 11.9325 11.3656 11.8225 11.2606 12.3413C11.1256 13.1613 13.2993 12.6919 13.2643 14.0213C13.2293 15.2906 11.3906 15.32 10.7006 14.7506C10.535 14.6156 10.5406 14.3963 10.6306 14.2606C10.7606 14.1313 10.905 14.0863 11.0756 14.2263C11.485 14.5056 12.54 14.7156 12.6143 14.0056C12.55 13.2669 10.4712 13.7113 10.6262 12.2919Z" fill="white"/>
<path d="M15.625 16.875H3.75V17.5H15.625C15.9688 17.5 16.25 17.2188 16.25 16.875V16.25C16.25 16.5938 15.9688 16.875 15.625 16.875Z" fill="#CAD1D8"/>
</svg>
