<svg width="16" height="16" viewBox="0 0 16 16" fill="none" xmlns="http://www.w3.org/2000/svg">
<path d="M8 3.5C9.5 3.5 10.75 4.75 10.75 6.25C10.75 7.78125 9.5 9 8 9C6.46875 9 5.25 7.78125 5.25 6.25C5.25 4.75 6.46875 3.5 8 3.5ZM8 7.5C8.6875 7.5 9.25 6.96875 9.25 6.25C9.25 5.5625 8.6875 5 8 5C7.28125 5 6.75 5.5625 6.75 6.25C6.75 6.96875 7.28125 7.5 8 7.5ZM8 0C12.4062 0 16 3.59375 16 8C16 12.4375 12.4062 16 8 16C3.5625 16 0 12.4375 0 8C0 3.59375 3.5625 0 8 0ZM8 14.5C9.4375 14.5 10.7812 14.0312 11.875 13.2188C11.3438 12.1875 10.2812 11.5 9.09375 11.5H6.875C5.6875 11.5 4.625 12.1562 4.09375 13.2188C5.1875 14.0312 6.53125 14.5 8 14.5ZM13 12.1562C13.9375 11.0312 14.5 9.59375 14.5 8C14.5 4.4375 11.5625 1.5 8 1.5C4.40625 1.5 1.5 4.4375 1.5 8C1.5 9.59375 2.03125 11.0312 2.96875 12.1562C3.8125 10.8438 5.25 10 6.875 10H9.09375C10.7188 10 12.1562 10.8438 13 12.1562Z" fill="#17A297"/>
</svg>
