<svg width="14" height="16" viewBox="0 0 14 16" fill="none" xmlns="http://www.w3.org/2000/svg">
<path d="M7 8.5C4.78125 8.5 3 6.71875 3 4.5V0L5 1L7 0L9 1L11 0V4.5C11 6.71875 9.1875 8.5 7 8.5ZM4.5 4V4.5C4.5 5.90625 5.59375 7 7 7C8.375 7 9.5 5.90625 9.5 4.5V4H4.5ZM8.5 9.5C11.5312 9.5 14 11.9688 14 15C14 15.5625 13.5312 16 13 16H1C0.4375 16 0 15.5625 0 15C0 11.9688 2.4375 9.5 5.5 9.5H8.5ZM1.5 14.5H12.4688C12.2188 12.5312 10.5312 11 8.5 11H5.5C3.4375 11 1.75 12.5312 1.5 14.5Z" fill="#17A297"/>
</svg>
