<svg width="81" height="60" viewBox="0 0 81 60" fill="none" xmlns="http://www.w3.org/2000/svg">
<path d="M80.1765 57.848C79.7622 58.5272 79.095 59.0141 78.3217 59.2014C77.5484 59.3887 76.7324 59.2612 76.0532 58.8469L41.0506 37.4967C40.7143 37.2916 40.4216 37.0222 40.1894 36.7039C39.9572 36.3857 39.7899 36.0248 39.6971 35.6419C39.6044 35.259 39.5879 34.8616 39.6488 34.4724C39.7096 34.0831 39.8465 33.7097 40.0516 33.3733C40.2568 33.037 40.5262 32.7444 40.8444 32.5121C41.1627 32.2799 41.5235 32.1127 41.9064 32.0199C42.2893 31.9271 42.6867 31.9107 43.076 31.9715C43.4652 32.0323 43.8387 32.1692 44.175 32.3744L79.1776 53.7246C79.8568 54.1389 80.3437 54.8061 80.531 55.5794C80.7183 56.3527 80.5908 57.1687 80.1765 57.848Z" fill="#E6E6E5"/>
<path d="M45.174 36.4978C42.7021 40.5502 39.0842 43.7786 34.7776 45.7748C30.4709 47.771 25.6691 48.4453 20.9792 47.7124C16.2894 46.9795 11.9222 44.8724 8.42985 41.6575C4.93754 38.4426 2.47698 34.2643 1.35933 29.651C0.241681 25.0377 0.517136 20.1966 2.15087 15.7398C3.7846 11.283 6.70323 7.41082 10.5377 4.61281C14.3721 1.8148 18.9502 0.216667 23.6929 0.0205078C28.4356 -0.175651 33.1299 1.03897 37.1824 3.51078C42.6108 6.83037 46.5009 12.1677 47.9991 18.3518C49.4973 24.5359 48.4813 31.0618 45.174 36.4978ZM9.31767 14.6268C7.46381 17.6661 6.55286 21.1869 6.69998 24.7439C6.8471 28.301 8.0457 31.7345 10.1442 34.6103C12.2427 37.4862 15.1469 39.6751 18.4895 40.9004C21.832 42.1257 25.4628 42.3323 28.9228 41.4941C32.3828 40.6558 35.5165 38.8104 37.9277 36.1912C40.3389 33.572 41.9192 30.2966 42.4689 26.7792C43.0185 23.2618 42.5128 19.6604 41.0157 16.4304C39.5185 13.2005 37.0972 10.487 34.0579 8.63311C29.9809 6.15263 25.0865 5.39062 20.4484 6.51427C15.8103 7.63792 11.8074 10.5555 9.31767 14.6268Z" fill="#E6E6E5"/>
</svg>
