<svg width="17" height="16" viewBox="0 0 17 16" fill="none" xmlns="http://www.w3.org/2000/svg">
<path d="M9.03125 8.5C9.59375 8.5 10.0312 8.96875 10.0312 9.5C10.0312 10.0625 9.59375 10.5 9.03125 10.5C8.46875 10.5 8.03125 10.0625 8.03125 9.5C8.03125 8.96875 8.46875 8.5 9.03125 8.5ZM9.03125 7.5C8.625 7.5 8.28125 7.1875 8.28125 6.75V3.25C8.28125 2.84375 8.625 2.5 9.03125 2.5C9.4375 2.5 9.78125 2.84375 9.78125 3.25V6.75C9.78125 7.1875 9.4375 7.5 9.03125 7.5ZM14.9688 0C16.0938 0 16.9688 0.90625 16.9688 2V10.9375C16.9688 12 16.0625 12.9062 14.9688 12.9062H10.4688L6.5625 15.8438C6.3125 16 5.96875 15.8438 5.96875 15.5312V12.9375H2.96875C1.84375 12.9375 0.96875 12.0625 0.96875 10.9688V2C0.96875 0.90625 1.84375 0 2.96875 0H14.9688ZM15.5 11V2C15.5 1.75 15.25 1.5 15 1.5H3C2.71875 1.5 2.5 1.75 2.5 2V11C2.5 11.2812 2.71875 11.5 3 11.5H7.5V13.375L10 11.5H15C15.25 11.5 15.5 11.2812 15.5 11Z" fill="#EF4444"/>
</svg>
