<svg width="16" height="16" viewBox="0 0 16 16" fill="none" xmlns="http://www.w3.org/2000/svg">
<path d="M14 0C15.0938 0 16 0.90625 16 2V11C16 12.0938 15.0938 13 14 13H9.5L5.59375 15.8438C5.34375 16 5 15.8438 5 15.5312V12.9375H2C0.875 12.9375 0 12.0625 0 10.9688V2C0 0.90625 0.875 0 2 0H14ZM14.5 11V2C14.5 1.75 14.25 1.5 14 1.5H2C1.71875 1.5 1.5 1.75 1.5 2V11C1.5 11.2812 1.71875 11.5 2 11.5H6.5V13.375L9 11.5H14C14.25 11.5 14.5 11.2812 14.5 11ZM10.5 5.75C10.9062 5.75 11.25 6.09375 11.25 6.5C11.25 6.9375 10.9062 7.25 10.4688 7.25H5.46875C5.0625 7.25 4.75 6.9375 4.75 6.5C4.75 6.09375 5.0625 5.75 5.5 5.75H10.5Z" fill="#B6B4B2"/>
</svg>
