<svg width="17" height="16" viewBox="0 0 17 16" fill="none" xmlns="http://www.w3.org/2000/svg">
<path d="M12.25 4.5C12.6562 4.5 13 4.84375 13 5.25C13 5.6875 12.6562 6 12.25 6H5.75C5.3125 6 5 5.6875 5 5.25C5 4.84375 5.3125 4.5 5.75 4.5H12.25ZM9.25 7.5C9.65625 7.5 10 7.84375 10 8.25C10 8.6875 9.65625 9 9.25 9H5.75C5.3125 9 5 8.6875 5 8.25C5 7.84375 5.3125 7.5 5.75 7.5H9.25ZM14.9688 0C16.0938 0 16.9688 0.90625 16.9688 2V10.9375C16.9688 12 16.0625 12.9062 14.9688 12.9062H10.4688L6.5625 15.8438C6.3125 16 5.96875 15.8438 5.96875 15.5312V12.9375H2.96875C1.84375 12.9375 0.96875 12.0625 0.96875 10.9688V2C0.96875 0.90625 1.84375 0 2.96875 0H14.9688ZM15.5 11V2C15.5 1.75 15.25 1.5 15 1.5H3C2.71875 1.5 2.5 1.75 2.5 2V11C2.5 11.2812 2.71875 11.5 3 11.5H7.5V13.375L10 11.5H15C15.25 11.5 15.5 11.2812 15.5 11Z" fill="#17A297"/>
</svg>
