<svg width="24" height="27" viewBox="0 0 24 27" fill="none" xmlns="http://www.w3.org/2000/svg">
<path d="M8.64061 4.71714C8.64061 3.37604 9.7238 2.24126 11.1165 2.24126H12.7671C14.1082 2.24126 15.2429 3.37604 15.2429 4.71714V22.8735C15.2429 24.2662 14.1082 25.3494 12.7671 25.3494H11.1165C9.7238 25.3494 8.64061 24.2662 8.64061 22.8735V4.71714ZM0.387695 14.6206C0.387695 13.2795 1.47089 12.1448 2.86357 12.1448H4.51415C5.85525 12.1448 6.99003 13.2795 6.99003 14.6206V22.8735C6.99003 24.2662 5.85525 25.3494 4.51415 25.3494H2.86357C1.47089 25.3494 0.387695 24.2662 0.387695 22.8735V14.6206ZM21.02 5.54243C22.3611 5.54243 23.4958 6.6772 23.4958 8.0183V22.8735C23.4958 24.2662 22.3611 25.3494 21.02 25.3494H19.3694C17.9767 25.3494 16.8935 24.2662 16.8935 22.8735V8.0183C16.8935 6.6772 17.9767 5.54243 19.3694 5.54243H21.02Z" fill="#17A297"/>
<rect x="0.387695" y="11.9025" width="6.59239" height="13.4469" rx="2.20078" fill="#88C9BB"/>
<rect x="8.64557" y="2.24126" width="6.59239" height="23.1082" rx="2.20078" fill="#6CBCAB"/>
</svg>
