<svg width="21" height="22" viewBox="0 0 21 22" fill="none" xmlns="http://www.w3.org/2000/svg">
<path d="M3.56395 18.1268C1.58528 16.1855 0.595947 13.7961 0.595947 10.9588C0.595947 8.12145 1.58528 5.73212 3.56395 3.79079C5.56128 1.84945 8.02528 0.878788 10.9559 0.878788C13.1399 0.878788 15.0439 1.42945 16.6679 2.53079C18.2919 3.63212 19.468 4.97612 20.1959 6.56279L15.7719 8.24279C15.3426 7.36546 14.6986 6.64679 13.8399 6.08679C12.9999 5.52679 12.0386 5.24679 10.9559 5.24679C9.42528 5.24679 8.13728 5.79746 7.09195 6.89879C6.04661 8.00012 5.52395 9.35345 5.52395 10.9588C5.52395 12.5641 6.04661 13.9175 7.09195 15.0188C8.13728 16.1201 9.42528 16.6708 10.9559 16.6708C12.0386 16.6708 12.9999 16.3908 13.8399 15.8308C14.6986 15.2708 15.3426 14.5521 15.7719 13.6748L20.1959 15.3548C19.468 16.9415 18.2919 18.2855 16.6679 19.3868C15.0439 20.4881 13.1399 21.0388 10.9559 21.0388C8.02528 21.0388 5.56128 20.0681 3.56395 18.1268Z" fill="#BABAB6"/>
</svg>
