<svg width="21" height="21" viewBox="0 0 21 21" fill="none" xmlns="http://www.w3.org/2000/svg">
<path d="M3.80565 18.0813C1.82698 16.14 0.837646 13.7507 0.837646 10.9133C0.837646 8.07598 1.82698 5.68665 3.80565 3.74532C5.80298 1.80398 8.26698 0.833317 11.1976 0.833317C13.3816 0.833317 15.2856 1.38398 16.9096 2.48532C18.5336 3.58665 19.7096 4.93065 20.4376 6.51732L16.0136 8.19732C15.5843 7.31998 14.9403 6.60132 14.0816 6.04132C13.2416 5.48132 12.2803 5.20132 11.1976 5.20132C9.66698 5.20132 8.37898 5.75198 7.33365 6.85332C6.28831 7.95465 5.76565 9.30798 5.76565 10.9133C5.76565 12.5187 6.28831 13.872 7.33365 14.9733C8.37898 16.0747 9.66698 16.6253 11.1976 16.6253C12.2803 16.6253 13.2416 16.3453 14.0816 15.7853C14.9403 15.2253 15.5843 14.5067 16.0136 13.6293L20.4376 15.3093C19.7096 16.896 18.5336 18.24 16.9096 19.3413C15.2856 20.4427 13.3816 20.9933 11.1976 20.9933C8.26698 20.9933 5.80298 20.0227 3.80565 18.0813Z" fill="#E6E6E5"/>
</svg>
