<svg width="27" height="30" viewBox="0 0 27 30" fill="none" xmlns="http://www.w3.org/2000/svg">
<path d="M20.78 10.1861V6.8219C21.2122 6.61412 21.5781 6.28433 21.8352 5.87093C22.0923 5.45754 22.2299 4.97753 22.2321 4.4868V4.4096C22.2321 2.97878 21.1045 1.81887 19.7137 1.81887H19.6385C18.2476 1.81887 17.12 2.97878 17.12 4.4096V4.4868C17.1222 4.97753 17.2598 5.45754 17.5169 5.87093C17.774 6.28433 18.1399 6.61412 18.5721 6.8219V10.1861C17.3299 10.3818 16.1601 10.9117 15.181 11.722L6.21146 4.53537C6.27542 4.29787 6.30878 4.05364 6.31255 3.8085C6.31364 3.23111 6.14825 2.66637 5.83728 2.18569C5.52632 1.70502 5.08375 1.33001 4.56557 1.1081C4.04739 0.886192 3.47686 0.827355 2.92617 0.939032C2.37547 1.05071 1.86935 1.32788 1.47181 1.73549C1.07427 2.1431 0.803181 2.66283 0.69283 3.22895C0.58248 3.79506 0.637827 4.38212 0.85187 4.91588C1.06591 5.44963 1.42903 5.9061 1.89531 6.22753C2.36158 6.54897 2.91005 6.72093 3.47134 6.72168C3.96237 6.7193 4.4442 6.58445 4.86872 6.3306L13.7012 13.4006C12.0773 15.9239 12.1208 19.2126 13.8106 21.6897L11.1242 24.4539C10.9069 24.3825 10.6808 24.3446 10.4528 24.3414C9.16628 24.3425 8.12404 25.4158 8.12437 26.7392C8.1247 28.0625 9.16761 29.1352 10.454 29.1355C11.7406 29.1359 12.7839 28.0637 12.785 26.7403C12.782 26.5059 12.7451 26.2731 12.6755 26.0498L15.3331 23.3151C17.7076 25.1955 20.9689 25.3575 23.5087 23.7212C26.0483 22.0848 27.3299 18.9956 26.7214 15.9773C26.1129 12.9589 23.7428 10.6487 20.78 10.186V10.1861ZM19.6784 21.2509C19.1874 21.2645 18.6988 21.1767 18.2414 20.9929C17.7839 20.809 17.3669 20.5327 17.015 20.1803C16.663 19.8278 16.3833 19.4065 16.1923 18.941C16.0013 18.4756 15.9029 17.9755 15.9029 17.4702C15.9029 16.965 16.0013 16.4649 16.1923 15.9995C16.3833 15.534 16.663 15.1126 17.015 14.7602C17.3669 14.4078 17.7839 14.1315 18.2414 13.9476C18.6988 13.7638 19.1874 13.676 19.6784 13.6896C21.6569 13.7609 23.2254 15.4309 23.2265 17.4675C23.2273 19.5039 21.6606 21.1756 19.6821 21.2489" fill="#FF7B57"/>
</svg>
