<svg width="45" height="89" viewBox="0 0 45 89" fill="none" xmlns="http://www.w3.org/2000/svg">
<path d="M9.07218 0.892059H0.723877C0.723877 12.3513 5.312 23.3412 13.4789 31.4441C21.6458 39.547 32.7226 44.0992 44.2723 44.0992V35.8163C34.9367 35.8163 25.9834 32.1368 19.3821 25.5872C12.7808 19.0377 9.07218 10.1545 9.07218 0.892059V0.892059Z" fill="#D2FF50"/>
<path d="M0.723877 89.6792H7.88068C7.88068 80.1032 11.7148 70.9194 18.5396 64.1481C25.3643 57.3769 34.6207 53.5728 44.2723 53.5728V46.4721C32.7226 46.4721 21.6458 51.0243 13.4789 59.1272C5.312 67.2301 0.723877 78.22 0.723877 89.6792V89.6792Z" fill="#D2FF50"/>
</svg>
