<svg width="20" height="25" viewBox="0 0 20 25" fill="none" xmlns="http://www.w3.org/2000/svg">
<path d="M18.7039 3.8175C18.1414 3.20813 17.157 3.20813 16.5945 3.8175L1.59448 18.8175C0.985107 19.38 0.985107 20.3644 1.59448 20.9269C1.87573 21.2081 2.25073 21.3488 2.67261 21.3488C3.04761 21.3488 3.42261 21.2081 3.70386 20.9269L18.7039 5.92688C19.3132 5.36438 19.3132 4.38 18.7039 3.8175ZM4.17261 9.34875C5.81323 9.34875 7.17261 8.03625 7.17261 6.34875C7.17261 4.70813 5.81323 3.39563 4.17261 3.39563C2.48511 3.39563 1.17261 4.70813 1.17261 6.34875C1.17261 8.03625 2.48511 9.34875 4.17261 9.34875ZM16.1726 15.3488C14.4851 15.3488 13.1726 16.7081 13.1726 18.3488C13.1726 20.0363 14.4851 21.3488 16.1726 21.3488C17.8132 21.3488 19.1726 20.0363 19.1726 18.3488C19.1726 16.7081 17.8132 15.3488 16.1726 15.3488Z" fill="#383C37"/>
</svg>
