<svg width="17" height="21" viewBox="0 0 17 21" fill="none" xmlns="http://www.w3.org/2000/svg">
<path d="M0.991943 15.0233L5.80794 14.0433C6.14394 15.6486 7.20794 16.4513 8.99994 16.4513C9.78394 16.4513 10.4186 16.2739 10.9039 15.9193C11.4079 15.5646 11.6599 15.1353 11.6599 14.6313C11.6599 14.2206 11.4733 13.8753 11.0999 13.5953C10.7266 13.3153 10.2319 13.0913 9.61594 12.9233C9.01861 12.7553 8.35594 12.5873 7.62794 12.4193C6.89994 12.2326 6.17194 11.9993 5.44394 11.7193C4.71594 11.4393 4.04394 11.0939 3.42794 10.6833C2.83061 10.2726 2.34528 9.70328 1.97194 8.97528C1.59861 8.24728 1.41194 7.38861 1.41194 6.39928C1.41194 4.68194 2.13061 3.25394 3.56794 2.11528C5.00528 0.957943 6.76928 0.379276 8.85994 0.379276C10.9693 0.379276 12.6959 0.883277 14.0399 1.89128C15.4026 2.89928 16.2053 4.23394 16.4479 5.89528L11.6319 6.87528C11.4826 6.12861 11.1559 5.54061 10.6519 5.11128C10.1479 4.68194 9.49461 4.46728 8.69194 4.46728C7.98261 4.46728 7.41328 4.62594 6.98394 4.94328C6.55461 5.24194 6.33994 5.63394 6.33994 6.11928C6.33994 6.56728 6.59194 6.94061 7.09594 7.23928C7.59994 7.53794 8.23461 7.76194 8.99994 7.91128C9.76528 8.06061 10.5866 8.28461 11.4639 8.58328C12.3413 8.88194 13.1626 9.22728 13.9279 9.61928C14.6933 10.0113 15.3279 10.6273 15.8319 11.4673C16.3359 12.3073 16.5879 13.3153 16.5879 14.4913C16.5879 16.2086 15.8413 17.6459 14.3479 18.8033C12.8733 19.9606 11.0439 20.5393 8.85994 20.5393C6.69461 20.5393 4.90261 20.0353 3.48394 19.0273C2.08394 18.0193 1.25328 16.6846 0.991943 15.0233Z" fill="#E6E6E5"/>
</svg>
