<svg width="28" height="27" viewBox="0 0 28 27" fill="none" xmlns="http://www.w3.org/2000/svg">
<path d="M16.9809 0.236893H14.5159C14.5159 3.62056 15.8706 6.86565 18.2822 9.25826C20.6937 11.6509 23.9644 12.995 27.3748 12.995V10.5493C24.6182 10.5493 21.9745 9.4628 20.0252 7.52885C18.076 5.59491 16.9809 2.97191 16.9809 0.236893V0.236893Z" fill="#D2FF50"/>
<path d="M14.5159 26.4536H16.6291C16.6291 23.626 17.7613 20.9142 19.7765 18.9148C21.7917 16.9154 24.5249 15.7922 27.3748 15.7922V13.6955C23.9644 13.6955 20.6937 15.0396 18.2822 17.4323C15.8706 19.8249 14.5159 23.07 14.5159 26.4536Z" fill="#D2FF50"/>
<path d="M0.951947 15.4431C3.89376 15.4449 6.71442 16.6059 8.79373 18.6706C10.873 20.7353 12.0408 23.5349 12.0401 26.4536H13.8016C13.8016 23.07 12.4468 19.8249 10.0353 17.4323C7.62375 15.0396 4.35303 13.6955 0.942627 13.6955L0.951947 15.4431Z" fill="#D2FF50"/>
</svg>
