<svg width="10" height="11" viewBox="0 0 10 11" fill="none" xmlns="http://www.w3.org/2000/svg">
<path d="M9.57031 1.05078C10 1.48047 10 2.16406 9.57031 2.59375L8.98438 3.17969L7.07031 1.26562L7.65625 0.679688C8.08594 0.25 8.76953 0.25 9.19922 0.679688L9.57031 1.05078ZM3.35938 4.97656L6.62109 1.71484L8.53516 3.62891L5.27344 6.89062C5.15625 7.00781 5 7.10547 4.84375 7.16406L3.10547 7.73047C2.92969 7.78906 2.75391 7.75 2.63672 7.61328C2.5 7.49609 2.46094 7.30078 2.51953 7.14453L3.08594 5.40625C3.14453 5.25 3.24219 5.09375 3.35938 4.97656ZM3.75 1.5C4.08203 1.5 4.375 1.79297 4.375 2.125C4.375 2.47656 4.08203 2.75 3.75 2.75H1.875C1.52344 2.75 1.25 3.04297 1.25 3.375V8.375C1.25 8.72656 1.52344 9 1.875 9H6.875C7.20703 9 7.5 8.72656 7.5 8.375V6.5C7.5 6.16797 7.77344 5.875 8.125 5.875C8.45703 5.875 8.75 6.16797 8.75 6.5V8.375C8.75 9.41016 7.91016 10.25 6.875 10.25H1.875C0.820312 10.25 0 9.41016 0 8.375V3.375C0 2.33984 0.820312 1.5 1.875 1.5H3.75Z" fill="#FB9101"/>
</svg>
