<svg width="14" height="14" viewBox="0 0 14 14" fill="none" xmlns="http://www.w3.org/2000/svg">
<path d="M10.625 3.84375C11.0938 4.3125 11.0938 5.09375 10.625 5.59375L9.9375 6.28125L7.71875 4.0625L8.40625 3.375C8.875 2.90625 9.6875 2.90625 10.1562 3.375L10.625 3.84375ZM3.71875 8.03125L7.03125 4.75L9.25 6.96875L5.9375 10.25C5.8125 10.375 5.65625 10.4688 5.5 10.5312L3.59375 11C3.4375 11.0312 3.25 11 3.125 10.875C3 10.75 2.96875 10.5625 3 10.375L3.46875 8.5C3.5 8.34375 3.59375 8.1875 3.71875 8.03125ZM0 2C0 0.90625 0.875 0 2 0H12C13.0938 0 14 0.90625 14 2V12C14 13.125 13.0938 14 12 14H2C0.875 14 0 13.125 0 12V2ZM1.5 2V12C1.5 12.2812 1.71875 12.5 2 12.5H12C12.25 12.5 12.5 12.2812 12.5 12V2C12.5 1.75 12.25 1.5 12 1.5H2C1.71875 1.5 1.5 1.75 1.5 2Z" fill="#17A297"/>
</svg>
