<svg width="12" height="16" viewBox="0 0 12 16" fill="none" xmlns="http://www.w3.org/2000/svg">
<path d="M11.4062 2.9375L9.0625 0.59375C8.6875 0.21875 8.1875 0 7.65625 0H2C0.875 0 0 0.90625 0 2V14C0 15.125 0.875 16 2 16H10C11.0938 16 12 15.125 12 14V4.34375C12 3.8125 11.7812 3.3125 11.4062 2.9375ZM10.5 14C10.5 14.2812 10.25 14.5 10 14.5H2C1.71875 14.5 1.5 14.2812 1.5 14V2.03125C1.5 1.75 1.71875 1.53125 2 1.53125H7V4C7 4.5625 7.4375 5 8 5H10.4688V14H10.5ZM6.6875 7.75C6.59375 7.46875 6.3125 7.25 6 7.25C5.65625 7.25 5.375 7.46875 5.28125 7.75L4.5 9.96875L3.6875 7.53125C3.5625 7.125 3.15625 6.9375 2.75 7.0625C2.34375 7.1875 2.15625 7.59375 2.28125 8L3.78125 12.5C3.875 12.8125 4.15625 13 4.46875 13C4.78125 13 5.09375 12.8125 5.1875 12.5L6 10.2812L6.78125 12.5C6.875 12.8125 7.15625 13 7.5 13C7.8125 13 8.09375 12.8125 8.1875 12.5L9.6875 8C9.8125 7.59375 9.625 7.1875 9.21875 7.0625C8.8125 6.9375 8.40625 7.125 8.28125 7.53125L7.46875 9.96875L6.6875 7.75Z" fill="#17A297"/>
</svg>
