<svg width="20" height="14" viewBox="0 0 20 14" fill="none" xmlns="http://www.w3.org/2000/svg">
<path d="M5.5 4.25C5.5 4.6875 5.15625 5 4.75 5C4.3125 5 4 4.6875 4 4.25V3C4 1.34375 5.3125 0 7 0C8.65625 0 10 1.34375 10 3V3.25C10 3.96875 9.9375 4.65625 9.84375 5.34375L14 4.0625C14.2812 3.96875 14.5938 4.03125 14.7812 4.25C14.9688 4.4375 15.0312 4.75 14.9375 5.03125L14.0625 7.5H17.25C17.6562 7.5 18 7.84375 18 8.25C18 8.6875 17.6562 9 17.25 9H13C12.75 9 12.5 8.90625 12.375 8.6875C12.2188 8.5 12.1875 8.25 12.2812 8L13.0312 5.9375L9.5625 7L9.53125 7.15625C9.125 8.90625 8.46875 10.5938 7.53125 12.125L7.03125 12.9375C6.65625 13.625 5.9375 14 5.15625 14C3.96875 14 3 13.0312 3 11.8125V9.5C3 8.28125 3.78125 7.21875 4.90625 6.875L8.28125 5.8125C8.40625 4.96875 8.5 4.125 8.5 3.25V3C8.5 2.1875 7.8125 1.5 7 1.5C6.15625 1.5 5.5 2.1875 5.5 3V4.25ZM4.5 9.5V11.8125C4.5 12.2188 4.78125 12.5 5.15625 12.5C5.40625 12.5 5.625 12.375 5.75 12.1875L6.25 11.3438C6.96875 10.1562 7.53125 8.875 7.90625 7.5L5.375 8.28125C4.84375 8.46875 4.5 8.9375 4.5 9.5ZM2 11.8125C2 11.875 2 11.9375 2 12H0.75C0.3125 12 0 11.6875 0 11.25C0 10.8438 0.3125 10.5 0.75 10.5H2V11.8125ZM8.75 12C9.03125 11.5312 9.28125 11.0312 9.5 10.5H19.25C19.6562 10.5 20 10.8438 20 11.25C20 11.6875 19.6562 12 19.25 12H8.75Z" fill="#17A297"/>
</svg>
