<svg width="8" height="8" viewBox="0 0 8 8" fill="none" xmlns="http://www.w3.org/2000/svg">
<path d="M4.375 2.35938C4.26562 2.25 4.09375 2.23438 3.96875 2.29688C3.84375 2.34375 3.73438 2.48438 3.73438 2.625V3.5H2.375C2.15625 3.5 2 3.67188 2 3.875V4.125C2 4.34375 2.15625 4.5 2.375 4.5H3.75V5.375C3.75 5.51562 3.82812 5.65625 3.96875 5.71875C4.10938 5.76562 4.26562 5.75 4.375 5.64062L5.875 4.25C5.95312 4.20312 6 4.09375 6 4C5.98438 3.875 5.95312 3.78125 5.875 3.71875L4.375 2.35938ZM4 0C1.78125 0 0 1.79688 0 4C0 6.21875 1.78125 8 4 8C6.20312 8 8 6.21875 8 4C8 1.79688 6.20312 0 4 0ZM4 7.25C2.20312 7.25 0.75 5.79688 0.75 4C0.75 2.21875 2.20312 0.75 4 0.75C5.78125 0.75 7.25 2.21875 7.25 4C7.25 5.79688 5.78125 7.25 4 7.25Z" fill="#FAAD19"/>
</svg>
