<svg width="16" height="16" viewBox="0 0 16 16" fill="none" xmlns="http://www.w3.org/2000/svg">
<path d="M8.21875 0.53125C6.1875 0.46875 4.25 1.21875 2.78125 2.625C1.3125 4.0625 0.5 6 0.5 8.0625C0.5 11.75 3.21875 14.9688 6.875 15.5C6.90625 15.5 6.9375 15.5 7 15.5C7.34375 15.5 7.65625 15.25 7.71875 14.875C7.78125 14.4688 7.5 14.0938 7.09375 14.0312C4.1875 13.5938 2 11.0312 2 8.0625C2 6.40625 2.625 4.84375 3.8125 3.71875C5 2.5625 6.5 1.96875 8.15625 2.03125C11.375 2.125 14 4.9375 14 8.34375V8.9375C14 9.6875 13.375 10.3125 12.625 10.3125C11.8438 10.3125 11.25 9.6875 11.25 8.9375V5.28125C11.25 4.875 10.9062 4.5625 10.5 4.5625C10.125 4.5625 9.8125 4.84375 9.75 5.1875C9.1875 4.75 8.5 4.5 7.75 4.5C5.8125 4.5 4.25 6.09375 4.25 8C4.25 9.875 5.8125 11.4688 7.75 11.4688C8.6875 11.4688 9.5625 11.0625 10.1875 10.4375C10.7188 11.2188 11.5938 11.75 12.625 11.75C14.1875 11.75 15.5 10.4688 15.5 8.875V8.34375C15.5 4.15625 12.2188 0.625 8.21875 0.53125ZM7.75 10C6.625 10 5.75 9.125 5.75 8.03125C5.75 6.9375 6.625 6.0625 7.75 6.0625C8.84375 6.0625 9.75 6.96875 9.75 8.03125C9.75 9.125 8.84375 10 7.75 10Z" fill="#B6B4B2"/>
</svg>
